<?xml version="1.0" standalone="no"?>
<!DOCTYPE svg PUBLIC "-//W3C//DTD SVG 20010904//EN"
 "http://www.w3.org/TR/2001/REC-SVG-20010904/DTD/svg10.dtd">
<svg version="1.0" xmlns="http://www.w3.org/2000/svg"
 width="700.000000pt" height="700.000000pt" viewBox="0 0 700.000000 700.000000"
 preserveAspectRatio="xMidYMid meet">
<metadata>
Created by potrace 1.14, written by Peter Selinger 2001-2017
</metadata>
<g transform="translate(0.000000,700.000000) scale(0.100000,-0.100000)"
fill="#000000" stroke="none">
<path d="M3492 6518 c-7 -7 -12 -18 -12 -25 0 -7 -3 -13 -7 -13 -5 0 -13 -10
-19 -23 -6 -12 -61 -110 -123 -217 -62 -107 -122 -210 -132 -227 -10 -18 -69
-119 -130 -225 -149 -257 -202 -348 -291 -503 -42 -71 -98 -170 -127 -218 -28
-49 -51 -93 -51 -98 0 -5 -4 -9 -10 -9 -5 0 -10 -4 -10 -9 0 -6 -51 -97 -113
-204 -63 -106 -117 -200 -120 -208 -4 -8 -15 -27 -26 -44 -17 -28 -1253 -2162
-1338 -2310 -47 -82 -347 -600 -403 -695 -69 -118 -176 -303 -255 -440 -43
-74 -86 -148 -95 -165 -10 -16 -65 -112 -123 -213 l-106 -182 3499 0 3499 0
-106 183 c-58 100 -139 241 -180 312 -114 198 -398 685 -422 725 -11 19 -24
42 -28 50 -4 8 -33 59 -65 113 -32 55 -58 101 -58 103 0 3 -9 17 -19 32 -10
15 -179 304 -374 642 -195 338 -364 631 -376 650 -11 19 -24 42 -28 50 -4 8
-39 69 -78 135 -39 66 -85 145 -102 175 -17 30 -54 96 -83 145 -29 50 -69 117
-88 150 -19 33 -42 74 -52 90 -10 17 -37 64 -60 105 -24 41 -103 178 -177 304
-73 125 -133 230 -133 231 0 2 -22 40 -50 85 -27 45 -50 83 -50 85 0 2 -55 97
-121 212 -67 114 -132 226 -144 248 -13 22 -46 81 -75 130 -129 221 -164 282
-180 310 -9 17 -93 161 -185 320 -93 160 -173 299 -179 310 -6 11 -16 27 -22
35 -6 8 -23 36 -36 62 -19 36 -28 44 -36 36z"/>
</g>
</svg>
