<?xml version="1.0" standalone="no"?>
<!DOCTYPE svg PUBLIC "-//W3C//DTD SVG 20010904//EN"
 "http://www.w3.org/TR/2001/REC-SVG-20010904/DTD/svg10.dtd">
<svg version="1.0" xmlns="http://www.w3.org/2000/svg"
 width="344.000000pt" height="344.000000pt" viewBox="0 0 344.000000 344.000000"
 preserveAspectRatio="xMidYMid meet">
<metadata>
Created by potrace 1.14, written by Peter Selinger 2001-2017
</metadata>
<g transform="translate(0.000000,344.000000) scale(0.100000,-0.100000)"
fill="#000000" stroke="none">
<path d="M1667 3118 c-30 -51 -76 -131 -103 -178 -27 -47 -53 -92 -59 -101 -5
-9 -22 -38 -38 -65 -15 -27 -41 -71 -57 -99 -16 -27 -38 -66 -49 -85 -10 -19
-62 -108 -115 -198 -53 -89 -96 -164 -96 -166 0 -2 -43 -77 -96 -167 -53 -90
-110 -189 -127 -219 -17 -30 -48 -83 -69 -118 -21 -34 -38 -65 -38 -68 0 -3
-13 -26 -30 -51 -16 -24 -30 -46 -30 -48 0 -4 -251 -439 -314 -545 -19 -30
-45 -75 -58 -100 -30 -52 -149 -259 -217 -375 -26 -44 -50 -87 -54 -95 -4 -8
-11 -22 -17 -30 -7 -12 -63 -105 -97 -162 -2 -5 771 -8 1718 -8 l1721 0 -16
25 c-9 13 -28 46 -42 72 -15 26 -48 84 -74 128 -44 75 -252 433 -290 500 -10
17 -43 75 -75 130 -32 55 -67 116 -78 135 -10 19 -42 73 -70 120 -27 47 -58
99 -67 115 -26 46 -80 138 -90 155 -9 14 -323 557 -613 1060 -71 124 -160 277
-197 340 -37 63 -77 132 -88 153 l-20 38 -55 -93z"/>
</g>
</svg>
