<?xml version="1.0" standalone="no"?>
<!DOCTYPE svg PUBLIC "-//W3C//DTD SVG 20010904//EN"
 "http://www.w3.org/TR/2001/REC-SVG-20010904/DTD/svg10.dtd">
<svg version="1.0" xmlns="http://www.w3.org/2000/svg"
 width="700.000000pt" height="700.000000pt" viewBox="0 0 700.000000 700.000000"
 preserveAspectRatio="xMidYMid meet">
<metadata>
Created by potrace 1.14, written by Peter Selinger 2001-2017
</metadata>
<g transform="translate(0.000000,700.000000) scale(0.100000,-0.100000)"
fill="#000000" stroke="none">
<path d="M3300 6993 c-1066 -74 -1980 -568 -2609 -1410 -843 -1128 -919 -2671
-191 -3883 326 -543 821 -1010 1376 -1297 413 -214 800 -331 1269 -385 141
-16 568 -16 710 0 650 74 1227 299 1728 673 585 437 1013 1028 1237 1709 124
376 174 692 174 1100 0 135 -5 295 -12 355 -81 703 -328 1302 -766 1850 -111
140 -408 432 -551 543 -574 444 -1207 689 -1920 742 -129 9 -337 11 -445 3z
m703 -1910 l467 -938 -932 -3 c-512 -1 -933 0 -936 2 -6 7 40 101 508 1044
227 457 416 832 420 832 3 0 216 -422 473 -937z m-974 -2067 l487 -976 493
987 492 987 61 -114 c91 -175 391 -775 679 -1357 l258 -523 -1985 0 -1984 0
497 995 c289 577 501 991 506 986 5 -5 228 -449 496 -985z"/>
<path d="M3297 4815 c-125 -250 -227 -457 -227 -460 0 -8 920 -6 920 3 1 10
-454 911 -460 912 -3 0 -107 -205 -233 -455z"/>
<path d="M2297 2815 c-125 -250 -227 -457 -227 -460 0 -3 207 -5 460 -5 l460
0 -230 460 c-127 253 -231 460 -233 460 -1 0 -104 -205 -230 -455z"/>
<path d="M4271 2811 l-231 -461 463 0 463 0 -229 458 c-126 251 -231 459 -233
461 -1 2 -107 -204 -233 -458z"/>
</g>
</svg>
