<svg width="50" height="51" viewBox="0 0 50 51" fill="none" xmlns="http://www.w3.org/2000/svg">
<g clip-path="url(#clip0_231_681)">
<path d="M2.0156 47.302C1.69353 47.0575 1.23416 47.1201 0.989333 47.4421C0.480739 48.1117 0.226442 48.8602 0.0274188 49.5694C-0.0818585 49.9588 0.14529 50.3631 0.534743 50.4725C0.600954 50.4911 0.667458 50.5 0.732985 50.5C1.053 50.5 1.34705 50.2885 1.43777 49.9652C1.65935 49.1757 1.86062 48.7168 2.15574 48.3283C2.40047 48.0062 2.33777 47.5467 2.0156 47.302Z" fill="black"/>
<path d="M45.8564 45.0761C45.9252 45.0204 45.9932 44.9636 46.0597 44.9045C46.6704 44.3621 47.0498 43.43 47.0498 42.4719V40.2019C47.0498 38.1338 45.3232 36.4512 43.201 36.4512C41.0787 36.4512 39.3522 38.1338 39.3522 40.2019V42.4719C39.3522 43.43 39.7315 44.3621 40.3422 44.9045C40.4087 44.9636 40.4767 45.0203 40.5454 45.076C38.6842 46.1297 37.7389 46.8173 37.1341 47.8176C36.5294 46.8172 35.5841 46.1297 33.7228 45.076C33.7915 45.0203 33.8595 44.9636 33.926 44.9045C34.5367 44.3621 34.9161 43.43 34.9161 42.4719V40.2019C34.9161 38.1338 33.1895 36.4512 31.0673 36.4512C28.945 36.4512 27.2185 38.1338 27.2185 40.2019V42.4719C27.2185 43.43 27.5979 44.3621 28.2085 44.9045C28.275 44.9636 28.343 45.0203 28.4117 45.076C26.5503 46.1298 25.6049 46.8175 25.0002 47.818C24.8183 47.5198 24.5983 47.2385 24.3229 46.9621C24.2336 45.5614 23.5468 44.7383 22.1988 44.4386C22.5666 43.9017 22.7825 43.1943 22.7825 42.472V40.202C22.7825 38.1339 21.0559 36.4513 18.9337 36.4513C16.8114 36.4513 15.0849 38.1339 15.0849 40.202V42.472C15.0849 43.4301 15.4643 44.3622 16.0749 44.9046C16.1414 44.9637 16.2095 45.0205 16.2782 45.0762C15.609 45.4551 15.0578 45.7871 14.5988 46.1029C14.5426 46.1043 14.486 46.1053 14.4293 46.1053C13.587 46.1053 12.9691 45.8116 12.1868 45.4399C11.5724 45.1479 10.8641 44.8114 9.94536 44.5994C10.3854 44.0478 10.6488 43.2694 10.6488 42.472V40.202C10.6488 38.1339 8.92222 36.4513 6.79997 36.4513C4.67772 36.4513 2.95117 38.1339 2.95117 40.202V42.472C2.95117 43.4301 3.33056 44.3622 3.9412 44.9046C4.0078 44.9637 4.07587 45.0206 4.14462 45.0763C3.91288 45.2075 3.70595 45.3271 3.51669 45.439C3.16855 45.6449 3.05332 46.0942 3.25927 46.4423C3.39599 46.6735 3.63994 46.8019 3.89032 46.8019C4.01708 46.8019 4.1456 46.769 4.26259 46.6997C4.62264 46.4867 5.04803 46.2457 5.6118 45.9353C6.02517 46.0933 6.43181 46.1804 6.79997 46.1804C7.22526 46.1804 7.70172 46.0647 8.18072 45.8568C9.70659 45.8852 10.6482 46.3305 11.558 46.763C12.0593 47.0013 12.5714 47.2437 13.1539 47.3999C12.8541 47.7868 12.6284 48.2113 12.435 48.7233C12.2951 48.6828 12.1592 48.6397 12.0307 48.5925C11.6512 48.4528 11.2301 48.6475 11.0905 49.027C10.9508 49.4066 11.1453 49.8276 11.525 49.9673C11.7609 50.0541 12.0125 50.1302 12.2743 50.1973C12.3679 50.3263 12.5035 50.4262 12.6689 50.4726C12.7351 50.4912 12.8016 50.5001 12.8671 50.5001C13.1871 50.5001 13.4812 50.2887 13.5719 49.9653C14.0567 48.2373 14.397 47.7805 17.7455 45.9354C18.1588 46.0934 18.5654 46.1804 18.9336 46.1804C19.193 46.1804 19.4717 46.1366 19.7584 46.0561C19.8654 46.355 19.9546 46.6587 20.0415 46.9566C20.3752 48.1001 20.7904 49.5232 22.4292 49.5232C23.0512 49.5232 23.5277 49.1978 23.8484 48.7551C24.014 49.0711 24.1513 49.4523 24.2952 49.9653C24.3839 50.2814 24.6721 50.4999 25.0004 50.4999C25.3286 50.4999 25.6169 50.2814 25.7056 49.9653C26.1904 48.2373 26.5307 47.7805 29.8792 45.9354C30.2925 46.0934 30.6991 46.1804 31.0673 46.1804C31.4354 46.1804 31.842 46.0934 32.2553 45.9354C35.6039 47.7805 35.9441 48.2373 36.4289 49.9653C36.5176 50.2814 36.8058 50.4999 37.1341 50.4999C37.4624 50.4999 37.7506 50.2814 37.8393 49.9653C38.3241 48.2373 38.6644 47.7805 42.0129 45.9354C42.4262 46.0934 42.8328 46.1804 43.201 46.1804C43.5691 46.1804 43.9757 46.0934 44.389 45.9354C47.7375 47.7805 48.0778 48.2373 48.5626 49.9653C48.6534 50.2887 48.9473 50.5001 49.2674 50.5001C49.3328 50.5001 49.3995 50.4912 49.4657 50.4726C49.8551 50.3634 50.0822 49.9591 49.973 49.5695C49.3636 47.3979 48.6186 46.64 45.8564 45.0761ZM4.41591 40.2019C4.41591 38.9415 5.48533 37.916 6.79987 37.916C8.11441 37.916 9.18384 38.9415 9.18384 40.2019V42.4719C9.18384 42.9906 8.97437 43.553 8.68589 43.8092C7.98492 44.4318 7.21686 44.7154 6.79987 44.7154C6.38288 44.7154 5.61482 44.4318 4.91385 43.8093C4.62528 43.553 4.41591 42.9906 4.41591 42.4719V40.2019ZM17.0475 43.8093C16.759 43.553 16.5496 42.9906 16.5496 42.4719V40.2019C16.5496 38.9415 17.619 37.916 18.9336 37.916C20.2481 37.916 21.3175 38.9415 21.3175 40.2019V42.4719C21.3175 42.9906 21.1081 43.553 20.8196 43.8092C20.1186 44.4318 19.3506 44.7154 18.9336 44.7154C18.5166 44.7154 17.7485 44.4319 17.0475 43.8093ZM22.4291 48.0583C21.9747 48.0583 21.8187 47.8181 21.4476 46.5461C21.3767 46.3032 21.3016 46.0458 21.2135 45.7813C22.8686 45.8624 22.8687 46.5259 22.8687 47.2866C22.8686 47.5168 22.683 48.0583 22.4291 48.0583ZM29.1812 43.8093C28.8927 43.553 28.6833 42.9906 28.6833 42.4719V40.2019C28.6833 38.9415 29.7527 37.916 31.0673 37.916C32.3818 37.916 33.4512 38.9415 33.4512 40.2019V42.4719C33.4512 42.9906 33.2418 43.553 32.9533 43.8092C32.2523 44.4318 31.4843 44.7154 31.0673 44.7154C30.6503 44.7154 29.8822 44.4319 29.1812 43.8093ZM41.3149 43.8093C41.0264 43.553 40.817 42.9906 40.817 42.4719V40.2019C40.817 38.9415 41.8864 37.916 43.201 37.916C44.5155 37.916 45.5849 38.9415 45.5849 40.2019V42.4719C45.5849 42.9906 45.3755 43.553 45.087 43.8092C44.386 44.4318 43.6179 44.7154 43.201 44.7154C42.784 44.7154 42.0159 44.4319 41.3149 43.8093Z" fill="black"/>
<path d="M19.1406 19.9098H30.8593C31.2638 19.9098 31.5917 19.5819 31.5917 19.1774V10.3987L34.0138 7.97658C34.2999 7.69054 34.2999 7.22678 34.0138 6.94084C33.7279 6.65481 33.2641 6.65481 32.9781 6.94084L31.5917 8.32726V7.45881C31.5917 7.05432 31.2638 6.72639 30.8593 6.72639H19.1406C18.7361 6.72639 18.4082 7.05432 18.4082 7.45881V19.1775C18.4082 19.5819 18.7361 19.9098 19.1406 19.9098ZM19.873 8.19113H30.1269V9.79199L25.2096 14.7092L22.6254 12.125C22.3393 11.8389 21.8756 11.8389 21.5896 12.125C21.3036 12.411 21.3036 12.8748 21.5896 13.1607L24.6918 16.2629C24.8348 16.406 25.0223 16.4775 25.2097 16.4775C25.3971 16.4775 25.5846 16.406 25.7276 16.2629L30.127 11.8636V18.445H19.8731V8.19113H19.873Z" fill="black"/>
<path d="M19.1406 22.8396H30.8593C31.2638 22.8396 31.5917 22.5117 31.5917 22.1072C31.5917 21.7027 31.2638 21.3748 30.8593 21.3748H19.1406C18.7361 21.3748 18.4082 21.7027 18.4082 22.1072C18.4082 22.5117 18.7361 22.8396 19.1406 22.8396Z" fill="black"/>
<path d="M19.1709 2.07401C20.922 2.00155 22.8832 1.96483 25 1.96483C35.8636 1.96483 42.1087 2.92342 45.2493 5.07321C48.0268 6.97436 48.535 9.82913 48.535 14.7663C48.535 19.0063 48.1827 21.6641 46.3245 23.5633C46.0416 23.8525 46.0467 24.3161 46.3359 24.599C46.4783 24.7385 46.6633 24.8079 46.8481 24.8079C47.0382 24.8079 47.2282 24.7344 47.3716 24.5877C49.7988 22.1069 49.9998 18.5263 49.9998 14.7663C49.9998 10.2708 49.7046 6.34761 46.0767 3.86443C42.6315 1.50614 36.3282 0.5 25 0.5C22.8631 0.5 20.8816 0.537109 19.1104 0.610448C18.7062 0.627147 18.3921 0.968356 18.4088 1.37255C18.4255 1.77675 18.7666 2.0911 19.1709 2.07401Z" fill="black"/>
<path d="M6.07769 34.1283C6.01987 34.4605 6.19614 34.7891 6.50483 34.9246C6.81352 35.0603 7.17475 34.9675 7.38012 34.7002L12.2602 28.3474C13.8057 28.5659 15.5254 28.7286 17.4876 28.8419L18.2067 34.3488C18.249 34.6722 18.4998 34.9286 18.822 34.9779C19.1449 35.0276 19.4605 34.8578 19.5975 34.5619L22.1709 29.0094C23.0771 29.0249 24.0264 29.0327 24.9999 29.0327C25.9734 29.0327 26.9226 29.0249 27.8289 29.0094L30.4023 34.5619C30.5394 34.8577 30.8557 35.0276 31.1778 34.9779C31.5 34.9285 31.7508 34.6721 31.7931 34.3488L32.5122 28.8419C34.4744 28.7286 36.1941 28.5659 37.7396 28.3474L42.6197 34.7002C42.7618 34.8852 42.9785 34.9865 43.2008 34.9865C43.2998 34.9865 43.4 34.9664 43.495 34.9247C43.8037 34.7892 43.9799 34.4606 43.9221 34.1284L42.7251 27.2547C43.4605 27.0133 44.1344 26.7425 44.7351 26.4465C45.0979 26.2676 45.2471 25.8285 45.0682 25.4657C44.8893 25.1029 44.4504 24.9536 44.0874 25.1326C43.3959 25.4734 42.5886 25.7796 41.6877 26.0427C41.3297 26.1471 41.1075 26.504 41.1715 26.8714L41.9683 31.4478L38.6394 27.1143C38.4769 26.9029 38.2122 26.7966 37.9491 26.8363C36.1874 27.1028 34.185 27.2912 31.8272 27.4122C31.4741 27.4303 31.1843 27.6982 31.1384 28.0488L30.6679 31.6517L28.957 27.9602C28.8348 27.6965 28.5671 27.531 28.2776 27.5359C27.2391 27.557 26.1363 27.5677 24.9998 27.5677C23.8633 27.5677 22.7605 27.557 21.722 27.5359C21.4338 27.5314 21.1648 27.6965 21.0426 27.9602L19.3317 31.6517L18.8612 28.0488C18.8154 27.6982 18.5256 27.4303 18.1724 27.4122C15.8146 27.2912 13.8122 27.1028 12.0505 26.8363C11.787 26.7966 11.5225 26.9029 11.3602 27.1143L8.03128 31.4478L8.82815 26.8714C8.89212 26.504 8.66985 26.1471 8.31185 26.0427C1.92557 24.1778 1.46473 20.5385 1.46473 14.7664C1.46473 10.5764 1.80477 7.94611 3.59841 6.04857C5.60816 3.92251 9.48274 2.74996 16.1612 2.24674C16.5645 2.21627 16.867 1.86472 16.8366 1.4614C16.8062 1.05798 16.4536 0.755837 16.0512 0.786013C8.98177 1.31872 4.81295 2.63141 2.53396 5.04233C0.193748 7.51799 0 11.0547 0 14.7664C0 20.6634 0.534664 25.0442 7.27455 27.2548L6.07769 34.1283Z" fill="black"/>
</g>
<defs>
<clipPath id="clip0_231_681">
<rect width="50" height="50" fill="white" transform="translate(0 0.5)"/>
</clipPath>
</defs>
</svg>
