<svg width="789" height="570" viewBox="0 0 789 570" fill="none" xmlns="http://www.w3.org/2000/svg">
<rect x="432.476" y="232" width="100" height="100" rx="16" fill="#778DA9"/>
<path d="M450.55 288.2C449.47 288.2 448.456 288 447.51 287.6C446.576 287.187 445.756 286.62 445.05 285.9C444.356 285.167 443.81 284.313 443.41 283.34C443.023 282.367 442.83 281.313 442.83 280.18C442.83 279.06 443.023 278.02 443.41 277.06C443.81 276.087 444.356 275.24 445.05 274.52C445.756 273.787 446.576 273.213 447.51 272.8C448.443 272.387 449.456 272.18 450.55 272.18C451.576 272.18 452.456 272.313 453.19 272.58C453.936 272.847 454.683 273.287 455.43 273.9C455.536 273.98 455.616 274.067 455.67 274.16C455.736 274.24 455.776 274.327 455.79 274.42C455.816 274.5 455.83 274.6 455.83 274.72C455.83 274.973 455.736 275.187 455.55 275.36C455.376 275.52 455.163 275.613 454.91 275.64C454.656 275.653 454.41 275.567 454.17 275.38C453.676 274.953 453.163 274.627 452.63 274.4C452.11 274.173 451.416 274.06 450.55 274.06C449.763 274.06 449.023 274.22 448.33 274.54C447.636 274.86 447.023 275.3 446.49 275.86C445.97 276.42 445.563 277.073 445.27 277.82C444.976 278.553 444.83 279.34 444.83 280.18C444.83 281.033 444.976 281.833 445.27 282.58C445.563 283.313 445.97 283.96 446.49 284.52C447.023 285.08 447.636 285.52 448.33 285.84C449.023 286.147 449.763 286.3 450.55 286.3C451.23 286.3 451.87 286.187 452.47 285.96C453.083 285.72 453.67 285.393 454.23 284.98C454.47 284.807 454.703 284.733 454.93 284.76C455.17 284.773 455.37 284.867 455.53 285.04C455.69 285.2 455.77 285.427 455.77 285.72C455.77 285.853 455.743 285.987 455.69 286.12C455.636 286.24 455.556 286.353 455.45 286.46C454.73 287.033 453.956 287.467 453.13 287.76C452.316 288.053 451.456 288.2 450.55 288.2ZM463.497 288.1C462.577 288.1 461.75 287.907 461.017 287.52C460.297 287.12 459.723 286.54 459.297 285.78C458.883 285.02 458.677 284.087 458.677 282.98V278.06C458.677 277.767 458.77 277.527 458.957 277.34C459.157 277.14 459.403 277.04 459.697 277.04C459.99 277.04 460.23 277.14 460.417 277.34C460.617 277.527 460.717 277.767 460.717 278.06V282.98C460.717 283.727 460.857 284.347 461.137 284.84C461.417 285.32 461.797 285.68 462.277 285.92C462.757 286.147 463.297 286.26 463.897 286.26C464.47 286.26 464.977 286.147 465.417 285.92C465.87 285.693 466.23 285.387 466.497 285C466.763 284.613 466.897 284.18 466.897 283.7H468.157C468.157 284.527 467.95 285.273 467.537 285.94C467.137 286.607 466.583 287.133 465.877 287.52C465.183 287.907 464.39 288.1 463.497 288.1ZM467.917 288C467.623 288 467.377 287.907 467.177 287.72C466.99 287.52 466.897 287.273 466.897 286.98V278.06C466.897 277.753 466.99 277.507 467.177 277.32C467.377 277.133 467.623 277.04 467.917 277.04C468.223 277.04 468.47 277.133 468.657 277.32C468.843 277.507 468.937 277.753 468.937 278.06V286.98C468.937 287.273 468.843 287.52 468.657 287.72C468.47 287.907 468.223 288 467.917 288ZM473.509 281.16C473.509 280.36 473.703 279.647 474.089 279.02C474.489 278.38 475.023 277.873 475.689 277.5C476.356 277.127 477.089 276.94 477.889 276.94C478.689 276.94 479.283 277.073 479.669 277.34C480.069 277.593 480.223 277.9 480.129 278.26C480.089 278.447 480.009 278.593 479.889 278.7C479.783 278.793 479.656 278.853 479.509 278.88C479.363 278.907 479.203 278.9 479.029 278.86C478.176 278.687 477.409 278.673 476.729 278.82C476.049 278.967 475.509 279.24 475.109 279.64C474.723 280.04 474.529 280.547 474.529 281.16H473.509ZM473.529 288C473.209 288 472.963 287.92 472.789 287.76C472.616 287.587 472.529 287.333 472.529 287V278.06C472.529 277.74 472.616 277.493 472.789 277.32C472.963 277.147 473.209 277.06 473.529 277.06C473.863 277.06 474.109 277.147 474.269 277.32C474.443 277.48 474.529 277.727 474.529 278.06V287C474.529 287.32 474.443 287.567 474.269 287.74C474.109 287.913 473.863 288 473.529 288ZM486.015 288.08C485.042 288.08 484.169 287.84 483.395 287.36C482.622 286.867 482.009 286.207 481.555 285.38C481.115 284.54 480.895 283.593 480.895 282.54C480.895 281.487 481.135 280.54 481.615 279.7C482.109 278.86 482.769 278.2 483.595 277.72C484.435 277.227 485.375 276.98 486.415 276.98C487.455 276.98 488.389 277.227 489.215 277.72C490.042 278.2 490.695 278.86 491.175 279.7C491.669 280.54 491.915 281.487 491.915 282.54H491.135C491.135 283.593 490.909 284.54 490.455 285.38C490.015 286.207 489.409 286.867 488.635 287.36C487.862 287.84 486.989 288.08 486.015 288.08ZM486.415 286.28C487.095 286.28 487.702 286.12 488.235 285.8C488.769 285.467 489.189 285.02 489.495 284.46C489.802 283.887 489.955 283.247 489.955 282.54C489.955 281.82 489.802 281.18 489.495 280.62C489.189 280.047 488.769 279.6 488.235 279.28C487.702 278.947 487.095 278.78 486.415 278.78C485.749 278.78 485.142 278.947 484.595 279.28C484.062 279.6 483.635 280.047 483.315 280.62C483.009 281.18 482.855 281.82 482.855 282.54C482.855 283.247 483.009 283.887 483.315 284.46C483.635 285.02 484.062 285.467 484.595 285.8C485.142 286.12 485.749 286.28 486.415 286.28ZM490.895 288.02C490.602 288.02 490.355 287.927 490.155 287.74C489.969 287.54 489.875 287.293 489.875 287V283.94L490.255 281.82L491.915 282.54V287C491.915 287.293 491.815 287.54 491.615 287.74C491.429 287.927 491.189 288.02 490.895 288.02ZM498.931 288C498.265 288 497.665 287.833 497.131 287.5C496.598 287.153 496.178 286.687 495.871 286.1C495.565 285.513 495.411 284.853 495.411 284.12V274.58C495.411 274.287 495.505 274.047 495.691 273.86C495.878 273.673 496.118 273.58 496.411 273.58C496.705 273.58 496.945 273.673 497.131 273.86C497.318 274.047 497.411 274.287 497.411 274.58V284.12C497.411 284.653 497.558 285.1 497.851 285.46C498.145 285.82 498.505 286 498.931 286H499.611C499.851 286 500.051 286.093 500.211 286.28C500.385 286.467 500.471 286.707 500.471 287C500.471 287.293 500.358 287.533 500.131 287.72C499.918 287.907 499.638 288 499.291 288H498.931ZM494.491 279.18C494.211 279.18 493.985 279.1 493.811 278.94C493.638 278.78 493.551 278.58 493.551 278.34C493.551 278.073 493.638 277.86 493.811 277.7C493.985 277.54 494.211 277.46 494.491 277.46H499.111C499.391 277.46 499.618 277.54 499.791 277.7C499.965 277.86 500.051 278.073 500.051 278.34C500.051 278.58 499.965 278.78 499.791 278.94C499.618 279.1 499.391 279.18 499.111 279.18H494.491ZM507.939 288.08C506.859 288.08 505.905 287.847 505.079 287.38C504.252 286.9 503.599 286.247 503.119 285.42C502.652 284.58 502.419 283.62 502.419 282.54C502.419 281.447 502.652 280.487 503.119 279.66C503.599 278.82 504.252 278.167 505.079 277.7C505.905 277.22 506.859 276.98 507.939 276.98C509.005 276.98 509.952 277.22 510.779 277.7C511.605 278.167 512.252 278.82 512.719 279.66C513.199 280.487 513.439 281.447 513.439 282.54C513.439 283.62 513.205 284.58 512.739 285.42C512.272 286.247 511.625 286.9 510.799 287.38C509.972 287.847 509.019 288.08 507.939 288.08ZM507.939 286.28C508.632 286.28 509.245 286.12 509.779 285.8C510.312 285.48 510.725 285.04 511.019 284.48C511.325 283.92 511.479 283.273 511.479 282.54C511.479 281.807 511.325 281.16 511.019 280.6C510.725 280.027 510.312 279.58 509.779 279.26C509.245 278.94 508.632 278.78 507.939 278.78C507.245 278.78 506.632 278.94 506.099 279.26C505.565 279.58 505.145 280.027 504.839 280.6C504.532 281.16 504.379 281.807 504.379 282.54C504.379 283.273 504.532 283.92 504.839 284.48C505.145 285.04 505.565 285.48 506.099 285.8C506.632 286.12 507.245 286.28 507.939 286.28ZM517.455 281.16C517.455 280.36 517.648 279.647 518.035 279.02C518.435 278.38 518.968 277.873 519.635 277.5C520.301 277.127 521.035 276.94 521.835 276.94C522.635 276.94 523.228 277.073 523.615 277.34C524.015 277.593 524.168 277.9 524.075 278.26C524.035 278.447 523.955 278.593 523.835 278.7C523.728 278.793 523.601 278.853 523.455 278.88C523.308 278.907 523.148 278.9 522.975 278.86C522.121 278.687 521.355 278.673 520.675 278.82C519.995 278.967 519.455 279.24 519.055 279.64C518.668 280.04 518.475 280.547 518.475 281.16H517.455ZM517.475 288C517.155 288 516.908 287.92 516.735 287.76C516.561 287.587 516.475 287.333 516.475 287V278.06C516.475 277.74 516.561 277.493 516.735 277.32C516.908 277.147 517.155 277.06 517.475 277.06C517.808 277.06 518.055 277.147 518.215 277.32C518.388 277.48 518.475 277.727 518.475 278.06V287C518.475 287.32 518.388 287.567 518.215 287.74C518.055 287.913 517.808 288 517.475 288Z" fill="white"/>
<rect x="432.476" y="232" width="100" height="100" rx="16" stroke="#778DA9" stroke-width="2" stroke-linecap="round" stroke-linejoin="round"/>
<rect x="648.762" y="430" width="100" height="100" rx="16" fill="#778DA9"/>
<path d="M660.868 486.2C660.015 486.2 659.202 486.067 658.428 485.8C657.655 485.533 656.982 485.16 656.408 484.68C655.835 484.2 655.415 483.647 655.148 483.02C655.015 482.74 655.015 482.48 655.148 482.24C655.295 482 655.535 481.847 655.868 481.78C656.108 481.727 656.342 481.767 656.568 481.9C656.808 482.02 656.988 482.207 657.108 482.46C657.268 482.793 657.528 483.1 657.888 483.38C658.262 483.66 658.708 483.887 659.228 484.06C659.748 484.233 660.295 484.32 660.868 484.32C661.508 484.32 662.095 484.22 662.628 484.02C663.175 483.82 663.615 483.533 663.948 483.16C664.282 482.773 664.448 482.3 664.448 481.74C664.448 481.033 664.168 480.4 663.608 479.84C663.062 479.28 662.155 478.933 660.888 478.8C659.235 478.64 657.935 478.153 656.988 477.34C656.042 476.527 655.568 475.52 655.568 474.32C655.568 473.44 655.815 472.693 656.308 472.08C656.802 471.467 657.468 471 658.308 470.68C659.162 470.36 660.108 470.2 661.148 470.2C661.962 470.2 662.668 470.313 663.268 470.54C663.882 470.767 664.415 471.08 664.868 471.48C665.322 471.88 665.715 472.353 666.048 472.9C666.235 473.193 666.308 473.473 666.268 473.74C666.242 473.993 666.115 474.193 665.888 474.34C665.635 474.5 665.362 474.533 665.068 474.44C664.775 474.347 664.555 474.173 664.408 473.92C664.195 473.533 663.935 473.207 663.628 472.94C663.322 472.673 662.962 472.467 662.548 472.32C662.135 472.16 661.648 472.08 661.088 472.08C660.102 472.067 659.275 472.253 658.608 472.64C657.942 473.013 657.608 473.593 657.608 474.38C657.608 474.78 657.708 475.167 657.908 475.54C658.122 475.9 658.502 476.213 659.048 476.48C659.608 476.747 660.408 476.933 661.448 477.04C663.035 477.2 664.268 477.687 665.148 478.5C666.042 479.3 666.488 480.36 666.488 481.68C666.488 482.44 666.328 483.1 666.008 483.66C665.702 484.22 665.282 484.693 664.748 485.08C664.228 485.453 663.628 485.733 662.948 485.92C662.282 486.107 661.588 486.2 660.868 486.2ZM674.078 486.1C673.158 486.1 672.331 485.907 671.598 485.52C670.878 485.12 670.304 484.54 669.878 483.78C669.464 483.02 669.258 482.087 669.258 480.98V476.06C669.258 475.767 669.351 475.527 669.538 475.34C669.738 475.14 669.984 475.04 670.278 475.04C670.571 475.04 670.811 475.14 670.998 475.34C671.198 475.527 671.298 475.767 671.298 476.06V480.98C671.298 481.727 671.438 482.347 671.718 482.84C671.998 483.32 672.378 483.68 672.858 483.92C673.338 484.147 673.878 484.26 674.478 484.26C675.051 484.26 675.558 484.147 675.998 483.92C676.451 483.693 676.811 483.387 677.078 483C677.344 482.613 677.478 482.18 677.478 481.7H678.738C678.738 482.527 678.531 483.273 678.118 483.94C677.718 484.607 677.164 485.133 676.458 485.52C675.764 485.907 674.971 486.1 674.078 486.1ZM678.498 486C678.204 486 677.958 485.907 677.758 485.72C677.571 485.52 677.478 485.273 677.478 484.98V476.06C677.478 475.753 677.571 475.507 677.758 475.32C677.958 475.133 678.204 475.04 678.498 475.04C678.804 475.04 679.051 475.133 679.238 475.32C679.424 475.507 679.518 475.753 679.518 476.06V484.98C679.518 485.273 679.424 485.52 679.238 485.72C679.051 485.907 678.804 486 678.498 486ZM684.131 490.68C683.837 490.68 683.591 490.58 683.391 490.38C683.204 490.193 683.111 489.953 683.111 489.66V480.54C683.124 479.487 683.371 478.54 683.851 477.7C684.331 476.86 684.984 476.2 685.811 475.72C686.637 475.227 687.571 474.98 688.611 474.98C689.664 474.98 690.604 475.227 691.431 475.72C692.257 476.2 692.911 476.86 693.391 477.7C693.884 478.54 694.131 479.487 694.131 480.54C694.131 481.593 693.904 482.54 693.451 483.38C693.011 484.207 692.404 484.867 691.631 485.36C690.857 485.84 689.984 486.08 689.011 486.08C688.224 486.08 687.497 485.92 686.831 485.6C686.177 485.267 685.617 484.82 685.151 484.26V489.66C685.151 489.953 685.057 490.193 684.871 490.38C684.684 490.58 684.437 490.68 684.131 490.68ZM688.611 484.28C689.291 484.28 689.897 484.12 690.431 483.8C690.964 483.467 691.384 483.02 691.691 482.46C692.011 481.887 692.171 481.247 692.171 480.54C692.171 479.82 692.011 479.18 691.691 478.62C691.384 478.047 690.964 477.6 690.431 477.28C689.897 476.947 689.291 476.78 688.611 476.78C687.944 476.78 687.337 476.947 686.791 477.28C686.257 477.6 685.837 478.047 685.531 478.62C685.224 479.18 685.071 479.82 685.071 480.54C685.071 481.247 685.224 481.887 685.531 482.46C685.837 483.02 686.257 483.467 686.791 483.8C687.337 484.12 687.944 484.28 688.611 484.28ZM698.193 490.68C697.9 490.68 697.653 490.58 697.453 490.38C697.266 490.193 697.173 489.953 697.173 489.66V480.54C697.186 479.487 697.433 478.54 697.913 477.7C698.393 476.86 699.046 476.2 699.873 475.72C700.7 475.227 701.633 474.98 702.673 474.98C703.726 474.98 704.666 475.227 705.493 475.72C706.32 476.2 706.973 476.86 707.453 477.7C707.946 478.54 708.193 479.487 708.193 480.54C708.193 481.593 707.966 482.54 707.513 483.38C707.073 484.207 706.466 484.867 705.693 485.36C704.92 485.84 704.046 486.08 703.073 486.08C702.286 486.08 701.56 485.92 700.893 485.6C700.24 485.267 699.68 484.82 699.213 484.26V489.66C699.213 489.953 699.12 490.193 698.933 490.38C698.746 490.58 698.5 490.68 698.193 490.68ZM702.673 484.28C703.353 484.28 703.96 484.12 704.493 483.8C705.026 483.467 705.446 483.02 705.753 482.46C706.073 481.887 706.233 481.247 706.233 480.54C706.233 479.82 706.073 479.18 705.753 478.62C705.446 478.047 705.026 477.6 704.493 477.28C703.96 476.947 703.353 476.78 702.673 476.78C702.006 476.78 701.4 476.947 700.853 477.28C700.32 477.6 699.9 478.047 699.593 478.62C699.286 479.18 699.133 479.82 699.133 480.54C699.133 481.247 699.286 481.887 699.593 482.46C699.9 483.02 700.32 483.467 700.853 483.8C701.4 484.12 702.006 484.28 702.673 484.28ZM713.836 486C713.249 486 712.729 485.84 712.276 485.52C711.822 485.2 711.469 484.767 711.216 484.22C710.962 483.66 710.836 483.02 710.836 482.3V471.38C710.836 471.087 710.929 470.847 711.116 470.66C711.302 470.473 711.542 470.38 711.836 470.38C712.129 470.38 712.369 470.473 712.556 470.66C712.742 470.847 712.836 471.087 712.836 471.38V482.3C712.836 482.793 712.929 483.2 713.116 483.52C713.302 483.84 713.542 484 713.836 484H714.336C714.602 484 714.816 484.093 714.976 484.28C715.149 484.467 715.236 484.707 715.236 485C715.236 485.293 715.109 485.533 714.856 485.72C714.602 485.907 714.276 486 713.876 486H713.836ZM718.452 486C718.158 486 717.912 485.907 717.712 485.72C717.525 485.52 717.432 485.273 717.432 484.98V476.08C717.432 475.773 717.525 475.527 717.712 475.34C717.912 475.153 718.158 475.06 718.452 475.06C718.758 475.06 719.005 475.153 719.192 475.34C719.378 475.527 719.472 475.773 719.472 476.08V484.98C719.472 485.273 719.378 485.52 719.192 485.72C719.005 485.907 718.758 486 718.452 486ZM718.452 473.28C718.092 473.28 717.778 473.153 717.512 472.9C717.258 472.633 717.132 472.32 717.132 471.96C717.132 471.6 717.258 471.293 717.512 471.04C717.778 470.773 718.092 470.64 718.452 470.64C718.812 470.64 719.118 470.773 719.372 471.04C719.638 471.293 719.772 471.6 719.772 471.96C719.772 472.32 719.638 472.633 719.372 472.9C719.118 473.153 718.812 473.28 718.452 473.28ZM728.407 486.08C727.3 486.08 726.313 485.847 725.447 485.38C724.593 484.9 723.92 484.247 723.427 483.42C722.947 482.58 722.707 481.62 722.707 480.54C722.707 479.447 722.933 478.487 723.387 477.66C723.853 476.82 724.493 476.167 725.307 475.7C726.12 475.22 727.053 474.98 728.107 474.98C729.147 474.98 730.04 475.213 730.787 475.68C731.533 476.133 732.1 476.767 732.487 477.58C732.887 478.38 733.087 479.307 733.087 480.36C733.087 480.613 733 480.827 732.827 481C732.653 481.16 732.433 481.24 732.167 481.24H724.107V479.64H732.107L731.287 480.2C731.273 479.533 731.14 478.94 730.887 478.42C730.633 477.887 730.273 477.467 729.807 477.16C729.34 476.853 728.773 476.7 728.107 476.7C727.347 476.7 726.693 476.867 726.147 477.2C725.613 477.533 725.207 477.993 724.927 478.58C724.647 479.153 724.507 479.807 724.507 480.54C724.507 481.273 724.673 481.927 725.007 482.5C725.34 483.073 725.8 483.527 726.387 483.86C726.973 484.193 727.647 484.36 728.407 484.36C728.82 484.36 729.24 484.287 729.667 484.14C730.107 483.98 730.46 483.8 730.727 483.6C730.927 483.453 731.14 483.38 731.367 483.38C731.607 483.367 731.813 483.433 731.987 483.58C732.213 483.78 732.333 484 732.347 484.24C732.36 484.48 732.253 484.687 732.027 484.86C731.573 485.22 731.007 485.513 730.327 485.74C729.66 485.967 729.02 486.08 728.407 486.08ZM736.669 479.16C736.669 478.36 736.862 477.647 737.249 477.02C737.649 476.38 738.182 475.873 738.849 475.5C739.515 475.127 740.249 474.94 741.049 474.94C741.849 474.94 742.442 475.073 742.829 475.34C743.229 475.593 743.382 475.9 743.289 476.26C743.249 476.447 743.169 476.593 743.049 476.7C742.942 476.793 742.815 476.853 742.669 476.88C742.522 476.907 742.362 476.9 742.189 476.86C741.335 476.687 740.569 476.673 739.889 476.82C739.209 476.967 738.669 477.24 738.269 477.64C737.882 478.04 737.689 478.547 737.689 479.16H736.669ZM736.689 486C736.369 486 736.122 485.92 735.949 485.76C735.775 485.587 735.689 485.333 735.689 485V476.06C735.689 475.74 735.775 475.493 735.949 475.32C736.122 475.147 736.369 475.06 736.689 475.06C737.022 475.06 737.269 475.147 737.429 475.32C737.602 475.48 737.689 475.727 737.689 476.06V485C737.689 485.32 737.602 485.567 737.429 485.74C737.269 485.913 737.022 486 736.689 486Z" fill="white"/>
<rect x="648.762" y="430" width="100" height="100" rx="16" stroke="#778DA9" stroke-width="2" stroke-linecap="round" stroke-linejoin="round"/>
<rect x="432.476" y="40" width="100" height="100" rx="16" fill="#778DA9"/>
<path d="M452.091 96C451.665 96 451.351 95.78 451.151 95.34L445.291 81.94C445.105 81.4867 445.085 81.1133 445.231 80.82C445.378 80.5267 445.658 80.38 446.071 80.38C446.538 80.38 446.858 80.5867 447.031 81L452.171 93.34H451.951L457.191 81C457.298 80.76 457.418 80.6 457.551 80.52C457.698 80.4267 457.891 80.38 458.131 80.38C458.531 80.38 458.805 80.5267 458.951 80.82C459.111 81.1 459.111 81.4133 458.951 81.76L453.031 95.34C452.938 95.5533 452.811 95.72 452.651 95.84C452.505 95.9467 452.318 96 452.091 96ZM464.211 96.08C463.104 96.08 462.117 95.8467 461.251 95.38C460.397 94.9 459.724 94.2467 459.231 93.42C458.751 92.58 458.511 91.62 458.511 90.54C458.511 89.4467 458.737 88.4867 459.191 87.66C459.657 86.82 460.297 86.1667 461.111 85.7C461.924 85.22 462.857 84.98 463.911 84.98C464.951 84.98 465.844 85.2133 466.591 85.68C467.337 86.1333 467.904 86.7667 468.291 87.58C468.691 88.38 468.891 89.3067 468.891 90.36C468.891 90.6133 468.804 90.8267 468.631 91C468.457 91.16 468.237 91.24 467.971 91.24H459.911V89.64H467.911L467.091 90.2C467.077 89.5333 466.944 88.94 466.691 88.42C466.437 87.8867 466.077 87.4667 465.611 87.16C465.144 86.8533 464.577 86.7 463.911 86.7C463.151 86.7 462.497 86.8667 461.951 87.2C461.417 87.5333 461.011 87.9933 460.731 88.58C460.451 89.1533 460.311 89.8067 460.311 90.54C460.311 91.2733 460.477 91.9267 460.811 92.5C461.144 93.0733 461.604 93.5267 462.191 93.86C462.777 94.1933 463.451 94.36 464.211 94.36C464.624 94.36 465.044 94.2867 465.471 94.14C465.911 93.98 466.264 93.8 466.531 93.6C466.731 93.4533 466.944 93.38 467.171 93.38C467.411 93.3667 467.617 93.4333 467.791 93.58C468.017 93.78 468.137 94 468.151 94.24C468.164 94.48 468.057 94.6867 467.831 94.86C467.377 95.22 466.811 95.5133 466.131 95.74C465.464 95.9667 464.824 96.08 464.211 96.08ZM472.472 89.16C472.472 88.36 472.666 87.6467 473.052 87.02C473.452 86.38 473.986 85.8733 474.652 85.5C475.319 85.1267 476.052 84.94 476.852 84.94C477.652 84.94 478.246 85.0733 478.632 85.34C479.032 85.5933 479.186 85.9 479.092 86.26C479.052 86.4467 478.972 86.5933 478.852 86.7C478.746 86.7933 478.619 86.8533 478.472 86.88C478.326 86.9067 478.166 86.9 477.992 86.86C477.139 86.6867 476.372 86.6733 475.692 86.82C475.012 86.9667 474.472 87.24 474.072 87.64C473.686 88.04 473.492 88.5467 473.492 89.16H472.472ZM472.492 96C472.172 96 471.926 95.92 471.752 95.76C471.579 95.5867 471.492 95.3333 471.492 95V86.06C471.492 85.74 471.579 85.4933 471.752 85.32C471.926 85.1467 472.172 85.06 472.492 85.06C472.826 85.06 473.072 85.1467 473.232 85.32C473.406 85.48 473.492 85.7267 473.492 86.06V95C473.492 95.32 473.406 95.5667 473.232 95.74C473.072 95.9133 472.826 96 472.492 96ZM482.439 96C482.146 96 481.899 95.9067 481.699 95.72C481.512 95.52 481.419 95.2733 481.419 94.98V86.08C481.419 85.7733 481.512 85.5267 481.699 85.34C481.899 85.1533 482.146 85.06 482.439 85.06C482.746 85.06 482.992 85.1533 483.179 85.34C483.366 85.5267 483.459 85.7733 483.459 86.08V94.98C483.459 95.2733 483.366 95.52 483.179 95.72C482.992 95.9067 482.746 96 482.439 96ZM482.439 83.28C482.079 83.28 481.766 83.1533 481.499 82.9C481.246 82.6333 481.119 82.32 481.119 81.96C481.119 81.6 481.246 81.2933 481.499 81.04C481.766 80.7733 482.079 80.64 482.439 80.64C482.799 80.64 483.106 80.7733 483.359 81.04C483.626 81.2933 483.759 81.6 483.759 81.96C483.759 82.32 483.626 82.6333 483.359 82.9C483.106 83.1533 482.799 83.28 482.439 83.28ZM488.474 96C488.181 96 487.934 95.9 487.734 95.7C487.547 95.5 487.454 95.26 487.454 94.98V85.12C487.454 84.12 487.647 83.26 488.034 82.54C488.434 81.8067 489.054 81.24 489.894 80.84C490.747 80.44 491.847 80.24 493.194 80.24C493.834 80.24 494.387 80.3133 494.854 80.46C495.334 80.6067 495.707 80.8067 495.974 81.06C496.241 81.3133 496.374 81.6133 496.374 81.96C496.374 82.5467 496.014 82.84 495.294 82.84C495.014 82.84 494.761 82.78 494.534 82.66C494.321 82.54 494.107 82.4 493.894 82.24C493.681 82.08 493.454 81.94 493.214 81.82C492.974 81.7 492.694 81.64 492.374 81.64C491.881 81.64 491.414 81.74 490.974 81.94C490.534 82.1267 490.174 82.4733 489.894 82.98C489.627 83.4867 489.494 84.2 489.494 85.12V94.98C489.494 95.26 489.394 95.5 489.194 95.7C489.007 95.9 488.767 96 488.474 96ZM486.594 87.18C486.314 87.18 486.087 87.1 485.914 86.94C485.741 86.78 485.654 86.58 485.654 86.34C485.654 86.0733 485.741 85.86 485.914 85.7C486.087 85.54 486.314 85.46 486.594 85.46H491.554C491.834 85.46 492.061 85.54 492.234 85.7C492.407 85.86 492.494 86.0733 492.494 86.34C492.494 86.58 492.407 86.78 492.234 86.94C492.061 87.1 491.834 87.18 491.554 87.18H486.594ZM495.134 96C494.841 96 494.594 95.9067 494.394 95.72C494.207 95.52 494.114 95.2733 494.114 94.98V86.08C494.114 85.7733 494.207 85.5267 494.394 85.34C494.594 85.1533 494.841 85.06 495.134 85.06C495.441 85.06 495.687 85.1533 495.874 85.34C496.061 85.5267 496.154 85.7733 496.154 86.08V94.98C496.154 95.2733 496.061 95.52 495.874 95.72C495.687 95.9067 495.441 96 495.134 96ZM505.011 96.08C503.905 96.08 502.918 95.8467 502.051 95.38C501.198 94.9 500.525 94.2467 500.031 93.42C499.551 92.58 499.311 91.62 499.311 90.54C499.311 89.4467 499.538 88.4867 499.991 87.66C500.458 86.82 501.098 86.1667 501.911 85.7C502.725 85.22 503.658 84.98 504.711 84.98C505.751 84.98 506.645 85.2133 507.391 85.68C508.138 86.1333 508.705 86.7667 509.091 87.58C509.491 88.38 509.691 89.3067 509.691 90.36C509.691 90.6133 509.605 90.8267 509.431 91C509.258 91.16 509.038 91.24 508.771 91.24H500.711V89.64H508.711L507.891 90.2C507.878 89.5333 507.745 88.94 507.491 88.42C507.238 87.8867 506.878 87.4667 506.411 87.16C505.945 86.8533 505.378 86.7 504.711 86.7C503.951 86.7 503.298 86.8667 502.751 87.2C502.218 87.5333 501.811 87.9933 501.531 88.58C501.251 89.1533 501.111 89.8067 501.111 90.54C501.111 91.2733 501.278 91.9267 501.611 92.5C501.945 93.0733 502.405 93.5267 502.991 93.86C503.578 94.1933 504.251 94.36 505.011 94.36C505.425 94.36 505.845 94.2867 506.271 94.14C506.711 93.98 507.065 93.8 507.331 93.6C507.531 93.4533 507.745 93.38 507.971 93.38C508.211 93.3667 508.418 93.4333 508.591 93.58C508.818 93.78 508.938 94 508.951 94.24C508.965 94.48 508.858 94.6867 508.631 94.86C508.178 95.22 507.611 95.5133 506.931 95.74C506.265 95.9667 505.625 96.08 505.011 96.08ZM513.273 89.16C513.273 88.36 513.466 87.6467 513.853 87.02C514.253 86.38 514.786 85.8733 515.453 85.5C516.12 85.1267 516.853 84.94 517.653 84.94C518.453 84.94 519.046 85.0733 519.433 85.34C519.833 85.5933 519.986 85.9 519.893 86.26C519.853 86.4467 519.773 86.5933 519.653 86.7C519.546 86.7933 519.42 86.8533 519.273 86.88C519.126 86.9067 518.966 86.9 518.793 86.86C517.94 86.6867 517.173 86.6733 516.493 86.82C515.813 86.9667 515.273 87.24 514.873 87.64C514.486 88.04 514.293 88.5467 514.293 89.16H513.273ZM513.293 96C512.973 96 512.726 95.92 512.553 95.76C512.38 95.5867 512.293 95.3333 512.293 95V86.06C512.293 85.74 512.38 85.4933 512.553 85.32C512.726 85.1467 512.973 85.06 513.293 85.06C513.626 85.06 513.873 85.1467 514.033 85.32C514.206 85.48 514.293 85.7267 514.293 86.06V95C514.293 95.32 514.206 95.5667 514.033 95.74C513.873 95.9133 513.626 96 513.293 96Z" fill="white"/>
<rect x="432.476" y="40" width="100" height="100" rx="16" stroke="#778DA9" stroke-width="2" stroke-linecap="round" stroke-linejoin="round"/>
<rect x="119.112" y="29" width="100" height="100" rx="12" stroke="#778DA9" stroke-width="2"/>
<path d="M135.112 43C135.112 43.3956 134.995 43.7822 134.775 44.1111C134.555 44.44 134.243 44.6964 133.878 44.8478C133.512 44.9991 133.11 45.0387 132.722 44.9616C132.334 44.8844 131.978 44.6939 131.698 44.4142C131.418 44.1345 131.228 43.7781 131.151 43.3902C131.074 43.0022 131.113 42.6001 131.265 42.2346C131.416 41.8692 131.672 41.5568 132.001 41.3371C132.33 41.1173 132.717 41 133.112 41C133.643 41 134.151 41.2107 134.527 41.5858C134.902 41.9609 135.112 42.4696 135.112 43ZM142.112 43C142.112 43.3956 141.995 43.7822 141.775 44.1111C141.555 44.44 141.243 44.6964 140.878 44.8478C140.512 44.9991 140.11 45.0387 139.722 44.9616C139.334 44.8844 138.978 44.6939 138.698 44.4142C138.418 44.1345 138.228 43.7781 138.151 43.3902C138.074 43.0022 138.113 42.6001 138.265 42.2346C138.416 41.8692 138.672 41.5568 139.001 41.3371C139.33 41.1173 139.717 41 140.112 41C140.643 41 141.151 41.2107 141.527 41.5858C141.902 41.9609 142.112 42.4696 142.112 43ZM147.112 45C147.508 45 147.895 44.8827 148.223 44.6629C148.552 44.4432 148.809 44.1308 148.96 43.7654C149.111 43.3999 149.151 42.9978 149.074 42.6098C148.997 42.2219 148.806 41.8655 148.527 41.5858C148.247 41.3061 147.89 41.1156 147.502 41.0384C147.115 40.9613 146.712 41.0009 146.347 41.1522C145.981 41.3036 145.669 41.56 145.449 41.8889C145.23 42.2178 145.112 42.6044 145.112 43C145.112 43.5304 145.323 44.0391 145.698 44.4142C146.073 44.7893 146.582 45 147.112 45Z" fill="#778DA9"/>
<path d="M130.935 85C130.7 85 130.503 84.92 130.343 84.76C130.183 84.6 130.103 84.4027 130.103 84.168V73.336C130.103 73.0907 130.183 72.8933 130.343 72.744C130.503 72.584 130.7 72.504 130.935 72.504H133.831C134.748 72.504 135.58 72.6587 136.327 72.968C137.084 73.2667 137.74 73.6987 138.295 74.264C138.85 74.8187 139.276 75.4747 139.575 76.232C139.874 76.9893 140.023 77.8267 140.023 78.744C140.023 79.6613 139.874 80.504 139.575 81.272C139.276 82.0293 138.85 82.6907 138.295 83.256C137.74 83.8107 137.084 84.2427 136.327 84.552C135.58 84.8507 134.748 85 133.831 85H130.935ZM131.767 83.528H133.831C134.727 83.528 135.516 83.3253 136.199 82.92C136.892 82.504 137.436 81.9387 137.831 81.224C138.226 80.4987 138.423 79.672 138.423 78.744C138.423 77.8053 138.226 76.9787 137.831 76.264C137.436 75.5493 136.892 74.9893 136.199 74.584C135.516 74.1787 134.727 73.976 133.831 73.976H131.767V83.528ZM146.122 85.064C145.344 85.064 144.645 84.872 144.026 84.488C143.408 84.0933 142.917 83.5653 142.554 82.904C142.202 82.232 142.026 81.4747 142.026 80.632C142.026 79.7893 142.218 79.032 142.602 78.36C142.997 77.688 143.525 77.16 144.186 76.776C144.858 76.3813 145.61 76.184 146.442 76.184C147.274 76.184 148.021 76.3813 148.682 76.776C149.344 77.16 149.866 77.688 150.25 78.36C150.645 79.032 150.842 79.7893 150.842 80.632H150.218C150.218 81.4747 150.037 82.232 149.674 82.904C149.322 83.5653 148.837 84.0933 148.218 84.488C147.6 84.872 146.901 85.064 146.122 85.064ZM146.442 83.624C146.986 83.624 147.472 83.496 147.898 83.24C148.325 82.9733 148.661 82.616 148.906 82.168C149.152 81.7093 149.274 81.1973 149.274 80.632C149.274 80.056 149.152 79.544 148.906 79.096C148.661 78.6373 148.325 78.28 147.898 78.024C147.472 77.7573 146.986 77.624 146.442 77.624C145.909 77.624 145.424 77.7573 144.986 78.024C144.56 78.28 144.218 78.6373 143.962 79.096C143.717 79.544 143.594 80.056 143.594 80.632C143.594 81.1973 143.717 81.7093 143.962 82.168C144.218 82.616 144.56 82.9733 144.986 83.24C145.424 83.496 145.909 83.624 146.442 83.624ZM150.026 85.016C149.792 85.016 149.594 84.9413 149.434 84.792C149.285 84.632 149.21 84.4347 149.21 84.2V81.752L149.514 80.056L150.842 80.632V84.2C150.842 84.4347 150.762 84.632 150.602 84.792C150.453 84.9413 150.261 85.016 150.026 85.016ZM156.455 85C155.922 85 155.442 84.8667 155.015 84.6C154.588 84.3227 154.252 83.9493 154.007 83.48C153.762 83.0107 153.639 82.4827 153.639 81.896V74.264C153.639 74.0293 153.714 73.8373 153.863 73.688C154.012 73.5387 154.204 73.464 154.439 73.464C154.674 73.464 154.866 73.5387 155.015 73.688C155.164 73.8373 155.239 74.0293 155.239 74.264V81.896C155.239 82.3227 155.356 82.68 155.591 82.968C155.826 83.256 156.114 83.4 156.455 83.4H156.999C157.191 83.4 157.351 83.4747 157.479 83.624C157.618 83.7733 157.687 83.9653 157.687 84.2C157.687 84.4347 157.596 84.6267 157.415 84.776C157.244 84.9253 157.02 85 156.743 85H156.455ZM152.903 77.944C152.679 77.944 152.498 77.88 152.359 77.752C152.22 77.624 152.151 77.464 152.151 77.272C152.151 77.0587 152.22 76.888 152.359 76.76C152.498 76.632 152.679 76.568 152.903 76.568H156.599C156.823 76.568 157.004 76.632 157.143 76.76C157.282 76.888 157.351 77.0587 157.351 77.272C157.351 77.464 157.282 77.624 157.143 77.752C157.004 77.88 156.823 77.944 156.599 77.944H152.903ZM163.341 85.064C162.562 85.064 161.864 84.872 161.245 84.488C160.626 84.0933 160.136 83.5653 159.773 82.904C159.421 82.232 159.245 81.4747 159.245 80.632C159.245 79.7893 159.437 79.032 159.821 78.36C160.216 77.688 160.744 77.16 161.405 76.776C162.077 76.3813 162.829 76.184 163.661 76.184C164.493 76.184 165.24 76.3813 165.901 76.776C166.562 77.16 167.085 77.688 167.469 78.36C167.864 79.032 168.061 79.7893 168.061 80.632H167.437C167.437 81.4747 167.256 82.232 166.893 82.904C166.541 83.5653 166.056 84.0933 165.437 84.488C164.818 84.872 164.12 85.064 163.341 85.064ZM163.661 83.624C164.205 83.624 164.69 83.496 165.117 83.24C165.544 82.9733 165.88 82.616 166.125 82.168C166.37 81.7093 166.493 81.1973 166.493 80.632C166.493 80.056 166.37 79.544 166.125 79.096C165.88 78.6373 165.544 78.28 165.117 78.024C164.69 77.7573 164.205 77.624 163.661 77.624C163.128 77.624 162.642 77.7573 162.205 78.024C161.778 78.28 161.437 78.6373 161.181 79.096C160.936 79.544 160.813 80.056 160.813 80.632C160.813 81.1973 160.936 81.7093 161.181 82.168C161.437 82.616 161.778 82.9733 162.205 83.24C162.642 83.496 163.128 83.624 163.661 83.624ZM167.245 85.016C167.01 85.016 166.813 84.9413 166.653 84.792C166.504 84.632 166.429 84.4347 166.429 84.2V81.752L166.733 80.056L168.061 80.632V84.2C168.061 84.4347 167.981 84.632 167.821 84.792C167.672 84.9413 167.48 85.016 167.245 85.016ZM174.89 85.064C174.058 85.064 173.311 84.872 172.65 84.488C171.988 84.0933 171.466 83.56 171.082 82.888C170.698 82.216 170.5 81.4587 170.49 80.616V73.32C170.49 73.0747 170.564 72.8773 170.714 72.728C170.874 72.5787 171.071 72.504 171.306 72.504C171.551 72.504 171.748 72.5787 171.898 72.728C172.047 72.8773 172.122 73.0747 172.122 73.32V77.64C172.495 77.192 172.943 76.84 173.466 76.584C173.999 76.3173 174.58 76.184 175.21 76.184C175.988 76.184 176.687 76.3813 177.306 76.776C177.924 77.16 178.41 77.688 178.762 78.36C179.124 79.0213 179.306 79.7733 179.306 80.616C179.306 81.4587 179.108 82.216 178.714 82.888C178.33 83.56 177.807 84.0933 177.146 84.488C176.484 84.872 175.732 85.064 174.89 85.064ZM174.89 83.624C175.434 83.624 175.919 83.496 176.346 83.24C176.772 82.9733 177.108 82.6107 177.354 82.152C177.61 81.6933 177.738 81.1813 177.738 80.616C177.738 80.04 177.61 79.528 177.354 79.08C177.108 78.632 176.772 78.28 176.346 78.024C175.919 77.7573 175.434 77.624 174.89 77.624C174.356 77.624 173.871 77.7573 173.434 78.024C173.007 78.28 172.671 78.632 172.426 79.08C172.18 79.528 172.058 80.04 172.058 80.616C172.058 81.1813 172.18 81.6933 172.426 82.152C172.671 82.6107 173.007 82.9733 173.434 83.24C173.871 83.496 174.356 83.624 174.89 83.624ZM185.388 85.064C184.609 85.064 183.91 84.872 183.292 84.488C182.673 84.0933 182.182 83.5653 181.82 82.904C181.468 82.232 181.292 81.4747 181.292 80.632C181.292 79.7893 181.484 79.032 181.868 78.36C182.262 77.688 182.79 77.16 183.452 76.776C184.124 76.3813 184.876 76.184 185.708 76.184C186.54 76.184 187.286 76.3813 187.948 76.776C188.609 77.16 189.132 77.688 189.516 78.36C189.91 79.032 190.108 79.7893 190.108 80.632H189.484C189.484 81.4747 189.302 82.232 188.94 82.904C188.588 83.5653 188.102 84.0933 187.484 84.488C186.865 84.872 186.166 85.064 185.388 85.064ZM185.708 83.624C186.252 83.624 186.737 83.496 187.164 83.24C187.59 82.9733 187.926 82.616 188.172 82.168C188.417 81.7093 188.54 81.1973 188.54 80.632C188.54 80.056 188.417 79.544 188.172 79.096C187.926 78.6373 187.59 78.28 187.164 78.024C186.737 77.7573 186.252 77.624 185.708 77.624C185.174 77.624 184.689 77.7573 184.252 78.024C183.825 78.28 183.484 78.6373 183.228 79.096C182.982 79.544 182.86 80.056 182.86 80.632C182.86 81.1973 182.982 81.7093 183.228 82.168C183.484 82.616 183.825 82.9733 184.252 83.24C184.689 83.496 185.174 83.624 185.708 83.624ZM189.292 85.016C189.057 85.016 188.86 84.9413 188.7 84.792C188.55 84.632 188.476 84.4347 188.476 84.2V81.752L188.78 80.056L190.108 80.632V84.2C190.108 84.4347 190.028 84.632 189.868 84.792C189.718 84.9413 189.526 85.016 189.292 85.016ZM195.721 85.064C194.974 85.064 194.281 84.952 193.641 84.728C193.011 84.4933 192.521 84.2 192.169 83.848C192.009 83.6773 191.939 83.4853 191.961 83.272C191.993 83.048 192.099 82.8667 192.281 82.728C192.494 82.5573 192.702 82.488 192.905 82.52C193.118 82.5413 193.299 82.632 193.449 82.792C193.63 82.9947 193.918 83.1867 194.313 83.368C194.718 83.5387 195.166 83.624 195.657 83.624C196.275 83.624 196.745 83.5227 197.065 83.32C197.395 83.1173 197.566 82.856 197.577 82.536C197.587 82.216 197.433 81.9387 197.113 81.704C196.803 81.4693 196.233 81.2773 195.401 81.128C194.323 80.9147 193.539 80.5947 193.049 80.168C192.569 79.7413 192.329 79.2187 192.329 78.6C192.329 78.056 192.489 77.608 192.809 77.256C193.129 76.8933 193.539 76.6267 194.041 76.456C194.542 76.2747 195.065 76.184 195.609 76.184C196.313 76.184 196.937 76.296 197.481 76.52C198.025 76.744 198.457 77.0533 198.777 77.448C198.926 77.6187 198.995 77.8 198.985 77.992C198.974 78.1733 198.883 78.328 198.713 78.456C198.542 78.5733 198.339 78.6107 198.105 78.568C197.87 78.5253 197.673 78.4293 197.513 78.28C197.246 78.024 196.958 77.848 196.649 77.752C196.339 77.656 195.982 77.608 195.577 77.608C195.107 77.608 194.707 77.688 194.377 77.848C194.057 78.008 193.897 78.2427 193.897 78.552C193.897 78.744 193.945 78.92 194.041 79.08C194.147 79.2293 194.35 79.368 194.649 79.496C194.947 79.6133 195.385 79.7307 195.961 79.848C196.761 80.008 197.39 80.2107 197.849 80.456C198.318 80.7013 198.654 80.9893 198.857 81.32C199.059 81.64 199.161 82.0133 199.161 82.44C199.161 82.9307 199.027 83.3733 198.761 83.768C198.505 84.1627 198.121 84.4773 197.609 84.712C197.107 84.9467 196.478 85.064 195.721 85.064ZM205.336 85.064C204.451 85.064 203.662 84.8773 202.968 84.504C202.286 84.12 201.747 83.5973 201.352 82.936C200.968 82.264 200.776 81.496 200.776 80.632C200.776 79.7573 200.958 78.9893 201.32 78.328C201.694 77.656 202.206 77.1333 202.856 76.76C203.507 76.376 204.254 76.184 205.096 76.184C205.928 76.184 206.643 76.3707 207.24 76.744C207.838 77.1067 208.291 77.6133 208.6 78.264C208.92 78.904 209.08 79.6453 209.08 80.488C209.08 80.6907 209.011 80.8613 208.872 81C208.734 81.128 208.558 81.192 208.344 81.192H201.896V79.912H208.296L207.64 80.36C207.63 79.8267 207.523 79.352 207.32 78.936C207.118 78.5093 206.83 78.1733 206.456 77.928C206.083 77.6827 205.63 77.56 205.096 77.56C204.488 77.56 203.966 77.6933 203.528 77.96C203.102 78.2267 202.776 78.5947 202.552 79.064C202.328 79.5227 202.216 80.0453 202.216 80.632C202.216 81.2187 202.35 81.7413 202.616 82.2C202.883 82.6587 203.251 83.0213 203.72 83.288C204.19 83.5547 204.728 83.688 205.336 83.688C205.667 83.688 206.003 83.6293 206.344 83.512C206.696 83.384 206.979 83.24 207.192 83.08C207.352 82.9627 207.523 82.904 207.704 82.904C207.896 82.8933 208.062 82.9467 208.2 83.064C208.382 83.224 208.478 83.4 208.488 83.592C208.499 83.784 208.414 83.9493 208.232 84.088C207.87 84.376 207.416 84.6107 206.872 84.792C206.339 84.9733 205.827 85.064 205.336 85.064Z" fill="white"/>
<rect x="648.812" y="230" width="100" height="100" rx="12" stroke="#778DA9" stroke-width="2"/>
<path d="M664.812 244C664.812 244.396 664.694 244.782 664.474 245.111C664.255 245.44 663.942 245.696 663.577 245.848C663.211 245.999 662.809 246.039 662.421 245.962C662.033 245.884 661.677 245.694 661.397 245.414C661.118 245.135 660.927 244.778 660.85 244.39C660.773 244.002 660.812 243.6 660.964 243.235C661.115 242.869 661.371 242.557 661.7 242.337C662.029 242.117 662.416 242 662.812 242C663.342 242 663.851 242.211 664.226 242.586C664.601 242.961 664.812 243.47 664.812 244ZM671.812 244C671.812 244.396 671.694 244.782 671.474 245.111C671.255 245.44 670.942 245.696 670.577 245.848C670.211 245.999 669.809 246.039 669.421 245.962C669.033 245.884 668.677 245.694 668.397 245.414C668.118 245.135 667.927 244.778 667.85 244.39C667.773 244.002 667.812 243.6 667.964 243.235C668.115 242.869 668.371 242.557 668.7 242.337C669.029 242.117 669.416 242 669.812 242C670.342 242 670.851 242.211 671.226 242.586C671.601 242.961 671.812 243.47 671.812 244ZM676.812 246C677.207 246 677.594 245.883 677.923 245.663C678.252 245.443 678.508 245.131 678.659 244.765C678.811 244.4 678.85 243.998 678.773 243.61C678.696 243.222 678.505 242.865 678.226 242.586C677.946 242.306 677.59 242.116 677.202 242.038C676.814 241.961 676.412 242.001 676.046 242.152C675.681 242.304 675.368 242.56 675.149 242.889C674.929 243.218 674.812 243.604 674.812 244C674.812 244.53 675.022 245.039 675.397 245.414C675.772 245.789 676.281 246 676.812 246Z" fill="#778DA9"/>
<path d="M683.754 277C683.573 277 683.424 276.941 683.306 276.824C683.189 276.707 683.13 276.557 683.13 276.376V265.128C683.13 264.947 683.189 264.797 683.306 264.68C683.424 264.563 683.573 264.504 683.754 264.504C683.946 264.504 684.106 264.579 684.234 264.728L691.882 274.776V265.128C691.882 264.947 691.941 264.797 692.058 264.68C692.176 264.563 692.325 264.504 692.506 264.504C692.677 264.504 692.821 264.563 692.938 264.68C693.066 264.797 693.13 264.947 693.13 265.128V276.376C693.13 276.557 693.066 276.707 692.938 276.824C692.821 276.941 692.677 277 692.506 277C692.421 277 692.336 276.984 692.25 276.952C692.165 276.92 692.096 276.867 692.042 276.792L684.378 266.744V276.376C684.378 276.557 684.314 276.707 684.186 276.824C684.069 276.941 683.925 277 683.754 277ZM700.141 277.08C699.277 277.08 698.509 276.893 697.837 276.52C697.176 276.136 696.653 275.608 696.269 274.936C695.896 274.264 695.709 273.496 695.709 272.632C695.709 271.757 695.885 270.989 696.237 270.328C696.6 269.656 697.096 269.128 697.725 268.744C698.355 268.36 699.08 268.168 699.901 268.168C700.712 268.168 701.416 268.355 702.013 268.728C702.621 269.091 703.091 269.597 703.421 270.248C703.752 270.899 703.917 271.64 703.917 272.472C703.917 272.643 703.864 272.781 703.757 272.888C703.651 272.984 703.512 273.032 703.341 273.032H696.541V272.008H703.469L702.781 272.504C702.792 271.885 702.68 271.331 702.445 270.84C702.211 270.349 701.875 269.965 701.437 269.688C701.011 269.411 700.499 269.272 699.901 269.272C699.293 269.272 698.76 269.416 698.301 269.704C697.843 269.992 697.485 270.392 697.229 270.904C696.984 271.405 696.861 271.981 696.861 272.632C696.861 273.283 697 273.859 697.277 274.36C697.565 274.861 697.955 275.256 698.445 275.544C698.936 275.832 699.501 275.976 700.141 275.976C700.525 275.976 700.909 275.912 701.293 275.784C701.688 275.645 702.003 275.475 702.237 275.272C702.355 275.176 702.488 275.128 702.637 275.128C702.787 275.117 702.915 275.155 703.021 275.24C703.16 275.368 703.229 275.507 703.229 275.656C703.24 275.805 703.181 275.933 703.053 276.04C702.701 276.339 702.253 276.589 701.709 276.792C701.165 276.984 700.643 277.08 700.141 277.08ZM707.673 277C707.534 277 707.412 276.963 707.305 276.888C707.198 276.813 707.124 276.717 707.081 276.6L704.585 269.112C704.521 268.845 704.526 268.637 704.601 268.488C704.676 268.328 704.825 268.248 705.049 268.248C705.188 268.248 705.31 268.285 705.417 268.36C705.524 268.435 705.604 268.552 705.657 268.712L707.881 275.512H707.529L709.593 268.728C709.636 268.589 709.705 268.477 709.801 268.392C709.908 268.296 710.041 268.248 710.201 268.248C710.361 268.248 710.489 268.291 710.585 268.376C710.692 268.461 710.766 268.579 710.809 268.728L712.777 275.352H712.505L714.681 268.712C714.788 268.403 714.985 268.248 715.273 268.248C715.508 268.248 715.668 268.339 715.753 268.52C715.838 268.691 715.838 268.888 715.753 269.112L713.257 276.6C713.214 276.717 713.14 276.813 713.033 276.888C712.937 276.963 712.82 277 712.681 277C712.542 277 712.414 276.963 712.297 276.888C712.19 276.813 712.121 276.717 712.089 276.6L710.073 269.912H710.265L708.249 276.6C708.206 276.728 708.132 276.829 708.025 276.904C707.918 276.968 707.801 277 707.673 277ZM668.387 295C668.206 295 668.056 294.941 667.939 294.824C667.822 294.707 667.763 294.557 667.763 294.376V283.128C667.763 282.947 667.822 282.797 667.939 282.68C668.056 282.563 668.206 282.504 668.387 282.504H671.267C672.184 282.504 673.022 282.659 673.779 282.968C674.547 283.267 675.208 283.699 675.763 284.264C676.318 284.819 676.744 285.475 677.043 286.232C677.352 286.989 677.507 287.827 677.507 288.744C677.507 289.661 677.352 290.504 677.043 291.272C676.744 292.029 676.318 292.691 675.763 293.256C675.208 293.811 674.547 294.243 673.779 294.552C673.022 294.851 672.184 295 671.267 295H668.387ZM669.011 293.88H671.267C672.248 293.88 673.112 293.661 673.859 293.224C674.616 292.776 675.208 292.168 675.635 291.4C676.062 290.621 676.275 289.736 676.275 288.744C676.275 287.752 676.062 286.872 675.635 286.104C675.208 285.325 674.616 284.717 673.859 284.28C673.112 283.843 672.248 283.624 671.267 283.624H669.011V293.88ZM683.772 295.08C682.95 295.08 682.214 294.888 681.564 294.504C680.913 294.109 680.396 293.576 680.012 292.904C679.638 292.232 679.452 291.475 679.452 290.632C679.452 289.779 679.644 289.016 680.028 288.344C680.422 287.672 680.956 287.144 681.628 286.76C682.3 286.365 683.057 286.168 683.9 286.168C684.742 286.168 685.494 286.365 686.156 286.76C686.828 287.144 687.356 287.672 687.74 288.344C688.134 289.016 688.337 289.779 688.348 290.632L687.852 291.016C687.852 291.784 687.67 292.477 687.308 293.096C686.956 293.704 686.47 294.189 685.852 294.552C685.244 294.904 684.55 295.08 683.772 295.08ZM683.9 293.96C684.518 293.96 685.068 293.816 685.548 293.528C686.038 293.24 686.422 292.845 686.7 292.344C686.988 291.832 687.132 291.261 687.132 290.632C687.132 289.992 686.988 289.421 686.7 288.92C686.422 288.419 686.038 288.024 685.548 287.736C685.068 287.437 684.518 287.288 683.9 287.288C683.292 287.288 682.742 287.437 682.252 287.736C681.761 288.024 681.372 288.419 681.084 288.92C680.796 289.421 680.652 289.992 680.652 290.632C680.652 291.261 680.796 291.832 681.084 292.344C681.372 292.845 681.761 293.24 682.252 293.528C682.742 293.816 683.292 293.96 683.9 293.96ZM687.724 295C687.542 295 687.393 294.947 687.276 294.84C687.158 294.723 687.1 294.573 687.1 294.392V291.656L687.404 290.392L688.348 290.632V294.392C688.348 294.573 688.289 294.723 688.172 294.84C688.054 294.947 687.905 295 687.724 295ZM694.168 295C693.602 295 693.096 294.867 692.648 294.6C692.21 294.333 691.864 293.971 691.608 293.512C691.352 293.043 691.224 292.509 691.224 291.912V284.088C691.224 283.907 691.277 283.757 691.384 283.64C691.501 283.523 691.65 283.464 691.832 283.464C692.013 283.464 692.162 283.523 692.28 283.64C692.397 283.757 692.456 283.907 692.456 284.088V291.912C692.456 292.456 692.616 292.904 692.936 293.256C693.256 293.597 693.666 293.768 694.168 293.768H694.6C694.77 293.768 694.909 293.827 695.016 293.944C695.122 294.061 695.176 294.211 695.176 294.392C695.176 294.573 695.112 294.723 694.984 294.84C694.856 294.947 694.696 295 694.504 295H694.168ZM690.184 287.64C690.024 287.64 689.89 287.592 689.784 287.496C689.677 287.389 689.624 287.261 689.624 287.112C689.624 286.952 689.677 286.824 689.784 286.728C689.89 286.621 690.024 286.568 690.184 286.568H694.264C694.424 286.568 694.557 286.621 694.664 286.728C694.77 286.824 694.824 286.952 694.824 287.112C694.824 287.261 694.77 287.389 694.664 287.496C694.557 287.592 694.424 287.64 694.264 287.64H690.184ZM701.037 295.08C700.216 295.08 699.48 294.888 698.829 294.504C698.179 294.109 697.661 293.576 697.277 292.904C696.904 292.232 696.717 291.475 696.717 290.632C696.717 289.779 696.909 289.016 697.293 288.344C697.688 287.672 698.221 287.144 698.893 286.76C699.565 286.365 700.323 286.168 701.165 286.168C702.008 286.168 702.76 286.365 703.421 286.76C704.093 287.144 704.621 287.672 705.005 288.344C705.4 289.016 705.603 289.779 705.613 290.632L705.117 291.016C705.117 291.784 704.936 292.477 704.573 293.096C704.221 293.704 703.736 294.189 703.117 294.552C702.509 294.904 701.816 295.08 701.037 295.08ZM701.165 293.96C701.784 293.96 702.333 293.816 702.813 293.528C703.304 293.24 703.688 292.845 703.965 292.344C704.253 291.832 704.397 291.261 704.397 290.632C704.397 289.992 704.253 289.421 703.965 288.92C703.688 288.419 703.304 288.024 702.813 287.736C702.333 287.437 701.784 287.288 701.165 287.288C700.557 287.288 700.008 287.437 699.517 287.736C699.027 288.024 698.637 288.419 698.349 288.92C698.061 289.421 697.917 289.992 697.917 290.632C697.917 291.261 698.061 291.832 698.349 292.344C698.637 292.845 699.027 293.24 699.517 293.528C700.008 293.816 700.557 293.96 701.165 293.96ZM704.989 295C704.808 295 704.659 294.947 704.541 294.84C704.424 294.723 704.365 294.573 704.365 294.392V291.656L704.669 290.392L705.613 290.632V294.392C705.613 294.573 705.555 294.723 705.437 294.84C705.32 294.947 705.171 295 704.989 295ZM711.065 295.08C710.436 295.08 709.812 294.973 709.193 294.76C708.575 294.547 708.073 294.227 707.689 293.8C707.572 293.672 707.524 293.528 707.545 293.368C707.567 293.208 707.647 293.069 707.785 292.952C707.935 292.845 708.089 292.803 708.249 292.824C708.409 292.845 708.543 292.915 708.649 293.032C708.905 293.331 709.241 293.56 709.657 293.72C710.084 293.88 710.553 293.96 711.065 293.96C711.855 293.96 712.425 293.827 712.777 293.56C713.129 293.283 713.311 292.952 713.321 292.568C713.321 292.184 713.14 291.869 712.777 291.624C712.415 291.368 711.817 291.171 710.985 291.032C709.908 290.861 709.119 290.563 708.617 290.136C708.116 289.709 707.865 289.203 707.865 288.616C707.865 288.072 708.009 287.619 708.297 287.256C708.585 286.893 708.969 286.621 709.449 286.44C709.929 286.259 710.457 286.168 711.033 286.168C711.748 286.168 712.361 286.291 712.873 286.536C713.396 286.781 713.817 287.112 714.137 287.528C714.244 287.667 714.287 287.811 714.265 287.96C714.244 288.109 714.159 288.232 714.009 288.328C713.881 288.403 713.732 288.429 713.561 288.408C713.401 288.376 713.263 288.296 713.145 288.168C712.879 287.859 712.569 287.635 712.217 287.496C711.865 287.347 711.46 287.272 711.001 287.272C710.415 287.272 709.945 287.395 709.593 287.64C709.241 287.875 709.065 288.173 709.065 288.536C709.065 288.781 709.129 288.995 709.257 289.176C709.396 289.357 709.625 289.517 709.945 289.656C710.276 289.795 710.735 289.912 711.321 290.008C712.121 290.136 712.751 290.328 713.209 290.584C713.679 290.829 714.009 291.123 714.201 291.464C714.404 291.795 714.505 292.157 714.505 292.552C714.505 293.053 714.356 293.496 714.057 293.88C713.769 294.253 713.364 294.547 712.841 294.76C712.329 294.973 711.737 295.08 711.065 295.08ZM720.602 295.08C719.738 295.08 718.97 294.893 718.298 294.52C717.637 294.136 717.114 293.608 716.73 292.936C716.357 292.264 716.17 291.496 716.17 290.632C716.17 289.757 716.346 288.989 716.698 288.328C717.061 287.656 717.557 287.128 718.186 286.744C718.816 286.36 719.541 286.168 720.362 286.168C721.173 286.168 721.877 286.355 722.474 286.728C723.082 287.091 723.552 287.597 723.882 288.248C724.213 288.899 724.378 289.64 724.378 290.472C724.378 290.643 724.325 290.781 724.218 290.888C724.112 290.984 723.973 291.032 723.802 291.032H717.002V290.008H723.93L723.242 290.504C723.253 289.885 723.141 289.331 722.906 288.84C722.672 288.349 722.336 287.965 721.898 287.688C721.472 287.411 720.96 287.272 720.362 287.272C719.754 287.272 719.221 287.416 718.762 287.704C718.304 287.992 717.946 288.392 717.69 288.904C717.445 289.405 717.322 289.981 717.322 290.632C717.322 291.283 717.461 291.859 717.738 292.36C718.026 292.861 718.416 293.256 718.906 293.544C719.397 293.832 719.962 293.976 720.602 293.976C720.986 293.976 721.37 293.912 721.754 293.784C722.149 293.645 722.464 293.475 722.698 293.272C722.816 293.176 722.949 293.128 723.098 293.128C723.248 293.117 723.376 293.155 723.482 293.24C723.621 293.368 723.69 293.507 723.69 293.656C723.701 293.805 723.642 293.933 723.514 294.04C723.162 294.339 722.714 294.589 722.17 294.792C721.626 294.984 721.104 295.08 720.602 295.08ZM729.886 295C729.321 295 728.814 294.867 728.366 294.6C727.929 294.333 727.582 293.971 727.326 293.512C727.07 293.043 726.942 292.509 726.942 291.912V284.088C726.942 283.907 726.996 283.757 727.102 283.64C727.22 283.523 727.369 283.464 727.55 283.464C727.732 283.464 727.881 283.523 727.998 283.64C728.116 283.757 728.174 283.907 728.174 284.088V291.912C728.174 292.456 728.334 292.904 728.654 293.256C728.974 293.597 729.385 293.768 729.886 293.768H730.318C730.489 293.768 730.628 293.827 730.734 293.944C730.841 294.061 730.894 294.211 730.894 294.392C730.894 294.573 730.83 294.723 730.702 294.84C730.574 294.947 730.414 295 730.222 295H729.886ZM725.902 287.64C725.742 287.64 725.609 287.592 725.502 287.496C725.396 287.389 725.342 287.261 725.342 287.112C725.342 286.952 725.396 286.824 725.502 286.728C725.609 286.621 725.742 286.568 725.902 286.568H729.982C730.142 286.568 730.276 286.621 730.382 286.728C730.489 286.824 730.542 286.952 730.542 287.112C730.542 287.261 730.489 287.389 730.382 287.496C730.276 287.592 730.142 287.64 729.982 287.64H725.902Z" fill="white"/>
<path d="M169 131V164.5" stroke="#778DA9" stroke-width="2" stroke-linecap="round" stroke-linejoin="round"/>
<path d="M282 198V198C282 179.498 267.002 164.5 248.5 164.5H89.5C70.9985 164.5 56 179.498 56 198V198" stroke="#778DA9" stroke-width="2" stroke-linecap="round" stroke-linejoin="round"/>
<circle cx="169" cy="131" r="2" transform="rotate(-90 169 131)" fill="#778DA9" stroke="#778DA9" stroke-width="2"/>
<path d="M276 193L282 199L288 193" stroke="#778DA9" stroke-width="2" stroke-linecap="round" stroke-linejoin="round"/>
<path d="M50 193L56 199L62 193" stroke="#778DA9" stroke-width="2" stroke-linecap="round" stroke-linejoin="round"/>
<path d="M169 160L174 165L169 170L164 165L169 160Z" fill="#151E2F" stroke="#778DA9" stroke-width="2" stroke-linecap="round" stroke-linejoin="round"/>
<rect x="1.1377" y="202" width="100" height="100" rx="16" fill="#778DA9"/>
<path d="M19.8879 257.14C19.1319 257.14 18.4226 257 17.7599 256.72C17.1066 256.431 16.5326 256.034 16.0379 255.53C15.5526 255.017 15.1699 254.419 14.8899 253.738C14.6192 253.057 14.4839 252.319 14.4839 251.526C14.4839 250.742 14.6192 250.014 14.8899 249.342C15.1699 248.661 15.5526 248.068 16.0379 247.564C16.5326 247.051 17.1066 246.649 17.7599 246.36C18.4132 246.071 19.1226 245.926 19.8879 245.926C20.6066 245.926 21.2226 246.019 21.7359 246.206C22.2586 246.393 22.7812 246.701 23.3039 247.13C23.3786 247.186 23.4346 247.247 23.4719 247.312C23.5186 247.368 23.5466 247.429 23.5559 247.494C23.5746 247.55 23.5839 247.62 23.5839 247.704C23.5839 247.881 23.5186 248.031 23.3879 248.152C23.2666 248.264 23.1172 248.329 22.9399 248.348C22.7626 248.357 22.5899 248.297 22.4219 248.166C22.0766 247.867 21.7172 247.639 21.3439 247.48C20.9799 247.321 20.4946 247.242 19.8879 247.242C19.3372 247.242 18.8192 247.354 18.3339 247.578C17.8486 247.802 17.4192 248.11 17.0459 248.502C16.6819 248.894 16.3972 249.351 16.1919 249.874C15.9866 250.387 15.8839 250.938 15.8839 251.526C15.8839 252.123 15.9866 252.683 16.1919 253.206C16.3972 253.719 16.6819 254.172 17.0459 254.564C17.4192 254.956 17.8486 255.264 18.3339 255.488C18.8192 255.703 19.3372 255.81 19.8879 255.81C20.3639 255.81 20.8119 255.731 21.2319 255.572C21.6612 255.404 22.0719 255.175 22.4639 254.886C22.6319 254.765 22.7952 254.713 22.9539 254.732C23.1219 254.741 23.2619 254.807 23.3739 254.928C23.4859 255.04 23.5419 255.199 23.5419 255.404C23.5419 255.497 23.5232 255.591 23.4859 255.684C23.4486 255.768 23.3926 255.847 23.3179 255.922C22.8139 256.323 22.2726 256.627 21.6939 256.832C21.1246 257.037 20.5226 257.14 19.8879 257.14ZM28.6422 257.056C27.8862 257.056 27.2188 256.893 26.6402 256.566C26.0615 256.23 25.6042 255.773 25.2682 255.194C24.9415 254.606 24.7782 253.934 24.7782 253.178C24.7782 252.413 24.9415 251.741 25.2682 251.162C25.6042 250.574 26.0615 250.117 26.6402 249.79C27.2188 249.454 27.8862 249.286 28.6422 249.286C29.3888 249.286 30.0515 249.454 30.6302 249.79C31.2088 250.117 31.6615 250.574 31.9882 251.162C32.3242 251.741 32.4922 252.413 32.4922 253.178C32.4922 253.934 32.3288 254.606 32.0022 255.194C31.6755 255.773 31.2228 256.23 30.6442 256.566C30.0655 256.893 29.3982 257.056 28.6422 257.056ZM28.6422 255.796C29.1275 255.796 29.5568 255.684 29.9302 255.46C30.3035 255.236 30.5928 254.928 30.7982 254.536C31.0128 254.144 31.1202 253.691 31.1202 253.178C31.1202 252.665 31.0128 252.212 30.7982 251.82C30.5928 251.419 30.3035 251.106 29.9302 250.882C29.5568 250.658 29.1275 250.546 28.6422 250.546C28.1568 250.546 27.7275 250.658 27.3542 250.882C26.9808 251.106 26.6868 251.419 26.4722 251.82C26.2575 252.212 26.1502 252.665 26.1502 253.178C26.1502 253.691 26.2575 254.144 26.4722 254.536C26.6868 254.928 26.9808 255.236 27.3542 255.46C27.7275 255.684 28.1568 255.796 28.6422 255.796ZM41.0854 257.014C40.8801 257.014 40.7074 256.949 40.5674 256.818C40.4368 256.678 40.3714 256.505 40.3714 256.3V252.856C40.3714 252.324 40.2734 251.89 40.0774 251.554C39.8814 251.218 39.6154 250.971 39.2794 250.812C38.9528 250.644 38.5748 250.56 38.1454 250.56C37.7534 250.56 37.3988 250.639 37.0814 250.798C36.7641 250.957 36.5121 251.171 36.3254 251.442C36.1388 251.703 36.0454 252.007 36.0454 252.352H35.1634C35.1634 251.764 35.3034 251.241 35.5834 250.784C35.8728 250.317 36.2648 249.949 36.7594 249.678C37.2541 249.407 37.8094 249.272 38.4254 249.272C39.0694 249.272 39.6434 249.412 40.1474 249.692C40.6608 249.963 41.0621 250.364 41.3514 250.896C41.6501 251.428 41.7994 252.081 41.7994 252.856V256.3C41.7994 256.505 41.7294 256.678 41.5894 256.818C41.4588 256.949 41.2908 257.014 41.0854 257.014ZM35.3314 257.014C35.1261 257.014 34.9534 256.949 34.8134 256.818C34.6828 256.678 34.6174 256.505 34.6174 256.3V250.056C34.6174 249.841 34.6828 249.669 34.8134 249.538C34.9534 249.407 35.1261 249.342 35.3314 249.342C35.5461 249.342 35.7188 249.407 35.8494 249.538C35.9801 249.669 36.0454 249.841 36.0454 250.056V256.3C36.0454 256.505 35.9801 256.678 35.8494 256.818C35.7188 256.949 35.5461 257.014 35.3314 257.014ZM46.9464 257.056C46.2931 257.056 45.6864 256.958 45.1264 256.762C44.5757 256.557 44.1464 256.3 43.8384 255.992C43.6984 255.843 43.6377 255.675 43.6564 255.488C43.6844 255.292 43.7777 255.133 43.9364 255.012C44.1231 254.863 44.3051 254.802 44.4824 254.83C44.6691 254.849 44.8277 254.928 44.9584 255.068C45.1171 255.245 45.3691 255.413 45.7144 255.572C46.0691 255.721 46.4611 255.796 46.8904 255.796C47.4317 255.796 47.8424 255.707 48.1224 255.53C48.4117 255.353 48.5611 255.124 48.5704 254.844C48.5797 254.564 48.4444 254.321 48.1644 254.116C47.8937 253.911 47.3944 253.743 46.6664 253.612C45.7237 253.425 45.0377 253.145 44.6084 252.772C44.1884 252.399 43.9784 251.941 43.9784 251.4C43.9784 250.924 44.1184 250.532 44.3984 250.224C44.6784 249.907 45.0377 249.673 45.4764 249.524C45.9151 249.365 46.3724 249.286 46.8484 249.286C47.4644 249.286 48.0104 249.384 48.4864 249.58C48.9624 249.776 49.3404 250.047 49.6204 250.392C49.7511 250.541 49.8117 250.7 49.8024 250.868C49.7931 251.027 49.7137 251.162 49.5644 251.274C49.4151 251.377 49.2377 251.409 49.0324 251.372C48.8271 251.335 48.6544 251.251 48.5144 251.12C48.2811 250.896 48.0291 250.742 47.7584 250.658C47.4877 250.574 47.1751 250.532 46.8204 250.532C46.4097 250.532 46.0597 250.602 45.7704 250.742C45.4904 250.882 45.3504 251.087 45.3504 251.358C45.3504 251.526 45.3924 251.68 45.4764 251.82C45.5697 251.951 45.7471 252.072 46.0084 252.184C46.2697 252.287 46.6524 252.389 47.1564 252.492C47.8564 252.632 48.4071 252.809 48.8084 253.024C49.2191 253.239 49.5131 253.491 49.6904 253.78C49.8677 254.06 49.9564 254.387 49.9564 254.76C49.9564 255.189 49.8397 255.577 49.6064 255.922C49.3824 256.267 49.0464 256.543 48.5984 256.748C48.1597 256.953 47.6091 257.056 46.9464 257.056ZM54.982 257.07C54.338 257.07 53.7593 256.935 53.246 256.664C52.742 256.384 52.3406 255.978 52.042 255.446C51.7526 254.914 51.608 254.261 51.608 253.486V250.042C51.608 249.837 51.6733 249.669 51.804 249.538C51.944 249.398 52.1166 249.328 52.322 249.328C52.5273 249.328 52.6953 249.398 52.826 249.538C52.966 249.669 53.036 249.837 53.036 250.042V253.486C53.036 254.009 53.134 254.443 53.33 254.788C53.526 255.124 53.792 255.376 54.128 255.544C54.464 255.703 54.842 255.782 55.262 255.782C55.6633 255.782 56.018 255.703 56.326 255.544C56.6433 255.385 56.8953 255.171 57.082 254.9C57.2686 254.629 57.362 254.326 57.362 253.99H58.244C58.244 254.569 58.0993 255.091 57.81 255.558C57.53 256.025 57.1426 256.393 56.648 256.664C56.1626 256.935 55.6073 257.07 54.982 257.07ZM58.076 257C57.8706 257 57.698 256.935 57.558 256.804C57.4273 256.664 57.362 256.491 57.362 256.286V250.042C57.362 249.827 57.4273 249.655 57.558 249.524C57.698 249.393 57.8706 249.328 58.076 249.328C58.2906 249.328 58.4633 249.393 58.594 249.524C58.7246 249.655 58.79 249.827 58.79 250.042V256.286C58.79 256.491 58.7246 256.664 58.594 256.804C58.4633 256.935 58.2906 257 58.076 257ZM71.3569 257.014C71.1516 257.014 70.9789 256.949 70.8389 256.818C70.7083 256.678 70.6429 256.505 70.6429 256.3V252.296C70.6429 251.708 70.4983 251.274 70.2089 250.994C69.9196 250.705 69.5416 250.56 69.0749 250.56C68.5896 250.56 68.1883 250.728 67.8709 251.064C67.5629 251.4 67.4089 251.829 67.4089 252.352H66.2469C66.2469 251.745 66.3776 251.213 66.6389 250.756C66.9003 250.289 67.2643 249.925 67.7309 249.664C68.2069 249.403 68.7483 249.272 69.3549 249.272C69.8869 249.272 70.3583 249.389 70.7689 249.622C71.1796 249.855 71.4969 250.201 71.7209 250.658C71.9543 251.106 72.0709 251.652 72.0709 252.296V256.3C72.0709 256.505 72.0056 256.678 71.8749 256.818C71.7443 256.949 71.5716 257.014 71.3569 257.014ZM62.0189 257.014C61.8136 257.014 61.6409 256.949 61.5009 256.818C61.3703 256.678 61.3049 256.505 61.3049 256.3V250.07C61.3049 249.855 61.3703 249.683 61.5009 249.552C61.6409 249.421 61.8136 249.356 62.0189 249.356C62.2336 249.356 62.4063 249.421 62.5369 249.552C62.6676 249.683 62.7329 249.855 62.7329 250.07V256.3C62.7329 256.505 62.6676 256.678 62.5369 256.818C62.4063 256.949 62.2336 257.014 62.0189 257.014ZM66.6949 257.014C66.4896 257.014 66.3169 256.949 66.1769 256.818C66.0463 256.678 65.9809 256.505 65.9809 256.3V252.296C65.9809 251.708 65.8363 251.274 65.5469 250.994C65.2576 250.705 64.8796 250.56 64.4129 250.56C63.9276 250.56 63.5263 250.728 63.2089 251.064C62.8916 251.4 62.7329 251.829 62.7329 252.352H61.8509C61.8509 251.745 61.9723 251.213 62.2149 250.756C62.4576 250.289 62.7936 249.925 63.2229 249.664C63.6523 249.403 64.1423 249.272 64.6929 249.272C65.2249 249.272 65.6963 249.389 66.1069 249.622C66.5176 249.855 66.8349 250.201 67.0589 250.658C67.2923 251.106 67.4089 251.652 67.4089 252.296V256.3C67.4089 256.505 67.3436 256.678 67.2129 256.818C67.0823 256.949 66.9096 257.014 66.6949 257.014ZM78.0416 257.056C77.2669 257.056 76.5763 256.893 75.9696 256.566C75.3723 256.23 74.9009 255.773 74.5556 255.194C74.2196 254.606 74.0516 253.934 74.0516 253.178C74.0516 252.413 74.2103 251.741 74.5276 251.162C74.8543 250.574 75.3023 250.117 75.8716 249.79C76.4409 249.454 77.0943 249.286 77.8316 249.286C78.5596 249.286 79.1849 249.449 79.7076 249.776C80.2303 250.093 80.6269 250.537 80.8976 251.106C81.1776 251.666 81.3176 252.315 81.3176 253.052C81.3176 253.229 81.2569 253.379 81.1356 253.5C81.0143 253.612 80.8603 253.668 80.6736 253.668H75.0316V252.548H80.6316L80.0576 252.94C80.0483 252.473 79.9549 252.058 79.7776 251.694C79.6003 251.321 79.3483 251.027 79.0216 250.812C78.6949 250.597 78.2983 250.49 77.8316 250.49C77.2996 250.49 76.8423 250.607 76.4596 250.84C76.0863 251.073 75.8016 251.395 75.6056 251.806C75.4096 252.207 75.3116 252.665 75.3116 253.178C75.3116 253.691 75.4283 254.149 75.6616 254.55C75.8949 254.951 76.2169 255.269 76.6276 255.502C77.0383 255.735 77.5096 255.852 78.0416 255.852C78.3309 255.852 78.6249 255.801 78.9236 255.698C79.2316 255.586 79.4789 255.46 79.6656 255.32C79.8056 255.217 79.9549 255.166 80.1136 255.166C80.2816 255.157 80.4263 255.203 80.5476 255.306C80.7063 255.446 80.7903 255.6 80.7996 255.768C80.8089 255.936 80.7343 256.081 80.5756 256.202C80.2583 256.454 79.8616 256.659 79.3856 256.818C78.9189 256.977 78.4709 257.056 78.0416 257.056ZM83.8249 252.212C83.8249 251.652 83.9602 251.153 84.2309 250.714C84.5109 250.266 84.8842 249.911 85.3509 249.65C85.8176 249.389 86.3309 249.258 86.8909 249.258C87.4509 249.258 87.8662 249.351 88.1369 249.538C88.4169 249.715 88.5242 249.93 88.4589 250.182C88.4309 250.313 88.3749 250.415 88.2909 250.49C88.2162 250.555 88.1276 250.597 88.0249 250.616C87.9222 250.635 87.8102 250.63 87.6889 250.602C87.0916 250.481 86.5549 250.471 86.0789 250.574C85.6029 250.677 85.2249 250.868 84.9449 251.148C84.6742 251.428 84.5389 251.783 84.5389 252.212H83.8249ZM83.8389 257C83.6149 257 83.4422 256.944 83.3209 256.832C83.1996 256.711 83.1389 256.533 83.1389 256.3V250.042C83.1389 249.818 83.1996 249.645 83.3209 249.524C83.4422 249.403 83.6149 249.342 83.8389 249.342C84.0722 249.342 84.2449 249.403 84.3569 249.524C84.4782 249.636 84.5389 249.809 84.5389 250.042V256.3C84.5389 256.524 84.4782 256.697 84.3569 256.818C84.2449 256.939 84.0722 257 83.8389 257Z" fill="white"/>
<rect x="1.1377" y="202" width="100" height="100" rx="16" stroke="#778DA9" stroke-width="2" stroke-linecap="round" stroke-linejoin="round"/>
<path d="M254.558 229C254.387 229 254.238 228.941 254.11 228.824C253.993 228.696 253.934 228.547 253.934 228.376V217.128C253.934 216.947 253.993 216.797 254.11 216.68C254.238 216.563 254.387 216.504 254.558 216.504C254.814 216.504 255.001 216.611 255.118 216.824L260.51 227.544H259.966L265.262 216.824C265.39 216.611 265.577 216.504 265.822 216.504C265.993 216.504 266.137 216.563 266.254 216.68C266.371 216.797 266.43 216.947 266.43 217.128V228.376C266.43 228.547 266.371 228.696 266.254 228.824C266.137 228.941 265.993 229 265.822 229C265.641 229 265.486 228.941 265.358 228.824C265.241 228.696 265.182 228.547 265.182 228.376V218.744L265.454 218.76L260.734 228.408C260.617 228.611 260.435 228.712 260.19 228.712C259.923 228.712 259.731 228.584 259.614 228.328L254.862 218.824L255.182 218.744V228.376C255.182 228.547 255.118 228.696 254.99 228.824C254.873 228.941 254.729 229 254.558 229ZM270.357 229C270.165 229 270.01 228.947 269.893 228.84C269.786 228.723 269.733 228.568 269.733 228.376V220.872C269.733 220.68 269.786 220.531 269.893 220.424C270.01 220.307 270.165 220.248 270.357 220.248C270.538 220.248 270.682 220.307 270.789 220.424C270.906 220.531 270.965 220.68 270.965 220.872V228.376C270.965 228.568 270.906 228.723 270.789 228.84C270.682 228.947 270.538 229 270.357 229ZM270.341 218.584C270.106 218.584 269.904 218.499 269.733 218.328C269.562 218.157 269.477 217.949 269.477 217.704C269.477 217.437 269.562 217.229 269.733 217.08C269.914 216.92 270.122 216.84 270.357 216.84C270.581 216.84 270.778 216.92 270.949 217.08C271.13 217.229 271.221 217.437 271.221 217.704C271.221 217.949 271.136 218.157 270.965 218.328C270.794 218.499 270.586 218.584 270.341 218.584ZM277.158 229.08C276.529 229.08 275.905 228.973 275.286 228.76C274.667 228.547 274.166 228.227 273.782 227.8C273.665 227.672 273.617 227.528 273.638 227.368C273.659 227.208 273.739 227.069 273.878 226.952C274.027 226.845 274.182 226.803 274.342 226.824C274.502 226.845 274.635 226.915 274.742 227.032C274.998 227.331 275.334 227.56 275.75 227.72C276.177 227.88 276.646 227.96 277.158 227.96C277.947 227.96 278.518 227.827 278.87 227.56C279.222 227.283 279.403 226.952 279.414 226.568C279.414 226.184 279.233 225.869 278.87 225.624C278.507 225.368 277.91 225.171 277.078 225.032C276.001 224.861 275.211 224.563 274.71 224.136C274.209 223.709 273.958 223.203 273.958 222.616C273.958 222.072 274.102 221.619 274.39 221.256C274.678 220.893 275.062 220.621 275.542 220.44C276.022 220.259 276.55 220.168 277.126 220.168C277.841 220.168 278.454 220.291 278.966 220.536C279.489 220.781 279.91 221.112 280.23 221.528C280.337 221.667 280.379 221.811 280.358 221.96C280.337 222.109 280.251 222.232 280.102 222.328C279.974 222.403 279.825 222.429 279.654 222.408C279.494 222.376 279.355 222.296 279.238 222.168C278.971 221.859 278.662 221.635 278.31 221.496C277.958 221.347 277.553 221.272 277.094 221.272C276.507 221.272 276.038 221.395 275.686 221.64C275.334 221.875 275.158 222.173 275.158 222.536C275.158 222.781 275.222 222.995 275.35 223.176C275.489 223.357 275.718 223.517 276.038 223.656C276.369 223.795 276.827 223.912 277.414 224.008C278.214 224.136 278.843 224.328 279.302 224.584C279.771 224.829 280.102 225.123 280.294 225.464C280.497 225.795 280.598 226.157 280.598 226.552C280.598 227.053 280.449 227.496 280.15 227.88C279.862 228.253 279.457 228.547 278.934 228.76C278.422 228.973 277.83 229.08 277.158 229.08ZM285.783 229.08C285.154 229.08 284.53 228.973 283.911 228.76C283.292 228.547 282.791 228.227 282.407 227.8C282.29 227.672 282.242 227.528 282.263 227.368C282.284 227.208 282.364 227.069 282.503 226.952C282.652 226.845 282.807 226.803 282.967 226.824C283.127 226.845 283.26 226.915 283.367 227.032C283.623 227.331 283.959 227.56 284.375 227.72C284.802 227.88 285.271 227.96 285.783 227.96C286.572 227.96 287.143 227.827 287.495 227.56C287.847 227.283 288.028 226.952 288.039 226.568C288.039 226.184 287.858 225.869 287.495 225.624C287.132 225.368 286.535 225.171 285.703 225.032C284.626 224.861 283.836 224.563 283.335 224.136C282.834 223.709 282.583 223.203 282.583 222.616C282.583 222.072 282.727 221.619 283.015 221.256C283.303 220.893 283.687 220.621 284.167 220.44C284.647 220.259 285.175 220.168 285.751 220.168C286.466 220.168 287.079 220.291 287.591 220.536C288.114 220.781 288.535 221.112 288.855 221.528C288.962 221.667 289.004 221.811 288.983 221.96C288.962 222.109 288.876 222.232 288.727 222.328C288.599 222.403 288.45 222.429 288.279 222.408C288.119 222.376 287.98 222.296 287.863 222.168C287.596 221.859 287.287 221.635 286.935 221.496C286.583 221.347 286.178 221.272 285.719 221.272C285.132 221.272 284.663 221.395 284.311 221.64C283.959 221.875 283.783 222.173 283.783 222.536C283.783 222.781 283.847 222.995 283.975 223.176C284.114 223.357 284.343 223.517 284.663 223.656C284.994 223.795 285.452 223.912 286.039 224.008C286.839 224.136 287.468 224.328 287.927 224.584C288.396 224.829 288.727 225.123 288.919 225.464C289.122 225.795 289.223 226.157 289.223 226.552C289.223 227.053 289.074 227.496 288.775 227.88C288.487 228.253 288.082 228.547 287.559 228.76C287.047 228.973 286.455 229.08 285.783 229.08ZM292.232 229C292.04 229 291.885 228.947 291.768 228.84C291.661 228.723 291.608 228.568 291.608 228.376V220.872C291.608 220.68 291.661 220.531 291.768 220.424C291.885 220.307 292.04 220.248 292.232 220.248C292.413 220.248 292.557 220.307 292.664 220.424C292.781 220.531 292.84 220.68 292.84 220.872V228.376C292.84 228.568 292.781 228.723 292.664 228.84C292.557 228.947 292.413 229 292.232 229ZM292.216 218.584C291.981 218.584 291.779 218.499 291.608 218.328C291.437 218.157 291.352 217.949 291.352 217.704C291.352 217.437 291.437 217.229 291.608 217.08C291.789 216.92 291.997 216.84 292.232 216.84C292.456 216.84 292.653 216.92 292.824 217.08C293.005 217.229 293.096 217.437 293.096 217.704C293.096 217.949 293.011 218.157 292.84 218.328C292.669 218.499 292.461 218.584 292.216 218.584ZM303.481 229C303.3 229 303.15 228.941 303.033 228.824C302.916 228.707 302.857 228.563 302.857 228.392V224.232C302.857 223.571 302.729 223.027 302.473 222.6C302.228 222.173 301.886 221.853 301.449 221.64C301.022 221.427 300.537 221.32 299.993 221.32C299.47 221.32 298.996 221.421 298.569 221.624C298.153 221.827 297.822 222.104 297.577 222.456C297.332 222.808 297.209 223.208 297.209 223.656H296.329C296.35 222.984 296.532 222.387 296.873 221.864C297.214 221.331 297.668 220.915 298.233 220.616C298.798 220.307 299.428 220.152 300.121 220.152C300.878 220.152 301.556 220.312 302.153 220.632C302.75 220.941 303.22 221.4 303.561 222.008C303.913 222.616 304.089 223.357 304.089 224.232V228.392C304.089 228.563 304.03 228.707 303.913 228.824C303.796 228.941 303.652 229 303.481 229ZM296.601 229C296.409 229 296.254 228.947 296.137 228.84C296.03 228.723 295.977 228.573 295.977 228.392V220.872C295.977 220.68 296.03 220.531 296.137 220.424C296.254 220.307 296.409 220.248 296.601 220.248C296.782 220.248 296.926 220.307 297.033 220.424C297.15 220.531 297.209 220.68 297.209 220.872V228.392C297.209 228.573 297.15 228.723 297.033 228.84C296.926 228.947 296.782 229 296.601 229ZM310.661 229.08C309.819 229.08 309.072 228.893 308.421 228.52C307.771 228.136 307.259 227.608 306.885 226.936C306.523 226.264 306.341 225.496 306.341 224.632C306.341 223.757 306.533 222.984 306.917 222.312C307.301 221.64 307.829 221.117 308.501 220.744C309.173 220.36 309.936 220.168 310.789 220.168C311.653 220.168 312.416 220.36 313.077 220.744C313.749 221.117 314.272 221.64 314.645 222.312C315.029 222.984 315.227 223.757 315.237 224.632L314.517 225.016C314.517 225.805 314.352 226.509 314.021 227.128C313.691 227.736 313.232 228.216 312.645 228.568C312.069 228.909 311.408 229.08 310.661 229.08ZM310.821 232.456C309.979 232.456 309.237 232.296 308.597 231.976C307.957 231.667 307.429 231.24 307.013 230.696C306.896 230.568 306.843 230.429 306.853 230.28C306.875 230.131 306.955 230.008 307.093 229.912C307.232 229.816 307.387 229.784 307.557 229.816C307.728 229.848 307.861 229.928 307.957 230.056C308.267 230.44 308.661 230.749 309.141 230.984C309.632 231.219 310.197 231.336 310.837 231.336C311.435 231.336 311.973 231.192 312.453 230.904C312.933 230.616 313.312 230.211 313.589 229.688C313.877 229.165 314.021 228.552 314.021 227.848V225.416L314.485 224.488L315.237 224.632V227.896C315.237 228.76 315.045 229.533 314.661 230.216C314.277 230.909 313.755 231.453 313.093 231.848C312.432 232.253 311.675 232.456 310.821 232.456ZM310.789 227.96C311.419 227.96 311.973 227.821 312.453 227.544C312.944 227.256 313.328 226.861 313.605 226.36C313.883 225.859 314.021 225.283 314.021 224.632C314.021 223.981 313.883 223.405 313.605 222.904C313.328 222.392 312.944 221.997 312.453 221.72C311.973 221.432 311.419 221.288 310.789 221.288C310.16 221.288 309.6 221.432 309.109 221.72C308.619 221.997 308.235 222.392 307.957 222.904C307.68 223.405 307.541 223.981 307.541 224.632C307.541 225.283 307.68 225.859 307.957 226.36C308.235 226.861 308.619 227.256 309.109 227.544C309.6 227.821 310.16 227.96 310.789 227.96Z" fill="#778DA9"/>
<rect x="232.264" y="199" width="104" height="50" rx="25" stroke="#778DA9" stroke-width="2" stroke-linecap="round" stroke-linejoin="round" stroke-dasharray="4 12"/>
<path d="M333.397 224H348.397C365.242 224 378.897 237.655 378.897 254.5V254.5C378.897 271.345 392.553 285 409.397 285H424.397" stroke="#778DA9" stroke-width="2" stroke-linecap="round" stroke-linejoin="round"/>
<circle cx="333.397" cy="224" r="2" transform="rotate(-180 333.397 224)" fill="#778DA9" stroke="#778DA9" stroke-width="2"/>
<path d="M419.397 291L425.397 285L419.397 279" stroke="#778DA9" stroke-width="2" stroke-linecap="round" stroke-linejoin="round"/>
<path d="M687.954 230V216C687.954 149.726 634.228 96 567.954 96H541.954" stroke="#778DA9" stroke-width="2" stroke-linecap="round" stroke-linejoin="round"/>
<circle cx="2" cy="2" r="2" transform="matrix(0 1 1 0 685.954 228)" fill="#778DA9" stroke="#778DA9" stroke-width="2"/>
<path d="M546.954 102L540.954 96L546.954 90" stroke="#778DA9" stroke-width="2" stroke-linecap="round" stroke-linejoin="round"/>
<path d="M713.954 230V188C713.954 121.726 660.228 68 593.954 68H539.954" stroke="#D99EA5" stroke-width="2" stroke-linecap="round" stroke-linejoin="round"/>
<circle cx="2" cy="2" r="2" transform="matrix(0 1 1 0 711.954 228)" fill="#D99EA5" stroke="#D99EA5" stroke-width="2"/>
<path d="M544.954 74L538.954 68L544.954 62" stroke="#D99EA5" stroke-width="2" stroke-linecap="round" stroke-linejoin="round"/>
<path d="M432.528 90H227.528" stroke="#778DA9" stroke-width="2" stroke-linecap="round" stroke-linejoin="round"/>
<circle cx="2" cy="2" r="2" transform="matrix(1 0 0 -1 430.528 92)" fill="#778DA9" stroke="#778DA9" stroke-width="2"/>
<path d="M232.528 96L226.528 90L232.528 84" stroke="#778DA9" stroke-width="2" stroke-linecap="round" stroke-linejoin="round"/>
<path d="M709.954 429V338" stroke="#778DA9" stroke-width="2" stroke-linecap="round" stroke-linejoin="round"/>
<circle cx="709.954" cy="429" r="2" transform="rotate(90 709.954 429)" fill="#778DA9" stroke="#778DA9" stroke-width="2"/>
<path d="M715.954 343L709.954 337L703.954 343" stroke="#778DA9" stroke-width="2" stroke-linecap="round" stroke-linejoin="round"/>
<path d="M532.954 295H640.954" stroke="#778DA9" stroke-width="2" stroke-linecap="round" stroke-linejoin="round"/>
<circle cx="532.954" cy="295" r="2" transform="rotate(-180 532.954 295)" fill="#778DA9" stroke="#778DA9" stroke-width="2"/>
<path d="M635.954 301L641.954 295L635.954 289" stroke="#778DA9" stroke-width="2" stroke-linecap="round" stroke-linejoin="round"/>
<path d="M649.097 269H541.097" stroke="#D99EA5" stroke-width="2" stroke-linecap="round" stroke-linejoin="round"/>
<circle cx="649.097" cy="269" r="2" fill="#D99EA5" stroke="#D99EA5" stroke-width="2"/>
<path d="M546.097 263L540.097 269L546.097 275" stroke="#D99EA5" stroke-width="2" stroke-linecap="round" stroke-linejoin="round"/>
<path d="M684.954 330V422" stroke="#D99EA5" stroke-width="2" stroke-linecap="round" stroke-linejoin="round"/>
<circle cx="684.954" cy="330" r="2" transform="rotate(-90 684.954 330)" fill="#D99EA5" stroke="#D99EA5" stroke-width="2"/>
<path d="M678.954 417L684.954 423L690.954 417" stroke="#D99EA5" stroke-width="2" stroke-linecap="round" stroke-linejoin="round"/>
<path d="M41 199.5V150.5C41 112.945 71.4446 82.5 109 82.5V82.5" stroke="url(#paint0_linear_94_3149)" stroke-width="2" stroke-linecap="round" stroke-linejoin="round"/>
<circle cx="41" cy="199.5" r="2" transform="rotate(90 41 199.5)" fill="url(#paint1_linear_94_3149)" stroke="url(#paint2_linear_94_3149)" stroke-width="2"/>
<path d="M104 88.5L110 82.5L104 76.5" stroke="url(#paint3_linear_94_3149)" stroke-width="2" stroke-linecap="round" stroke-linejoin="round"/>
<g clip-path="url(#clip0_94_3149)">
<rect x="8.8623" y="106" width="32" height="32" rx="16" fill="url(#paint4_linear_94_3149)"/>
</g>
<rect x="8.8623" y="106" width="32" height="32" rx="16" stroke="url(#paint5_linear_94_3149)" stroke-width="2" stroke-linecap="round" stroke-linejoin="round"/>
<path d="M26.2919 126.63H23.4288C22.877 126.63 22.3478 126.411 21.9577 126.021C21.5675 125.631 21.3483 125.102 21.3483 124.55C21.3483 124.353 21.2701 124.164 21.1307 124.025C20.9914 123.885 20.8024 123.807 20.6053 123.807C20.4083 123.807 20.2193 123.885 20.0799 124.025C19.9406 124.164 19.8623 124.353 19.8623 124.55C19.8623 125.018 19.9546 125.482 20.1338 125.915C20.313 126.348 20.5757 126.741 20.9069 127.072C21.2381 127.403 21.6312 127.666 22.0639 127.845C22.4967 128.024 22.9604 128.117 23.4288 128.117H24.1163V130.703C24.1163 130.9 24.1946 131.089 24.3339 131.229C24.4733 131.368 24.6623 131.446 24.8593 131.446C25.0564 131.446 25.2454 131.368 25.3847 131.229C25.5241 131.089 25.6023 130.9 25.6023 130.703V128.117H26.2958C27.2417 128.117 28.1489 127.741 28.8177 127.072C29.4866 126.403 29.8623 125.496 29.8623 124.55C29.8623 123.604 29.4866 122.697 28.8177 122.028C28.1489 121.359 27.2417 120.984 26.2958 120.984H23.4327C22.881 120.984 22.3518 120.764 21.9616 120.374C21.5715 119.984 21.3523 119.455 21.3523 118.903C21.3523 118.351 21.5715 117.822 21.9616 117.432C22.3518 117.042 22.881 116.823 23.4327 116.823H26.2958C26.569 116.823 26.8396 116.876 27.092 116.981C27.3444 117.086 27.5737 117.239 27.7669 117.432C27.9601 117.625 28.1134 117.855 28.2179 118.107C28.3225 118.359 28.3763 118.63 28.3763 118.903C28.3763 119.1 28.4546 119.289 28.5939 119.429C28.7332 119.568 28.9222 119.646 29.1193 119.646C29.3163 119.646 29.5053 119.568 29.6447 119.429C29.784 119.289 29.8623 119.1 29.8623 118.903C29.8623 117.957 29.4866 117.05 28.8177 116.381C28.1489 115.712 27.2417 115.337 26.2958 115.337H25.6023V112.743C25.6023 112.546 25.5241 112.357 25.3847 112.218C25.2454 112.078 25.0564 112 24.8593 112C24.6623 112 24.4733 112.078 24.3339 112.218C24.1946 112.357 24.1163 112.546 24.1163 112.743V115.33H23.4288C22.4829 115.33 21.5757 115.705 20.9069 116.374C20.2381 117.043 19.8623 117.95 19.8623 118.896C19.8623 119.842 20.2381 120.749 20.9069 121.418C21.5757 122.087 22.4829 122.463 23.4288 122.463H26.2919C26.8436 122.463 27.3728 122.682 27.763 123.072C28.1531 123.462 28.3723 123.991 28.3723 124.543C28.3723 125.095 28.1531 125.624 27.763 126.014C27.3728 126.404 26.8436 126.624 26.2919 126.624V126.63Z" fill="white"/>
<g clip-path="url(#clip1_94_3149)">
<rect x="589.862" y="230" width="32" height="32" rx="16" fill="url(#paint6_linear_94_3149)"/>
</g>
<rect x="589.862" y="230" width="32" height="32" rx="16" stroke="url(#paint7_linear_94_3149)" stroke-width="2" stroke-linecap="round" stroke-linejoin="round"/>
<path d="M607.292 250.63H604.429C603.877 250.63 603.348 250.411 602.958 250.021C602.568 249.631 602.348 249.102 602.348 248.55C602.348 248.353 602.27 248.164 602.131 248.025C601.991 247.885 601.802 247.807 601.605 247.807C601.408 247.807 601.219 247.885 601.08 248.025C600.941 248.164 600.862 248.353 600.862 248.55C600.862 249.018 600.955 249.482 601.134 249.915C601.313 250.348 601.576 250.741 601.907 251.072C602.238 251.403 602.631 251.666 603.064 251.845C603.497 252.024 603.96 252.117 604.429 252.117H605.116V254.703C605.116 254.9 605.195 255.089 605.334 255.229C605.473 255.368 605.662 255.446 605.859 255.446C606.056 255.446 606.245 255.368 606.385 255.229C606.524 255.089 606.602 254.9 606.602 254.703V252.117H607.296C608.242 252.117 609.149 251.741 609.818 251.072C610.487 250.403 610.862 249.496 610.862 248.55C610.862 247.604 610.487 246.697 609.818 246.028C609.149 245.359 608.242 244.984 607.296 244.984H604.433C603.881 244.984 603.352 244.764 602.962 244.374C602.571 243.984 602.352 243.455 602.352 242.903C602.352 242.351 602.571 241.822 602.962 241.432C603.352 241.042 603.881 240.823 604.433 240.823H607.296C607.569 240.823 607.84 240.876 608.092 240.981C608.344 241.086 608.574 241.239 608.767 241.432C608.96 241.625 609.113 241.855 609.218 242.107C609.322 242.359 609.376 242.63 609.376 242.903C609.376 243.1 609.455 243.289 609.594 243.429C609.733 243.568 609.922 243.646 610.119 243.646C610.316 243.646 610.505 243.568 610.645 243.429C610.784 243.289 610.862 243.1 610.862 242.903C610.862 241.957 610.487 241.05 609.818 240.381C609.149 239.712 608.242 239.337 607.296 239.337H606.602V236.743C606.602 236.546 606.524 236.357 606.385 236.218C606.245 236.078 606.056 236 605.859 236C605.662 236 605.473 236.078 605.334 236.218C605.195 236.357 605.116 236.546 605.116 236.743V239.33H604.429C603.483 239.33 602.576 239.705 601.907 240.374C601.238 241.043 600.862 241.95 600.862 242.896C600.862 243.842 601.238 244.749 601.907 245.418C602.576 246.087 603.483 246.463 604.429 246.463H607.292C607.844 246.463 608.373 246.682 608.763 247.072C609.153 247.462 609.372 247.991 609.372 248.543C609.372 249.095 609.153 249.624 608.763 250.014C608.373 250.404 607.844 250.624 607.292 250.624V250.63Z" fill="white"/>
<g clip-path="url(#clip2_94_3149)">
<rect x="698.862" y="82" width="32" height="32" rx="16" fill="url(#paint8_linear_94_3149)"/>
</g>
<rect x="698.862" y="82" width="32" height="32" rx="16" stroke="url(#paint9_linear_94_3149)" stroke-width="2" stroke-linecap="round" stroke-linejoin="round"/>
<path d="M716.292 102.63H713.429C712.877 102.63 712.348 102.411 711.958 102.021C711.568 101.631 711.348 101.102 711.348 100.55C711.348 100.353 711.27 100.164 711.131 100.025C710.991 99.8853 710.802 99.807 710.605 99.807C710.408 99.807 710.219 99.8853 710.08 100.025C709.941 100.164 709.862 100.353 709.862 100.55C709.862 101.018 709.955 101.482 710.134 101.915C710.313 102.348 710.576 102.741 710.907 103.072C711.238 103.403 711.631 103.666 712.064 103.845C712.497 104.024 712.96 104.117 713.429 104.117H714.116V106.703C714.116 106.9 714.195 107.089 714.334 107.229C714.473 107.368 714.662 107.446 714.859 107.446C715.056 107.446 715.245 107.368 715.385 107.229C715.524 107.089 715.602 106.9 715.602 106.703V104.117H716.296C717.242 104.117 718.149 103.741 718.818 103.072C719.487 102.403 719.862 101.496 719.862 100.55C719.862 99.6041 719.487 98.697 718.818 98.0282C718.149 97.3593 717.242 96.9836 716.296 96.9836H713.433C712.881 96.9836 712.352 96.7644 711.962 96.3742C711.571 95.984 711.352 95.4549 711.352 94.9031C711.352 94.3513 711.571 93.8222 711.962 93.432C712.352 93.0419 712.881 92.8227 713.433 92.8227H716.296C716.569 92.8227 716.84 92.8765 717.092 92.981C717.344 93.0856 717.574 93.2388 717.767 93.432C717.96 93.6252 718.113 93.8545 718.218 94.107C718.322 94.3594 718.376 94.6299 718.376 94.9031C718.376 95.1002 718.455 95.2892 718.594 95.4285C718.733 95.5678 718.922 95.6461 719.119 95.6461C719.316 95.6461 719.505 95.5678 719.645 95.4285C719.784 95.2892 719.862 95.1002 719.862 94.9031C719.862 93.9572 719.487 93.0501 718.818 92.3812C718.149 91.7124 717.242 91.3366 716.296 91.3366H715.602V88.743C715.602 88.546 715.524 88.357 715.385 88.2176C715.245 88.0783 715.056 88 714.859 88C714.662 88 714.473 88.0783 714.334 88.2176C714.195 88.357 714.116 88.546 714.116 88.743V91.3297H713.429C712.483 91.3297 711.576 91.7055 710.907 92.3743C710.238 93.0431 709.862 93.9503 709.862 94.8962C709.862 95.8421 710.238 96.7492 710.907 97.4181C711.576 98.0869 712.483 98.4627 713.429 98.4627H716.292C716.844 98.4627 717.373 98.6818 717.763 99.072C718.153 99.4622 718.372 99.9913 718.372 100.543C718.372 101.095 718.153 101.624 717.763 102.014C717.373 102.404 716.844 102.624 716.292 102.624V102.63Z" fill="white"/>
<g clip-path="url(#clip3_94_3149)">
<rect x="654.862" y="360" width="32" height="32" rx="16" fill="url(#paint10_linear_94_3149)"/>
</g>
<rect x="654.862" y="360" width="32" height="32" rx="16" stroke="url(#paint11_linear_94_3149)" stroke-width="2" stroke-linecap="round" stroke-linejoin="round"/>
<path d="M672.292 380.63H669.429C668.877 380.63 668.348 380.411 667.958 380.021C667.568 379.631 667.348 379.102 667.348 378.55C667.348 378.353 667.27 378.164 667.131 378.025C666.991 377.885 666.802 377.807 666.605 377.807C666.408 377.807 666.219 377.885 666.08 378.025C665.941 378.164 665.862 378.353 665.862 378.55C665.862 379.018 665.955 379.482 666.134 379.915C666.313 380.348 666.576 380.741 666.907 381.072C667.238 381.403 667.631 381.666 668.064 381.845C668.497 382.024 668.96 382.117 669.429 382.117H670.116V384.703C670.116 384.9 670.195 385.089 670.334 385.229C670.473 385.368 670.662 385.446 670.859 385.446C671.056 385.446 671.245 385.368 671.385 385.229C671.524 385.089 671.602 384.9 671.602 384.703V382.117H672.296C673.242 382.117 674.149 381.741 674.818 381.072C675.487 380.403 675.862 379.496 675.862 378.55C675.862 377.604 675.487 376.697 674.818 376.028C674.149 375.359 673.242 374.984 672.296 374.984H669.433C668.881 374.984 668.352 374.764 667.962 374.374C667.571 373.984 667.352 373.455 667.352 372.903C667.352 372.351 667.571 371.822 667.962 371.432C668.352 371.042 668.881 370.823 669.433 370.823H672.296C672.569 370.823 672.84 370.876 673.092 370.981C673.344 371.086 673.574 371.239 673.767 371.432C673.96 371.625 674.113 371.855 674.218 372.107C674.322 372.359 674.376 372.63 674.376 372.903C674.376 373.1 674.455 373.289 674.594 373.429C674.733 373.568 674.922 373.646 675.119 373.646C675.316 373.646 675.505 373.568 675.645 373.429C675.784 373.289 675.862 373.1 675.862 372.903C675.862 371.957 675.487 371.05 674.818 370.381C674.149 369.712 673.242 369.337 672.296 369.337H671.602V366.743C671.602 366.546 671.524 366.357 671.385 366.218C671.245 366.078 671.056 366 670.859 366C670.662 366 670.473 366.078 670.334 366.218C670.195 366.357 670.116 366.546 670.116 366.743V369.33H669.429C668.483 369.33 667.576 369.705 666.907 370.374C666.238 371.043 665.862 371.95 665.862 372.896C665.862 373.842 666.238 374.749 666.907 375.418C667.576 376.087 668.483 376.463 669.429 376.463H672.292C672.844 376.463 673.373 376.682 673.763 377.072C674.153 377.462 674.372 377.991 674.372 378.543C674.372 379.095 674.153 379.624 673.763 380.014C673.373 380.404 672.844 380.624 672.292 380.624V380.63Z" fill="white"/>
<defs>
<linearGradient id="paint0_linear_94_3149" x1="74.5876" y1="213.203" x2="74.7608" y2="28.1383" gradientUnits="userSpaceOnUse">
<stop stop-color="#D99EA5"/>
</linearGradient>
<linearGradient id="paint1_linear_94_3149" x1="38.5315" y1="199.476" x2="44.8585" y2="199.479" gradientUnits="userSpaceOnUse">
<stop stop-color="#D99EA5"/>
</linearGradient>
<linearGradient id="paint2_linear_94_3149" x1="38.5315" y1="199.476" x2="44.8585" y2="199.479" gradientUnits="userSpaceOnUse">
<stop stop-color="#D99EA5"/>
</linearGradient>
<linearGradient id="paint3_linear_94_3149" x1="103.297" y1="82.4272" x2="112.788" y2="82.4298" gradientUnits="userSpaceOnUse">
<stop stop-color="#D99EA5"/>
</linearGradient>
<linearGradient id="paint4_linear_94_3149" x1="5.11456" y1="121.806" x2="55.7305" y2="121.833" gradientUnits="userSpaceOnUse">
<stop stop-color="#D99EA5"/>
</linearGradient>
<linearGradient id="paint5_linear_94_3149" x1="5.11456" y1="121.806" x2="55.7305" y2="121.833" gradientUnits="userSpaceOnUse">
<stop stop-color="#D99EA5"/>
</linearGradient>
<linearGradient id="paint6_linear_94_3149" x1="586.115" y1="245.806" x2="636.73" y2="245.833" gradientUnits="userSpaceOnUse">
<stop stop-color="#D99EA5"/>
</linearGradient>
<linearGradient id="paint7_linear_94_3149" x1="586.115" y1="245.806" x2="636.73" y2="245.833" gradientUnits="userSpaceOnUse">
<stop stop-color="#D99EA5"/>
</linearGradient>
<linearGradient id="paint8_linear_94_3149" x1="695.115" y1="97.8059" x2="745.73" y2="97.8334" gradientUnits="userSpaceOnUse">
<stop stop-color="#D99EA5"/>
</linearGradient>
<linearGradient id="paint9_linear_94_3149" x1="695.115" y1="97.8059" x2="745.73" y2="97.8334" gradientUnits="userSpaceOnUse">
<stop stop-color="#D99EA5"/>
</linearGradient>
<linearGradient id="paint10_linear_94_3149" x1="651.115" y1="375.806" x2="701.73" y2="375.833" gradientUnits="userSpaceOnUse">
<stop stop-color="#D99EA5"/>
</linearGradient>
<linearGradient id="paint11_linear_94_3149" x1="651.115" y1="375.806" x2="701.73" y2="375.833" gradientUnits="userSpaceOnUse">
<stop stop-color="#D99EA5"/>
</linearGradient>
<clipPath id="clip0_94_3149">
<rect x="8.8623" y="106" width="32" height="32" rx="16" fill="white"/>
</clipPath>
<clipPath id="clip1_94_3149">
<rect x="589.862" y="230" width="32" height="32" rx="16" fill="white"/>
</clipPath>
<clipPath id="clip2_94_3149">
<rect x="698.862" y="82" width="32" height="32" rx="16" fill="white"/>
</clipPath>
<clipPath id="clip3_94_3149">
<rect x="654.862" y="360" width="32" height="32" rx="16" fill="white"/>
</clipPath>
</defs>
</svg>
