<svg viewBox="0 0 1193 580" fill="none" xmlns="http://www.w3.org/2000/svg">
<g clip-path="url(#clip0_227_529)">
<path d="M610.39 313.169H702.99V128.063L782.873 128.032" stroke="black" stroke-width="2" stroke-miterlimit="10"/>
<path d="M792.134 128.032L779.803 134.202L782.874 128.032L779.787 121.862L792.134 128.032Z" fill="black" stroke="black" stroke-width="2" stroke-miterlimit="10"/>
<path d="M610.39 313.138H782.873" stroke="black" stroke-width="2" stroke-miterlimit="10"/>
<path d="M792.134 313.138L779.787 319.308L782.874 313.138L779.787 306.968L792.134 313.138Z" fill="black" stroke="black" stroke-width="2" stroke-miterlimit="10"/>
<path d="M610.39 313.169H702.99V482.85L782.873 482.819" stroke="black" stroke-width="2" stroke-miterlimit="10"/>
<path d="M792.134 482.819L779.803 488.989L782.874 482.819L779.787 476.649L792.134 482.819Z" fill="black" stroke="black" stroke-width="2" stroke-miterlimit="10"/>
<path d="M471.489 228.298C471.489 215.526 502.588 205.16 540.939 205.16C559.351 205.16 577.023 207.597 590.048 211.931C603.074 216.281 610.39 222.158 610.39 228.298V397.979C610.39 410.751 579.291 421.117 540.939 421.117C502.588 421.117 471.489 410.751 471.489 397.979V228.298Z" fill="#FDD08C" stroke="#D79B00" stroke-width="2" stroke-miterlimit="10"/>
<path d="M610.39 228.298C610.39 241.07 579.291 251.436 540.939 251.436C502.588 251.436 471.489 241.07 471.489 228.298" stroke="#D79B00" stroke-width="2" stroke-miterlimit="10"/>
<path d="M522.128 312.136H523.502V316.286H528.724V312.136H530.098V322.178H528.724V317.482H523.502V322.178H522.128V312.136ZM532.99 320.23C532.99 320.586 533.12 320.866 533.379 321.071C533.639 321.276 533.947 321.379 534.302 321.379C534.735 321.379 535.155 321.278 535.56 321.078C536.244 320.745 536.586 320.2 536.586 319.444V318.453C536.435 318.548 536.241 318.628 536.004 318.692C535.768 318.756 535.535 318.801 535.307 318.829L534.562 318.924C534.115 318.984 533.781 319.077 533.557 319.205C533.179 319.419 532.99 319.761 532.99 320.23ZM535.97 317.742C536.253 317.705 536.442 317.587 536.538 317.386C536.592 317.277 536.62 317.12 536.62 316.915C536.62 316.495 536.469 316.192 536.169 316.005C535.872 315.814 535.446 315.718 534.89 315.718C534.248 315.718 533.792 315.892 533.523 316.238C533.373 316.429 533.275 316.714 533.229 317.092H532.081C532.103 316.19 532.395 315.563 532.956 315.213C533.521 314.857 534.175 314.679 534.918 314.679C535.779 314.679 536.478 314.843 537.016 315.172C537.549 315.5 537.816 316.01 537.816 316.703V320.921C537.816 321.048 537.841 321.151 537.891 321.228C537.946 321.306 538.058 321.344 538.226 321.344C538.281 321.344 538.342 321.342 538.411 321.338C538.479 321.328 538.552 321.317 538.629 321.303V322.213C538.438 322.267 538.292 322.301 538.192 322.315C538.092 322.329 537.955 322.336 537.782 322.336C537.358 322.336 537.05 322.185 536.859 321.884C536.759 321.725 536.688 321.499 536.647 321.208C536.396 321.536 536.036 321.821 535.567 322.062C535.098 322.304 534.58 322.424 534.015 322.424C533.336 322.424 532.78 322.219 532.347 321.809C531.919 321.394 531.705 320.877 531.705 320.257C531.705 319.578 531.917 319.052 532.34 318.678C532.764 318.305 533.32 318.075 534.008 317.988L535.97 317.742ZM540.619 318.603C540.619 319.387 540.785 320.043 541.118 320.572C541.45 321.101 541.984 321.365 542.717 321.365C543.287 321.365 543.754 321.121 544.119 320.633C544.488 320.141 544.672 319.437 544.672 318.521C544.672 317.596 544.483 316.912 544.105 316.47C543.727 316.024 543.26 315.8 542.704 315.8C542.084 315.8 541.58 316.037 541.193 316.511C540.81 316.985 540.619 317.683 540.619 318.603ZM542.471 314.727C543.032 314.727 543.501 314.846 543.879 315.083C544.098 315.219 544.347 315.459 544.625 315.8V312.102H545.807V322.178H544.7V321.16C544.413 321.611 544.073 321.937 543.681 322.137C543.289 322.338 542.84 322.438 542.335 322.438C541.519 322.438 540.812 322.096 540.215 321.413C539.618 320.725 539.32 319.811 539.32 318.672C539.32 317.605 539.591 316.682 540.133 315.903C540.68 315.119 541.46 314.727 542.471 314.727ZM548.576 320.23C548.576 320.586 548.706 320.866 548.965 321.071C549.225 321.276 549.533 321.379 549.888 321.379C550.321 321.379 550.74 321.278 551.146 321.078C551.83 320.745 552.171 320.2 552.171 319.444V318.453C552.021 318.548 551.827 318.628 551.59 318.692C551.353 318.756 551.121 318.801 550.893 318.829L550.148 318.924C549.701 318.984 549.366 319.077 549.143 319.205C548.765 319.419 548.576 319.761 548.576 320.23ZM551.556 317.742C551.839 317.705 552.028 317.587 552.124 317.386C552.178 317.277 552.206 317.12 552.206 316.915C552.206 316.495 552.055 316.192 551.754 316.005C551.458 315.814 551.032 315.718 550.476 315.718C549.834 315.718 549.378 315.892 549.109 316.238C548.959 316.429 548.861 316.714 548.815 317.092H547.667C547.689 316.19 547.981 315.563 548.542 315.213C549.107 314.857 549.761 314.679 550.504 314.679C551.365 314.679 552.064 314.843 552.602 315.172C553.135 315.5 553.402 316.01 553.402 316.703V320.921C553.402 321.048 553.427 321.151 553.477 321.228C553.532 321.306 553.643 321.344 553.812 321.344C553.867 321.344 553.928 321.342 553.997 321.338C554.065 321.328 554.138 321.317 554.215 321.303V322.213C554.024 322.267 553.878 322.301 553.778 322.315C553.678 322.329 553.541 322.336 553.368 322.336C552.944 322.336 552.636 322.185 552.445 321.884C552.345 321.725 552.274 321.499 552.233 321.208C551.982 321.536 551.622 321.821 551.153 322.062C550.684 322.304 550.166 322.424 549.601 322.424C548.922 322.424 548.366 322.219 547.933 321.809C547.505 321.394 547.291 320.877 547.291 320.257C547.291 319.578 547.503 319.052 547.926 318.678C548.35 318.305 548.906 318.075 549.594 317.988L551.556 317.742ZM555.46 314.857H556.629V316.122C556.724 315.876 556.959 315.577 557.333 315.226C557.706 314.871 558.137 314.693 558.625 314.693C558.647 314.693 558.686 314.695 558.741 314.7C558.796 314.704 558.889 314.714 559.021 314.727V316.026C558.948 316.012 558.88 316.003 558.816 315.999C558.757 315.994 558.691 315.992 558.618 315.992C557.998 315.992 557.522 316.192 557.189 316.593C556.856 316.99 556.69 317.448 556.69 317.967V322.178H555.46V314.857ZM520.883 337.016C521.344 337.016 521.722 336.968 522.018 336.873C522.547 336.695 522.98 336.353 523.317 335.847C523.586 335.442 523.78 334.922 523.898 334.289C523.966 333.91 524.001 333.56 524.001 333.236C524.001 331.992 523.752 331.026 523.255 330.338C522.763 329.649 521.968 329.305 520.87 329.305H518.457V337.016H520.883ZM517.089 328.136H521.157C522.538 328.136 523.609 328.626 524.37 329.606C525.049 330.49 525.388 331.623 525.388 333.004C525.388 334.07 525.188 335.034 524.787 335.895C524.08 337.417 522.866 338.178 521.143 338.178H517.089V328.136ZM527.924 336.23C527.924 336.586 528.054 336.866 528.314 337.071C528.574 337.276 528.881 337.379 529.237 337.379C529.67 337.379 530.089 337.278 530.495 337.078C531.178 336.745 531.52 336.2 531.52 335.444V334.453C531.37 334.548 531.176 334.628 530.939 334.692C530.702 334.756 530.47 334.801 530.242 334.829L529.497 334.924C529.05 334.984 528.715 335.077 528.492 335.205C528.114 335.419 527.924 335.761 527.924 336.23ZM530.905 333.742C531.187 333.705 531.377 333.587 531.472 333.386C531.527 333.277 531.554 333.12 531.554 332.915C531.554 332.495 531.404 332.192 531.103 332.005C530.807 331.814 530.381 331.718 529.825 331.718C529.182 331.718 528.726 331.892 528.458 332.238C528.307 332.429 528.209 332.714 528.164 333.092H527.015C527.038 332.19 527.33 331.563 527.89 331.213C528.455 330.857 529.109 330.679 529.852 330.679C530.713 330.679 531.413 330.843 531.951 331.172C532.484 331.5 532.751 332.01 532.751 332.703V336.921C532.751 337.048 532.776 337.151 532.826 337.228C532.88 337.306 532.992 337.344 533.161 337.344C533.215 337.344 533.277 337.342 533.345 337.338C533.414 337.328 533.487 337.317 533.564 337.303V338.213C533.373 338.267 533.227 338.301 533.127 338.315C533.026 338.329 532.89 338.336 532.716 338.336C532.293 338.336 531.985 338.185 531.794 337.884C531.693 337.725 531.623 337.499 531.582 337.208C531.331 337.536 530.971 337.821 530.502 338.062C530.032 338.304 529.515 338.424 528.95 338.424C528.271 338.424 527.715 338.219 527.282 337.809C526.853 337.394 526.639 336.877 526.639 336.257C526.639 335.578 526.851 335.052 527.275 334.678C527.699 334.305 528.255 334.075 528.943 333.988L530.905 333.742ZM535.02 328.813H536.264V330.857H537.433V331.862H536.264V336.64C536.264 336.895 536.351 337.066 536.524 337.153C536.62 337.203 536.779 337.228 537.003 337.228C537.062 337.228 537.126 337.228 537.194 337.228C537.262 337.224 537.342 337.217 537.433 337.208V338.178C537.292 338.219 537.144 338.249 536.989 338.267C536.838 338.285 536.674 338.295 536.497 338.295C535.922 338.295 535.533 338.149 535.328 337.857C535.123 337.561 535.02 337.178 535.02 336.709V331.862H534.029V330.857H535.02V328.813ZM539.614 336.23C539.614 336.586 539.744 336.866 540.004 337.071C540.263 337.276 540.571 337.379 540.926 337.379C541.359 337.379 541.779 337.278 542.184 337.078C542.868 336.745 543.21 336.2 543.21 335.444V334.453C543.059 334.548 542.865 334.628 542.629 334.692C542.392 334.756 542.159 334.801 541.931 334.829L541.186 334.924C540.74 334.984 540.405 335.077 540.181 335.205C539.803 335.419 539.614 335.761 539.614 336.23ZM542.594 333.742C542.877 333.705 543.066 333.587 543.162 333.386C543.216 333.277 543.244 333.12 543.244 332.915C543.244 332.495 543.093 332.192 542.793 332.005C542.496 331.814 542.07 331.718 541.514 331.718C540.872 331.718 540.416 331.892 540.147 332.238C539.997 332.429 539.899 332.714 539.853 333.092H538.705C538.727 332.19 539.019 331.563 539.58 331.213C540.145 330.857 540.799 330.679 541.542 330.679C542.403 330.679 543.102 330.843 543.64 331.172C544.173 331.5 544.44 332.01 544.44 332.703V336.921C544.44 337.048 544.465 337.151 544.515 337.228C544.57 337.306 544.682 337.344 544.85 337.344C544.905 337.344 544.966 337.342 545.035 337.338C545.103 337.328 545.176 337.317 545.254 337.303V338.213C545.062 338.267 544.916 338.301 544.816 338.315C544.716 338.329 544.579 338.336 544.406 338.336C543.982 338.336 543.674 338.185 543.483 337.884C543.383 337.725 543.312 337.499 543.271 337.208C543.02 337.536 542.66 337.821 542.191 338.062C541.722 338.304 541.204 338.424 540.639 338.424C539.96 338.424 539.404 338.219 538.971 337.809C538.543 337.394 538.329 336.877 538.329 336.257C538.329 335.578 538.541 335.052 538.964 334.678C539.388 334.305 539.944 334.075 540.632 333.988L542.594 333.742ZM547.195 335.881C547.231 336.292 547.334 336.606 547.503 336.825C547.812 337.221 548.35 337.42 549.116 337.42C549.572 337.42 549.973 337.322 550.319 337.126C550.665 336.925 550.838 336.617 550.838 336.203C550.838 335.888 550.699 335.649 550.421 335.485C550.244 335.385 549.893 335.269 549.369 335.136L548.391 334.89C547.767 334.735 547.307 334.562 547.01 334.371C546.482 334.038 546.217 333.578 546.217 332.99C546.217 332.297 546.466 331.737 546.962 331.308C547.464 330.88 548.136 330.666 548.979 330.666C550.082 330.666 550.877 330.989 551.365 331.636C551.67 332.047 551.818 332.489 551.809 332.963H550.647C550.624 332.685 550.526 332.432 550.353 332.204C550.071 331.88 549.581 331.718 548.883 331.718C548.419 331.718 548.065 331.807 547.824 331.985C547.587 332.163 547.468 332.397 547.468 332.689C547.468 333.008 547.626 333.263 547.94 333.455C548.122 333.569 548.391 333.669 548.747 333.755L549.56 333.954C550.444 334.168 551.037 334.375 551.337 334.576C551.816 334.89 552.055 335.385 552.055 336.059C552.055 336.711 551.807 337.274 551.31 337.748C550.818 338.222 550.066 338.459 549.054 338.459C547.965 338.459 547.193 338.213 546.737 337.72C546.286 337.224 546.044 336.611 546.012 335.881H547.195ZM556.512 330.693C557.032 330.693 557.535 330.816 558.023 331.062C558.511 331.304 558.882 331.618 559.137 332.005C559.383 332.375 559.547 332.805 559.629 333.297C559.702 333.635 559.739 334.172 559.739 334.911H554.373C554.395 335.654 554.571 336.251 554.899 336.702C555.227 337.148 555.735 337.372 556.423 337.372C557.066 337.372 557.579 337.16 557.962 336.736C558.18 336.49 558.335 336.205 558.426 335.881H559.636C559.604 336.15 559.497 336.451 559.315 336.784C559.137 337.112 558.937 337.381 558.713 337.59C558.34 337.955 557.877 338.201 557.326 338.329C557.03 338.402 556.695 338.438 556.321 338.438C555.409 338.438 554.637 338.108 554.004 337.447C553.37 336.782 553.053 335.852 553.053 334.658C553.053 333.482 553.372 332.527 554.01 331.794C554.648 331.06 555.482 330.693 556.512 330.693ZM558.474 333.933C558.424 333.4 558.308 332.974 558.126 332.655C557.788 332.062 557.226 331.766 556.437 331.766C555.872 331.766 555.398 331.971 555.015 332.381C554.632 332.787 554.43 333.304 554.407 333.933H558.474ZM561.503 328.813H562.747V330.857H563.916V331.862H562.747V336.64C562.747 336.895 562.833 337.066 563.006 337.153C563.102 337.203 563.262 337.228 563.485 337.228C563.544 337.228 563.608 337.228 563.676 337.228C563.745 337.224 563.824 337.217 563.916 337.208V338.178C563.774 338.219 563.626 338.249 563.471 338.267C563.321 338.285 563.157 338.295 562.979 338.295C562.405 338.295 562.015 338.149 561.81 337.857C561.605 337.561 561.503 337.178 561.503 336.709V331.862H560.511V330.857H561.503V328.813Z" fill="black"/>
<path d="M101.089 151.139H255.423V207.874" stroke="black" stroke-width="2" stroke-miterlimit="10"/>
<path d="M255.422 217.13L249.249 204.789L255.422 207.874L261.596 204.789L255.422 217.13Z" fill="black" stroke="black" stroke-width="2" stroke-miterlimit="10"/>
<path d="M77.9383 131.888C84.331 131.888 89.5133 127.572 89.5133 122.247C89.5133 116.923 84.331 112.606 77.9383 112.606C71.5456 112.606 66.3633 116.923 66.3633 122.247C66.3633 127.572 71.5456 131.888 77.9383 131.888Z" stroke="black" stroke-width="2"/>
<path d="M77.9381 131.888V164.02M77.9381 164.02L54.7881 189.734M77.9381 164.02L101.088 189.734M54.7881 138.321H77.9381H101.088" stroke="black" stroke-width="2" stroke-miterlimit="10"/>
<path d="M378.89 74.0117H540.986V192.449" stroke="black" stroke-width="2" stroke-miterlimit="10"/>
<path d="M540.986 201.704L534.812 189.364L540.986 192.449L547.159 189.364L540.986 201.704Z" fill="black" stroke="black" stroke-width="2" stroke-miterlimit="10"/>
<path d="M355.739 54.7606C362.132 54.7606 367.314 50.4442 367.314 45.1197C367.314 39.7951 362.132 35.4787 355.739 35.4787C349.346 35.4787 344.164 39.7951 344.164 45.1197C344.164 50.4442 349.346 54.7606 355.739 54.7606Z" stroke="black" stroke-width="2"/>
<path d="M355.739 54.7606V86.892M355.739 86.892L332.589 112.606M355.739 86.892L378.889 112.606M332.589 61.1931H355.739H378.889" stroke="black" stroke-width="2" stroke-miterlimit="10"/>
<path d="M348.022 266.893H409.756V313.169H458.772" stroke="black" stroke-width="2" stroke-miterlimit="10"/>
<path d="M468.032 313.169L455.686 319.339L458.772 313.169L455.686 306.999L468.032 313.169Z" fill="black" stroke="black" stroke-width="2" stroke-miterlimit="10"/>
<path d="M334.133 220.585H176.712C169.041 220.585 162.822 226.801 162.822 234.468V299.255C162.822 306.923 169.041 313.138 176.712 313.138H334.133C341.804 313.138 348.023 306.923 348.023 299.255V234.468C348.023 226.801 341.804 220.585 334.133 220.585Z" stroke="#333333" stroke-width="2"/>
<path d="M234.649 255.779H240.924V256.834H235.786V259.447H240.538V260.443H235.786V263.361H241.012V264.387H234.649V255.779ZM241.803 258.111H243.169L244.61 260.32L246.069 258.111L247.352 258.141L245.237 261.17L247.446 264.387H246.098L244.54 262.031L243.028 264.387H241.692L243.901 261.17L241.803 258.111ZM248.401 258.141H249.473V264.387H248.401V258.141ZM248.401 255.779H249.473V256.975H248.401V255.779ZM251.7 262.418C251.731 262.77 251.819 263.039 251.963 263.227C252.229 263.566 252.69 263.736 253.346 263.736C253.737 263.736 254.081 263.652 254.378 263.484C254.674 263.312 254.823 263.049 254.823 262.693C254.823 262.424 254.704 262.219 254.465 262.078C254.313 261.992 254.012 261.893 253.563 261.779L252.725 261.568C252.19 261.436 251.796 261.287 251.542 261.123C251.088 260.838 250.862 260.443 250.862 259.939C250.862 259.346 251.075 258.865 251.501 258.498C251.93 258.131 252.506 257.947 253.229 257.947C254.174 257.947 254.856 258.225 255.274 258.779C255.536 259.131 255.663 259.51 255.655 259.916H254.659C254.639 259.678 254.555 259.461 254.407 259.266C254.165 258.988 253.745 258.85 253.147 258.85C252.749 258.85 252.446 258.926 252.239 259.078C252.036 259.23 251.934 259.432 251.934 259.682C251.934 259.955 252.069 260.174 252.338 260.338C252.495 260.436 252.725 260.521 253.03 260.596L253.727 260.766C254.485 260.949 254.993 261.127 255.251 261.299C255.661 261.568 255.866 261.992 255.866 262.57C255.866 263.129 255.653 263.611 255.227 264.018C254.805 264.424 254.161 264.627 253.294 264.627C252.36 264.627 251.698 264.416 251.307 263.994C250.921 263.568 250.713 263.043 250.686 262.418H251.7ZM257.284 256.359H258.35V258.111H259.352V258.973H258.35V263.068C258.35 263.287 258.424 263.434 258.573 263.508C258.655 263.551 258.792 263.572 258.983 263.572C259.034 263.572 259.088 263.572 259.147 263.572C259.206 263.568 259.274 263.562 259.352 263.555V264.387C259.231 264.422 259.104 264.447 258.971 264.463C258.842 264.479 258.702 264.486 258.549 264.486C258.057 264.486 257.723 264.361 257.547 264.111C257.372 263.857 257.284 263.529 257.284 263.127V258.973H256.434V258.111H257.284V256.359ZM260.413 258.141H261.485V264.387H260.413V258.141ZM260.413 255.779H261.485V256.975H260.413V255.779ZM263.085 258.111H264.087V259.002C264.383 258.635 264.698 258.371 265.03 258.211C265.362 258.051 265.731 257.971 266.137 257.971C267.028 257.971 267.629 258.281 267.942 258.902C268.114 259.242 268.2 259.729 268.2 260.361V264.387H267.128V260.432C267.128 260.049 267.071 259.74 266.958 259.506C266.77 259.115 266.43 258.92 265.938 258.92C265.688 258.92 265.483 258.945 265.323 258.996C265.034 259.082 264.78 259.254 264.561 259.512C264.385 259.719 264.27 259.934 264.215 260.156C264.165 260.375 264.139 260.689 264.139 261.1V264.387H263.085V258.111ZM271.979 258C272.471 258 272.901 258.121 273.268 258.363C273.467 258.5 273.671 258.699 273.878 258.961V258.17H274.85V263.877C274.85 264.674 274.733 265.303 274.499 265.764C274.061 266.615 273.235 267.041 272.02 267.041C271.344 267.041 270.776 266.889 270.315 266.584C269.854 266.283 269.596 265.811 269.542 265.166H270.614C270.665 265.447 270.766 265.664 270.919 265.816C271.157 266.051 271.532 266.168 272.044 266.168C272.852 266.168 273.381 265.883 273.631 265.312C273.78 264.977 273.848 264.377 273.837 263.514C273.626 263.834 273.372 264.072 273.075 264.229C272.778 264.385 272.385 264.463 271.897 264.463C271.217 264.463 270.622 264.223 270.11 263.742C269.602 263.258 269.348 262.459 269.348 261.346C269.348 260.295 269.604 259.475 270.116 258.885C270.631 258.295 271.253 258 271.979 258ZM273.878 261.223C273.878 260.445 273.717 259.869 273.397 259.494C273.077 259.119 272.669 258.932 272.172 258.932C271.43 258.932 270.922 259.279 270.649 259.975C270.504 260.346 270.432 260.832 270.432 261.434C270.432 262.141 270.575 262.68 270.86 263.051C271.149 263.418 271.536 263.602 272.02 263.602C272.778 263.602 273.311 263.26 273.62 262.576C273.792 262.189 273.878 261.738 273.878 261.223ZM230.641 269.779H234.514C235.28 269.779 235.897 269.996 236.366 270.43C236.835 270.859 237.069 271.465 237.069 272.246C237.069 272.918 236.86 273.504 236.442 274.004C236.024 274.5 235.381 274.748 234.514 274.748H231.807V278.387H230.641V269.779ZM235.891 272.252C235.891 271.619 235.657 271.189 235.188 270.963C234.93 270.842 234.577 270.781 234.128 270.781H231.807V273.764H234.128C234.651 273.764 235.075 273.652 235.399 273.43C235.727 273.207 235.891 272.814 235.891 272.252ZM239.448 272.111V276.277C239.448 276.598 239.499 276.859 239.6 277.062C239.788 277.438 240.137 277.625 240.649 277.625C241.383 277.625 241.883 277.297 242.149 276.641C242.294 276.289 242.366 275.807 242.366 275.193V272.111H243.421V278.387H242.424L242.436 277.461C242.299 277.699 242.129 277.9 241.926 278.064C241.524 278.393 241.036 278.557 240.462 278.557C239.567 278.557 238.958 278.258 238.633 277.66C238.458 277.34 238.37 276.912 238.37 276.377V272.111H239.448ZM244.991 269.75H246.016V272.873C246.247 272.572 246.522 272.344 246.842 272.188C247.163 272.027 247.51 271.947 247.885 271.947C248.667 271.947 249.299 272.217 249.784 272.756C250.272 273.291 250.516 274.082 250.516 275.129C250.516 276.121 250.276 276.945 249.796 277.602C249.315 278.258 248.649 278.586 247.797 278.586C247.321 278.586 246.919 278.471 246.59 278.24C246.395 278.104 246.186 277.885 245.963 277.584V278.387H244.991V269.75ZM247.733 277.654C248.303 277.654 248.729 277.428 249.01 276.975C249.296 276.521 249.438 275.924 249.438 275.182C249.438 274.521 249.296 273.975 249.01 273.541C248.729 273.107 248.313 272.891 247.762 272.891C247.282 272.891 246.86 273.068 246.497 273.424C246.137 273.779 245.958 274.365 245.958 275.182C245.958 275.771 246.032 276.25 246.18 276.617C246.458 277.309 246.975 277.654 247.733 277.654ZM251.782 269.779H252.837V278.387H251.782V269.779ZM254.424 272.141H255.497V278.387H254.424V272.141ZM254.424 269.779H255.497V270.975H254.424V269.779ZM257.723 276.418C257.754 276.77 257.842 277.039 257.987 277.227C258.253 277.566 258.713 277.736 259.37 277.736C259.76 277.736 260.104 277.652 260.401 277.484C260.698 277.312 260.846 277.049 260.846 276.693C260.846 276.424 260.727 276.219 260.489 276.078C260.337 275.992 260.036 275.893 259.587 275.779L258.749 275.568C258.213 275.436 257.819 275.287 257.565 275.123C257.112 274.838 256.885 274.443 256.885 273.939C256.885 273.346 257.098 272.865 257.524 272.498C257.954 272.131 258.53 271.947 259.253 271.947C260.198 271.947 260.879 272.225 261.297 272.779C261.559 273.131 261.686 273.51 261.678 273.916H260.682C260.663 273.678 260.579 273.461 260.43 273.266C260.188 272.988 259.768 272.85 259.171 272.85C258.772 272.85 258.469 272.926 258.262 273.078C258.059 273.23 257.958 273.432 257.958 273.682C257.958 273.955 258.092 274.174 258.362 274.338C258.518 274.436 258.749 274.521 259.053 274.596L259.751 274.766C260.508 274.949 261.016 275.127 261.274 275.299C261.684 275.568 261.889 275.992 261.889 276.57C261.889 277.129 261.676 277.611 261.251 278.018C260.829 278.424 260.184 278.627 259.317 278.627C258.383 278.627 257.721 278.416 257.331 277.994C256.944 277.568 256.737 277.043 256.71 276.418H257.723ZM263.096 269.75H264.151V272.961C264.401 272.645 264.626 272.422 264.825 272.293C265.165 272.07 265.588 271.959 266.096 271.959C267.006 271.959 267.624 272.277 267.948 272.914C268.124 273.262 268.212 273.744 268.212 274.361V278.387H267.128V274.432C267.128 273.971 267.069 273.633 266.952 273.418C266.76 273.074 266.401 272.902 265.874 272.902C265.436 272.902 265.04 273.053 264.684 273.354C264.329 273.654 264.151 274.223 264.151 275.059V278.387H263.096V269.75ZM272.389 271.971C272.835 271.971 273.266 272.076 273.684 272.287C274.102 272.494 274.421 272.764 274.639 273.096C274.85 273.412 274.991 273.781 275.061 274.203C275.124 274.492 275.155 274.953 275.155 275.586H270.555C270.575 276.223 270.725 276.734 271.006 277.121C271.288 277.504 271.723 277.695 272.313 277.695C272.864 277.695 273.303 277.514 273.631 277.15C273.819 276.939 273.952 276.695 274.03 276.418H275.067C275.04 276.648 274.948 276.906 274.792 277.191C274.639 277.473 274.467 277.703 274.276 277.883C273.956 278.195 273.559 278.406 273.087 278.516C272.833 278.578 272.546 278.609 272.225 278.609C271.444 278.609 270.782 278.326 270.239 277.76C269.696 277.189 269.424 276.393 269.424 275.369C269.424 274.361 269.698 273.543 270.245 272.914C270.792 272.285 271.506 271.971 272.389 271.971ZM274.071 274.748C274.028 274.291 273.928 273.926 273.772 273.652C273.483 273.145 273.001 272.891 272.325 272.891C271.84 272.891 271.434 273.066 271.106 273.418C270.778 273.766 270.604 274.209 270.585 274.748H274.071ZM276.485 272.111H277.487V273.195C277.569 272.984 277.77 272.729 278.09 272.428C278.411 272.123 278.78 271.971 279.198 271.971C279.217 271.971 279.251 271.973 279.297 271.977C279.344 271.98 279.424 271.988 279.538 272V273.113C279.475 273.102 279.417 273.094 279.362 273.09C279.311 273.086 279.254 273.084 279.192 273.084C278.661 273.084 278.253 273.256 277.967 273.6C277.682 273.939 277.54 274.332 277.54 274.777V278.387H276.485V272.111Z" fill="#4D4D4D"/>
<path d="M255.422 467.394V559.978H540.986L540.939 433.828" stroke="black" stroke-width="2" stroke-miterlimit="10"/>
<path d="M540.94 424.572L547.113 436.897L540.94 433.828L534.767 436.913L540.94 424.572Z" fill="black" stroke="black" stroke-width="2" stroke-miterlimit="10"/>
<path d="M334.133 374.84H176.712C169.041 374.84 162.822 381.056 162.822 388.723V453.511C162.822 461.178 169.041 467.394 176.712 467.394H334.133C341.804 467.394 348.023 461.178 348.023 453.511V388.723C348.023 381.056 341.804 374.84 334.133 374.84Z" stroke="#333333" stroke-width="2"/>
<path d="M235.23 409.206H241.506V410.261H236.367V412.874H241.119V413.87H236.367V416.788H241.594V417.814H235.23V409.206ZM242.385 411.538H243.75L245.191 413.747L246.65 411.538L247.934 411.568L245.818 414.597L248.027 417.814H246.68L245.121 415.458L243.609 417.814H242.273L244.482 414.597L242.385 411.538ZM248.982 411.568H250.055V417.814H248.982V411.568ZM248.982 409.206H250.055V410.401H248.982V409.206ZM252.281 415.845C252.312 416.196 252.4 416.466 252.545 416.653C252.81 416.993 253.271 417.163 253.928 417.163C254.318 417.163 254.662 417.079 254.959 416.911C255.256 416.739 255.404 416.476 255.404 416.12C255.404 415.851 255.285 415.646 255.047 415.505C254.894 415.419 254.594 415.319 254.144 415.206L253.307 414.995C252.771 414.862 252.377 414.714 252.123 414.55C251.67 414.265 251.443 413.87 251.443 413.366C251.443 412.773 251.656 412.292 252.082 411.925C252.512 411.558 253.088 411.374 253.81 411.374C254.756 411.374 255.437 411.651 255.855 412.206C256.117 412.558 256.244 412.937 256.236 413.343H255.24C255.221 413.105 255.137 412.888 254.988 412.693C254.746 412.415 254.326 412.276 253.728 412.276C253.33 412.276 253.027 412.353 252.82 412.505C252.617 412.657 252.516 412.859 252.516 413.109C252.516 413.382 252.65 413.601 252.92 413.765C253.076 413.862 253.307 413.948 253.611 414.023L254.309 414.193C255.066 414.376 255.574 414.554 255.832 414.726C256.242 414.995 256.447 415.419 256.447 415.997C256.447 416.556 256.234 417.038 255.809 417.444C255.387 417.851 254.742 418.054 253.875 418.054C252.941 418.054 252.279 417.843 251.889 417.421C251.502 416.995 251.295 416.47 251.268 415.845H252.281ZM257.865 409.786H258.932V411.538H259.934V412.4H258.932V416.495C258.932 416.714 259.006 416.86 259.154 416.935C259.236 416.978 259.373 416.999 259.564 416.999C259.615 416.999 259.67 416.999 259.728 416.999C259.787 416.995 259.855 416.989 259.934 416.982V417.814C259.812 417.849 259.685 417.874 259.553 417.89C259.424 417.905 259.283 417.913 259.131 417.913C258.639 417.913 258.305 417.788 258.129 417.538C257.953 417.284 257.865 416.956 257.865 416.554V412.4H257.016V411.538H257.865V409.786ZM260.994 411.568H262.066V417.814H260.994V411.568ZM260.994 409.206H262.066V410.401H260.994V409.206ZM263.666 411.538H264.668V412.429C264.965 412.062 265.279 411.798 265.611 411.638C265.943 411.478 266.312 411.398 266.719 411.398C267.609 411.398 268.211 411.708 268.523 412.329C268.695 412.669 268.781 413.155 268.781 413.788V417.814H267.709V413.859C267.709 413.476 267.652 413.167 267.539 412.933C267.352 412.542 267.012 412.347 266.519 412.347C266.269 412.347 266.064 412.372 265.904 412.423C265.615 412.509 265.361 412.681 265.143 412.939C264.967 413.146 264.852 413.36 264.797 413.583C264.746 413.802 264.721 414.116 264.721 414.526V417.814H263.666V411.538ZM272.56 411.427C273.053 411.427 273.482 411.548 273.85 411.79C274.049 411.927 274.252 412.126 274.459 412.388V411.597H275.432V417.304C275.432 418.101 275.314 418.73 275.08 419.191C274.643 420.042 273.816 420.468 272.602 420.468C271.926 420.468 271.357 420.316 270.896 420.011C270.435 419.71 270.178 419.237 270.123 418.593H271.195C271.246 418.874 271.348 419.091 271.5 419.243C271.738 419.478 272.113 419.595 272.625 419.595C273.434 419.595 273.963 419.31 274.213 418.739C274.361 418.403 274.43 417.804 274.418 416.941C274.207 417.261 273.953 417.499 273.656 417.655C273.359 417.812 272.967 417.89 272.478 417.89C271.799 417.89 271.203 417.65 270.691 417.169C270.184 416.685 269.93 415.886 269.93 414.773C269.93 413.722 270.185 412.901 270.697 412.312C271.213 411.722 271.834 411.427 272.56 411.427ZM274.459 414.65C274.459 413.872 274.299 413.296 273.978 412.921C273.658 412.546 273.25 412.359 272.754 412.359C272.012 412.359 271.504 412.706 271.23 413.401C271.086 413.773 271.014 414.259 271.014 414.86C271.014 415.568 271.156 416.107 271.441 416.478C271.73 416.845 272.117 417.028 272.602 417.028C273.359 417.028 273.893 416.687 274.201 416.003C274.373 415.616 274.459 415.165 274.459 414.65ZM231.223 423.206H235.096C235.861 423.206 236.478 423.423 236.947 423.857C237.416 424.286 237.65 424.892 237.65 425.673C237.65 426.345 237.441 426.931 237.023 427.431C236.605 427.927 235.963 428.175 235.096 428.175H232.389V431.814H231.223V423.206ZM236.473 425.679C236.473 425.046 236.238 424.616 235.769 424.39C235.512 424.269 235.158 424.208 234.709 424.208H232.389V427.191H234.709C235.232 427.191 235.656 427.079 235.98 426.857C236.309 426.634 236.473 426.241 236.473 425.679ZM240.029 425.538V429.704C240.029 430.025 240.08 430.286 240.182 430.489C240.369 430.864 240.719 431.052 241.23 431.052C241.965 431.052 242.465 430.724 242.73 430.068C242.875 429.716 242.947 429.234 242.947 428.62V425.538H244.002V431.814H243.006L243.018 430.888C242.881 431.126 242.711 431.327 242.508 431.491C242.105 431.819 241.617 431.984 241.043 431.984C240.148 431.984 239.539 431.685 239.215 431.087C239.039 430.767 238.951 430.339 238.951 429.804V425.538H240.029ZM245.572 423.177H246.598V426.3C246.828 425.999 247.103 425.771 247.424 425.614C247.744 425.454 248.092 425.374 248.467 425.374C249.248 425.374 249.881 425.644 250.365 426.183C250.853 426.718 251.098 427.509 251.098 428.556C251.098 429.548 250.857 430.372 250.377 431.028C249.896 431.685 249.23 432.013 248.379 432.013C247.902 432.013 247.5 431.898 247.172 431.667C246.977 431.53 246.768 431.312 246.545 431.011V431.814H245.572V423.177ZM248.314 431.081C248.885 431.081 249.31 430.855 249.592 430.401C249.877 429.948 250.019 429.351 250.019 428.609C250.019 427.948 249.877 427.401 249.592 426.968C249.31 426.534 248.894 426.318 248.344 426.318C247.863 426.318 247.441 426.495 247.078 426.851C246.719 427.206 246.539 427.792 246.539 428.609C246.539 429.198 246.613 429.677 246.762 430.044C247.039 430.735 247.557 431.081 248.314 431.081ZM252.363 423.206H253.418V431.814H252.363V423.206ZM255.006 425.568H256.078V431.814H255.006V425.568ZM255.006 423.206H256.078V424.401H255.006V423.206ZM258.305 429.845C258.336 430.196 258.424 430.466 258.568 430.653C258.834 430.993 259.295 431.163 259.951 431.163C260.342 431.163 260.685 431.079 260.982 430.911C261.279 430.739 261.428 430.476 261.428 430.12C261.428 429.851 261.309 429.646 261.07 429.505C260.918 429.419 260.617 429.319 260.168 429.206L259.33 428.995C258.795 428.862 258.4 428.714 258.146 428.55C257.693 428.265 257.467 427.87 257.467 427.366C257.467 426.773 257.68 426.292 258.105 425.925C258.535 425.558 259.111 425.374 259.834 425.374C260.779 425.374 261.461 425.651 261.879 426.206C262.141 426.558 262.268 426.937 262.26 427.343H261.264C261.244 427.105 261.16 426.888 261.012 426.693C260.769 426.415 260.35 426.276 259.752 426.276C259.353 426.276 259.051 426.353 258.844 426.505C258.641 426.657 258.539 426.859 258.539 427.109C258.539 427.382 258.674 427.601 258.943 427.765C259.1 427.862 259.33 427.948 259.635 428.023L260.332 428.193C261.09 428.376 261.598 428.554 261.855 428.726C262.266 428.995 262.471 429.419 262.471 429.997C262.471 430.556 262.258 431.038 261.832 431.444C261.41 431.851 260.766 432.054 259.898 432.054C258.965 432.054 258.303 431.843 257.912 431.421C257.525 430.995 257.318 430.47 257.291 429.845H258.305ZM263.678 423.177H264.732V426.388C264.982 426.071 265.207 425.849 265.406 425.72C265.746 425.497 266.17 425.386 266.678 425.386C267.588 425.386 268.205 425.704 268.529 426.341C268.705 426.689 268.793 427.171 268.793 427.788V431.814H267.709V427.859C267.709 427.398 267.65 427.06 267.533 426.845C267.342 426.501 266.982 426.329 266.455 426.329C266.018 426.329 265.621 426.48 265.266 426.78C264.91 427.081 264.732 427.65 264.732 428.485V431.814H263.678V423.177ZM272.971 425.398C273.416 425.398 273.848 425.503 274.266 425.714C274.684 425.921 275.002 426.191 275.221 426.523C275.432 426.839 275.572 427.208 275.643 427.63C275.705 427.919 275.736 428.38 275.736 429.013H271.137C271.156 429.65 271.307 430.161 271.588 430.548C271.869 430.931 272.305 431.122 272.894 431.122C273.445 431.122 273.885 430.941 274.213 430.577C274.4 430.366 274.533 430.122 274.611 429.845H275.648C275.621 430.075 275.529 430.333 275.373 430.618C275.221 430.9 275.049 431.13 274.857 431.31C274.537 431.622 274.141 431.833 273.668 431.943C273.414 432.005 273.127 432.036 272.807 432.036C272.025 432.036 271.363 431.753 270.82 431.187C270.277 430.616 270.006 429.819 270.006 428.796C270.006 427.788 270.279 426.97 270.826 426.341C271.373 425.712 272.088 425.398 272.971 425.398ZM274.652 428.175C274.609 427.718 274.51 427.353 274.353 427.079C274.064 426.571 273.582 426.318 272.906 426.318C272.422 426.318 272.016 426.493 271.687 426.845C271.359 427.193 271.185 427.636 271.166 428.175H274.652ZM277.066 425.538H278.068V426.622C278.15 426.411 278.352 426.155 278.672 425.855C278.992 425.55 279.361 425.398 279.779 425.398C279.799 425.398 279.832 425.4 279.879 425.403C279.926 425.407 280.006 425.415 280.119 425.427V426.54C280.057 426.528 279.998 426.521 279.943 426.517C279.893 426.513 279.836 426.511 279.773 426.511C279.242 426.511 278.834 426.683 278.549 427.026C278.264 427.366 278.121 427.759 278.121 428.204V431.814H277.066V425.538Z" fill="#666666"/>
<path d="M54.7881 351.671H108.851V266.893H150.105" stroke="black" stroke-width="2" stroke-miterlimit="10"/>
<path d="M159.365 266.893L147.019 273.063L150.105 266.893L147.019 260.722L159.365 266.893Z" fill="black" stroke="black" stroke-width="2" stroke-miterlimit="10"/>
<path d="M54.7881 351.671H108.851V444.224L150.105 444.255" stroke="black" stroke-width="2" stroke-miterlimit="10"/>
<path d="M159.365 444.255L147.019 450.41L150.105 444.255L147.034 438.07L159.365 444.255Z" fill="black" stroke="black" stroke-width="2" stroke-miterlimit="10"/>
<path d="M31.6385 332.42C38.0312 332.42 43.2135 328.104 43.2135 322.779C43.2135 317.455 38.0312 313.138 31.6385 313.138C25.2458 313.138 20.0635 317.455 20.0635 322.779C20.0635 328.104 25.2458 332.42 31.6385 332.42Z" stroke="black" stroke-width="2"/>
<path d="M31.6383 332.42V364.552M31.6383 364.552L8.48828 390.266M31.6383 364.552L54.7884 390.266M8.48828 338.853H31.6383H54.7884" stroke="black" stroke-width="2" stroke-miterlimit="10"/>
<path d="M888.19 128.063H994.31L1088.42 127.153" stroke="black" stroke-width="2" stroke-miterlimit="10"/>
<path d="M1097.68 127.076L1085.4 133.354L1088.42 127.153L1085.29 121.013L1097.68 127.076Z" fill="black" stroke="black" stroke-width="2" stroke-miterlimit="10"/>
<path d="M841.891 81.7553L888.191 103.968V152.096L841.891 174.309L795.591 152.096V103.968L841.891 81.7553Z" stroke="black" stroke-width="2" stroke-miterlimit="10"/>
<path d="M795.591 103.968L841.891 126.196M841.891 126.196L888.191 103.968M841.891 126.196V174.309" stroke="black" stroke-width="2" stroke-miterlimit="10"/>
<path d="M888.19 313.138H1087.68" stroke="black" stroke-width="2" stroke-miterlimit="10"/>
<path d="M1096.94 313.138L1084.6 319.308L1087.68 313.138L1084.6 306.968L1096.94 313.138Z" fill="black" stroke="black" stroke-width="2" stroke-miterlimit="10"/>
<path d="M841.891 266.862L888.191 289.074V337.202L841.891 359.415L795.591 337.202V289.074L841.891 266.862Z" stroke="#36393D" stroke-width="2" stroke-miterlimit="10"/>
<path d="M795.591 289.074L841.891 311.303M841.891 311.303L888.191 289.074M841.891 311.303V359.415" stroke="#36393D" stroke-width="2" stroke-miterlimit="10"/>
<path d="M888.19 482.85H994.31L1085.37 482.31" stroke="black" stroke-width="2" stroke-miterlimit="10"/>
<path d="M1094.63 482.248L1082.33 488.496L1085.37 482.31L1082.25 476.155L1094.63 482.248Z" fill="black" stroke="black" stroke-width="2" stroke-miterlimit="10"/>
<path d="M841.891 436.543L888.191 458.755V506.883L841.891 529.096L795.591 506.883V458.755L841.891 436.543Z" stroke="#36393D" stroke-width="2" stroke-miterlimit="10"/>
<path d="M795.591 458.755L841.891 480.983M841.891 480.983L888.191 458.755M841.891 480.983V529.096" stroke="#36393D" stroke-width="2" stroke-miterlimit="10"/>
<path d="M1193 542.207V84.0691C1193 76.4018 1186.78 70.1862 1179.11 70.1862H1114.29C1106.62 70.1862 1100.4 76.4018 1100.4 84.0691V542.207C1100.4 549.875 1106.62 556.09 1114.29 556.09H1179.11C1186.78 556.09 1193 549.875 1193 542.207Z" stroke="black" stroke-dasharray="3 3"/>
<path d="M1152.54 279.33L1157.3 277.696L1152.54 275.961V279.33ZM1158.89 276.935V278.583L1148.13 282.486V280.89L1151.36 279.798V275.543L1148.13 274.378V272.884L1158.89 276.935ZM1149.02 286.947C1149.02 287.562 1149.28 288.072 1149.79 288.478C1150.31 288.888 1151.08 289.093 1152.1 289.093C1152.73 289.093 1153.26 289.003 1153.71 288.822C1154.58 288.48 1155.01 287.855 1155.01 286.947C1155.01 286.034 1154.55 285.409 1153.64 285.072C1153.15 284.891 1152.53 284.801 1151.78 284.801C1151.17 284.801 1150.66 284.891 1150.23 285.072C1149.42 285.414 1149.02 286.039 1149.02 286.947ZM1155.94 283.534V284.816H1154.9C1155.26 285.079 1155.53 285.367 1155.73 285.68C1156.02 286.124 1156.17 286.647 1156.17 287.247C1156.17 288.136 1155.83 288.89 1155.14 289.51C1154.46 290.13 1153.49 290.441 1152.23 290.441C1150.52 290.441 1149.3 289.994 1148.56 289.1C1148.1 288.534 1147.87 287.875 1147.87 287.123C1147.87 286.532 1148 286.036 1148.26 285.636C1148.4 285.401 1148.66 285.14 1149.01 284.852H1145.01V283.534H1155.94ZM1149.02 295.296C1149.02 295.912 1149.28 296.422 1149.79 296.827C1150.31 297.237 1151.08 297.442 1152.1 297.442C1152.73 297.442 1153.26 297.352 1153.71 297.171C1154.58 296.83 1155.01 296.205 1155.01 295.296C1155.01 294.383 1154.55 293.758 1153.64 293.421C1153.15 293.241 1152.53 293.15 1151.78 293.15C1151.17 293.15 1150.66 293.241 1150.23 293.421C1149.42 293.763 1149.02 294.388 1149.02 295.296ZM1155.94 291.883V293.165H1154.9C1155.26 293.429 1155.53 293.717 1155.73 294.029C1156.02 294.474 1156.17 294.996 1156.17 295.597C1156.17 296.485 1155.83 297.24 1155.14 297.86C1154.46 298.48 1153.49 298.79 1152.23 298.79C1150.52 298.79 1149.3 298.343 1148.56 297.45C1148.1 296.883 1147.87 296.224 1147.87 295.472C1147.87 294.881 1148 294.386 1148.26 293.985C1148.4 293.751 1148.66 293.49 1149.01 293.202H1145.01V291.883H1155.94ZM1158.89 300.372V301.691H1148.13V300.372H1158.89ZM1155.94 303.675V305.016H1148.13V303.675H1155.94ZM1158.89 303.675V305.016H1157.4V303.675H1158.89ZM1156.2 310.04C1156.2 310.924 1155.99 311.642 1155.56 312.193C1155.13 312.75 1154.39 313.085 1153.34 313.197V311.915C1153.82 311.837 1154.22 311.659 1154.54 311.38C1154.86 311.102 1155.02 310.655 1155.02 310.04C1155.02 309.2 1154.61 308.6 1153.79 308.238C1153.26 308.004 1152.61 307.887 1151.82 307.887C1151.04 307.887 1150.38 308.053 1149.84 308.385C1149.3 308.717 1149.03 309.239 1149.03 309.952C1149.03 310.499 1149.2 310.931 1149.53 311.249C1149.87 311.571 1150.33 311.793 1150.91 311.915V313.197C1149.87 313.05 1149.11 312.684 1148.62 312.098C1148.15 311.512 1147.91 310.763 1147.91 309.85C1147.91 308.824 1148.28 308.006 1149.03 307.396C1149.78 306.786 1150.72 306.481 1151.84 306.481C1153.22 306.481 1154.29 306.815 1155.05 307.484C1155.82 308.153 1156.2 309.005 1156.2 310.04ZM1150.22 315.526C1149.84 315.526 1149.54 315.665 1149.32 315.943C1149.1 316.222 1148.99 316.551 1148.99 316.932C1148.99 317.396 1149.1 317.845 1149.31 318.28C1149.67 319.012 1150.25 319.378 1151.06 319.378H1152.12C1152.02 319.217 1151.94 319.01 1151.87 318.756C1151.8 318.502 1151.75 318.253 1151.72 318.009L1151.62 317.211C1151.56 316.732 1151.46 316.373 1151.32 316.134C1151.09 315.729 1150.72 315.526 1150.22 315.526ZM1152.89 318.719C1152.93 319.022 1153.05 319.225 1153.27 319.327C1153.38 319.386 1153.55 319.415 1153.77 319.415C1154.22 319.415 1154.55 319.254 1154.75 318.932C1154.95 318.614 1155.05 318.158 1155.05 317.562C1155.05 316.874 1154.87 316.385 1154.5 316.097C1154.29 315.936 1153.99 315.831 1153.58 315.782V314.552C1154.55 314.576 1155.22 314.889 1155.6 315.489C1155.98 316.095 1156.17 316.795 1156.17 317.591C1156.17 318.514 1155.99 319.264 1155.64 319.84C1155.29 320.411 1154.74 320.697 1154 320.697H1149.48C1149.34 320.697 1149.23 320.724 1149.15 320.777C1149.07 320.836 1149.03 320.956 1149.03 321.136C1149.03 321.195 1149.03 321.261 1149.03 321.334C1149.04 321.407 1149.06 321.485 1149.07 321.568H1148.1C1148.04 321.363 1148 321.207 1147.99 321.1C1147.97 320.992 1147.96 320.846 1147.96 320.66C1147.96 320.206 1148.13 319.877 1148.45 319.671C1148.62 319.564 1148.86 319.488 1149.17 319.444C1148.82 319.176 1148.52 318.79 1148.26 318.287C1148 317.784 1147.87 317.23 1147.87 316.625C1147.87 315.897 1148.09 315.301 1148.53 314.837C1148.97 314.378 1149.53 314.149 1150.19 314.149C1150.92 314.149 1151.48 314.376 1151.88 314.83C1152.28 315.284 1152.53 315.88 1152.62 316.617L1152.89 318.719ZM1158.17 323.128V324.462H1155.98V325.714H1154.9V324.462H1149.78C1149.51 324.462 1149.32 324.554 1149.23 324.74C1149.18 324.842 1149.15 325.013 1149.15 325.253C1149.15 325.316 1149.15 325.384 1149.15 325.458C1149.16 325.531 1149.16 325.616 1149.17 325.714H1148.13C1148.09 325.563 1148.06 325.404 1148.04 325.238C1148.02 325.077 1148.01 324.901 1148.01 324.711C1148.01 324.095 1148.16 323.678 1148.48 323.458C1148.79 323.238 1149.2 323.128 1149.71 323.128H1154.9V322.066H1155.98V323.128H1158.17ZM1155.94 327.04V328.38H1148.13V327.04H1155.94ZM1158.89 327.04V328.38H1157.4V327.04H1158.89ZM1148.98 333.492C1148.98 334.366 1149.31 334.964 1149.97 335.287C1150.64 335.614 1151.37 335.777 1152.18 335.777C1152.92 335.777 1153.51 335.66 1153.97 335.426C1154.69 335.055 1155.05 334.415 1155.05 333.507C1155.05 332.701 1154.75 332.115 1154.13 331.749C1153.52 331.383 1152.77 331.2 1151.9 331.2C1151.07 331.2 1150.37 331.383 1149.82 331.749C1149.26 332.115 1148.98 332.696 1148.98 333.492ZM1156.2 333.544C1156.2 334.554 1155.87 335.409 1155.19 336.107C1154.52 336.805 1153.53 337.154 1152.22 337.154C1150.96 337.154 1149.91 336.847 1149.08 336.232C1148.26 335.616 1147.85 334.662 1147.85 333.368C1147.85 332.289 1148.21 331.432 1148.94 330.797C1149.67 330.162 1150.65 329.845 1151.88 329.845C1153.2 329.845 1154.25 330.179 1155.03 330.848C1155.81 331.517 1156.2 332.416 1156.2 333.544ZM1155.98 338.729V339.982H1154.86C1155.32 340.353 1155.65 340.746 1155.85 341.161C1156.05 341.576 1156.15 342.037 1156.15 342.545C1156.15 343.658 1155.76 344.41 1154.99 344.801C1154.56 345.016 1153.96 345.123 1153.16 345.123H1148.13V343.783H1153.08C1153.56 343.783 1153.94 343.712 1154.23 343.57C1154.72 343.336 1154.97 342.911 1154.97 342.296C1154.97 341.983 1154.93 341.727 1154.87 341.527C1154.76 341.166 1154.55 340.848 1154.23 340.575C1153.97 340.355 1153.7 340.211 1153.42 340.143C1153.15 340.079 1152.75 340.047 1152.24 340.047H1148.13V338.729H1155.98ZM1150.59 347.862C1150.15 347.901 1149.82 348.011 1149.58 348.192C1149.16 348.524 1148.95 349.1 1148.95 349.92C1148.95 350.409 1149.05 350.838 1149.26 351.21C1149.48 351.581 1149.81 351.766 1150.25 351.766C1150.59 351.766 1150.84 351.617 1151.02 351.319C1151.13 351.129 1151.25 350.753 1151.39 350.191L1151.66 349.144C1151.82 348.475 1152.01 347.982 1152.21 347.665C1152.57 347.098 1153.06 346.815 1153.69 346.815C1154.43 346.815 1155.03 347.081 1155.49 347.613C1155.95 348.15 1156.18 348.871 1156.18 349.774C1156.18 350.956 1155.84 351.808 1155.14 352.33C1154.7 352.657 1154.23 352.816 1153.72 352.806V351.561C1154.02 351.537 1154.29 351.432 1154.53 351.246C1154.88 350.943 1155.05 350.419 1155.05 349.671C1155.05 349.173 1154.96 348.795 1154.77 348.536C1154.58 348.282 1154.33 348.155 1154.01 348.155C1153.67 348.155 1153.4 348.324 1153.19 348.661C1153.07 348.856 1152.96 349.144 1152.87 349.525L1152.66 350.397C1152.43 351.344 1152.21 351.979 1151.99 352.301C1151.66 352.814 1151.13 353.07 1150.4 353.07C1149.71 353.07 1149.1 352.804 1148.59 352.272C1148.09 351.744 1147.83 350.939 1147.83 349.855C1147.83 348.688 1148.1 347.86 1148.62 347.372C1149.16 346.888 1149.81 346.629 1150.59 346.595V347.862Z" fill="black"/>
<path d="M741.573 47.0479H942.207Z" fill="white"/>
<path d="M741.573 47.0479H942.207" stroke="#4D4D4D" stroke-miterlimit="10" stroke-dasharray="3 3"/>
<path d="M741.573 47.0479V579.229H942.207V47.0479" stroke="#4D4D4D" stroke-miterlimit="10" stroke-dasharray="3 3"/>
<path d="M801.387 18.2705L800.08 14.4678L798.692 18.2705H801.387ZM799.471 13.1904H800.789L803.912 21.7979H802.635L801.762 19.2197H798.358L797.426 21.7979H796.231L799.471 13.1904ZM805.237 13.1904H806.414V21.7979H805.237V13.1904ZM811.512 15.5225H812.555V16.4131C812.805 16.1045 813.031 15.8799 813.235 15.7393C813.582 15.501 813.977 15.3818 814.418 15.3818C814.918 15.3818 815.32 15.5049 815.625 15.751C815.797 15.8916 815.953 16.0986 816.094 16.3721C816.328 16.0361 816.604 15.7881 816.92 15.6279C817.237 15.4639 817.592 15.3818 817.987 15.3818C818.83 15.3818 819.404 15.6865 819.709 16.2959C819.873 16.624 819.955 17.0654 819.955 17.6201V21.7979H818.86V17.4385C818.86 17.0205 818.754 16.7334 818.543 16.5771C818.336 16.4209 818.082 16.3428 817.781 16.3428C817.367 16.3428 817.01 16.4814 816.709 16.7588C816.412 17.0361 816.264 17.499 816.264 18.1475V21.7979H815.192V17.7021C815.192 17.2764 815.141 16.9658 815.039 16.7705C814.879 16.4775 814.58 16.3311 814.143 16.3311C813.744 16.3311 813.381 16.4854 813.053 16.7939C812.729 17.1025 812.567 17.6611 812.567 18.4697V21.7979H811.512V15.5225ZM823.998 21.1182C824.697 21.1182 825.176 20.8545 825.434 20.3271C825.695 19.7959 825.826 19.2061 825.826 18.5576C825.826 17.9717 825.733 17.4951 825.545 17.1279C825.248 16.5498 824.737 16.2607 824.01 16.2607C823.365 16.2607 822.897 16.5068 822.604 16.999C822.311 17.4912 822.164 18.085 822.164 18.7803C822.164 19.4482 822.311 20.0049 822.604 20.4502C822.897 20.8955 823.362 21.1182 823.998 21.1182ZM824.039 15.3408C824.848 15.3408 825.531 15.6104 826.09 16.1494C826.649 16.6885 826.928 17.4814 826.928 18.5283C826.928 19.54 826.682 20.376 826.19 21.0361C825.697 21.6963 824.934 22.0264 823.899 22.0264C823.035 22.0264 822.35 21.7354 821.842 21.1533C821.334 20.5674 821.08 19.7822 821.08 18.7979C821.08 17.7432 821.348 16.9033 821.883 16.2783C822.418 15.6533 823.137 15.3408 824.039 15.3408ZM828.856 18.7334C828.856 19.4053 828.998 19.9678 829.283 20.4209C829.569 20.874 830.026 21.1006 830.654 21.1006C831.143 21.1006 831.543 20.8916 831.856 20.4736C832.172 20.0518 832.33 19.4482 832.33 18.6631C832.33 17.8701 832.168 17.2842 831.844 16.9053C831.52 16.5225 831.119 16.3311 830.643 16.3311C830.112 16.3311 829.68 16.5342 829.348 16.9404C829.02 17.3467 828.856 17.9443 828.856 18.7334ZM830.444 15.4111C830.924 15.4111 831.326 15.5127 831.651 15.7158C831.838 15.833 832.051 16.0381 832.289 16.3311V13.1611H833.303V21.7979H832.354V20.9248C832.108 21.3115 831.817 21.5908 831.481 21.7627C831.145 21.9346 830.76 22.0205 830.326 22.0205C829.627 22.0205 829.022 21.7275 828.51 21.1416C827.998 20.5518 827.742 19.7686 827.742 18.792C827.742 17.8779 827.975 17.0869 828.44 16.4189C828.908 15.7471 829.576 15.4111 830.444 15.4111ZM837.481 15.3818C837.926 15.3818 838.358 15.4873 838.776 15.6982C839.194 15.9053 839.512 16.1748 839.731 16.5068C839.942 16.8232 840.082 17.1924 840.153 17.6143C840.215 17.9033 840.246 18.3643 840.246 18.9971H835.647C835.666 19.6338 835.817 20.1455 836.098 20.5322C836.379 20.915 836.815 21.1064 837.404 21.1064C837.955 21.1064 838.395 20.9248 838.723 20.5615C838.91 20.3506 839.043 20.1064 839.121 19.8291H840.158C840.131 20.0596 840.039 20.3174 839.883 20.6025C839.731 20.8838 839.559 21.1143 839.367 21.2939C839.047 21.6064 838.651 21.8174 838.178 21.9268C837.924 21.9893 837.637 22.0205 837.317 22.0205C836.535 22.0205 835.873 21.7373 835.33 21.1709C834.787 20.6006 834.516 19.8037 834.516 18.7803C834.516 17.7725 834.789 16.9541 835.336 16.3252C835.883 15.6963 836.598 15.3818 837.481 15.3818ZM839.162 18.1592C839.119 17.7021 839.02 17.3369 838.863 17.0635C838.574 16.5557 838.092 16.3018 837.416 16.3018C836.932 16.3018 836.526 16.4775 836.197 16.8291C835.869 17.1768 835.695 17.6201 835.676 18.1592H839.162ZM841.576 13.1904H842.631V21.7979H841.576V13.1904ZM847.77 13.7705H848.836V15.5225H849.838V16.3838H848.836V20.4795C848.836 20.6982 848.91 20.8447 849.059 20.9189C849.141 20.9619 849.278 20.9834 849.469 20.9834C849.52 20.9834 849.574 20.9834 849.633 20.9834C849.692 20.9795 849.76 20.9736 849.838 20.9658V21.7979C849.717 21.833 849.59 21.8584 849.457 21.874C849.328 21.8896 849.188 21.8975 849.035 21.8975C848.543 21.8975 848.209 21.7725 848.033 21.5225C847.858 21.2686 847.77 20.9404 847.77 20.5381V16.3838H846.92V15.5225H847.77V13.7705ZM850.928 15.5225H851.93V16.6064C852.012 16.3955 852.213 16.1396 852.533 15.8389C852.854 15.5342 853.223 15.3818 853.641 15.3818C853.66 15.3818 853.694 15.3838 853.74 15.3877C853.787 15.3916 853.867 15.3994 853.981 15.4111V16.5244C853.918 16.5127 853.86 16.5049 853.805 16.501C853.754 16.4971 853.697 16.4951 853.635 16.4951C853.104 16.4951 852.695 16.667 852.41 17.0107C852.125 17.3506 851.983 17.7432 851.983 18.1885V21.7979H850.928V15.5225ZM855.703 20.1279C855.703 20.4326 855.815 20.6729 856.037 20.8486C856.26 21.0244 856.524 21.1123 856.828 21.1123C857.199 21.1123 857.559 21.0264 857.906 20.8545C858.492 20.5693 858.785 20.1025 858.785 19.4541V18.6045C858.656 18.6865 858.49 18.7549 858.287 18.8096C858.084 18.8643 857.885 18.9033 857.69 18.9268L857.051 19.0088C856.668 19.0596 856.381 19.1396 856.19 19.249C855.865 19.4326 855.703 19.7256 855.703 20.1279ZM858.258 17.9951C858.5 17.9639 858.662 17.8623 858.744 17.6904C858.791 17.5967 858.815 17.4619 858.815 17.2861C858.815 16.9268 858.686 16.667 858.428 16.5068C858.174 16.3428 857.809 16.2607 857.332 16.2607C856.781 16.2607 856.391 16.4092 856.16 16.7061C856.031 16.8701 855.947 17.1143 855.908 17.4385H854.924C854.944 16.665 855.194 16.1279 855.674 15.8271C856.158 15.5225 856.719 15.3701 857.356 15.3701C858.094 15.3701 858.694 15.5107 859.154 15.792C859.612 16.0732 859.84 16.5107 859.84 17.1045V20.7197C859.84 20.8291 859.862 20.917 859.904 20.9834C859.951 21.0498 860.047 21.083 860.192 21.083C860.238 21.083 860.291 21.0811 860.35 21.0771C860.408 21.0693 860.471 21.0596 860.537 21.0479V21.8271C860.373 21.874 860.248 21.9033 860.162 21.915C860.076 21.9268 859.959 21.9326 859.811 21.9326C859.447 21.9326 859.184 21.8037 859.02 21.5459C858.934 21.4092 858.873 21.2158 858.838 20.9658C858.623 21.2471 858.315 21.4912 857.912 21.6982C857.51 21.9053 857.067 22.0088 856.582 22.0088C856 22.0088 855.524 21.833 855.153 21.4814C854.785 21.126 854.602 20.6826 854.602 20.1514C854.602 19.5693 854.783 19.1182 855.147 18.7979C855.51 18.4775 855.987 18.2803 856.576 18.2061L858.258 17.9951ZM861.574 15.5518H862.647V21.7979H861.574V15.5518ZM861.574 13.1904H862.647V14.3857H861.574V13.1904ZM864.246 15.5225H865.248V16.4131C865.545 16.0459 865.86 15.7822 866.192 15.6221C866.524 15.4619 866.893 15.3818 867.299 15.3818C868.19 15.3818 868.791 15.6924 869.104 16.3135C869.276 16.6533 869.362 17.1396 869.362 17.7725V21.7979H868.289V17.8428C868.289 17.46 868.233 17.1514 868.119 16.917C867.932 16.5264 867.592 16.3311 867.1 16.3311C866.85 16.3311 866.645 16.3564 866.485 16.4072C866.195 16.4932 865.942 16.665 865.723 16.9229C865.547 17.1299 865.432 17.3447 865.377 17.5674C865.326 17.7861 865.301 18.1006 865.301 18.5107V21.7979H864.246V15.5225ZM870.926 15.5518H871.998V21.7979H870.926V15.5518ZM870.926 13.1904H871.998V14.3857H870.926V13.1904ZM873.598 15.5225H874.6V16.4131C874.897 16.0459 875.211 15.7822 875.543 15.6221C875.875 15.4619 876.244 15.3818 876.651 15.3818C877.541 15.3818 878.143 15.6924 878.455 16.3135C878.627 16.6533 878.713 17.1396 878.713 17.7725V21.7979H877.641V17.8428C877.641 17.46 877.584 17.1514 877.471 16.917C877.283 16.5264 876.944 16.3311 876.451 16.3311C876.201 16.3311 875.996 16.3564 875.836 16.4072C875.547 16.4932 875.293 16.665 875.074 16.9229C874.899 17.1299 874.783 17.3447 874.729 17.5674C874.678 17.7861 874.653 18.1006 874.653 18.5107V21.7979H873.598V15.5225ZM882.492 15.4111C882.985 15.4111 883.414 15.5322 883.781 15.7744C883.981 15.9111 884.184 16.1104 884.391 16.3721V15.5811H885.363V21.2881C885.363 22.085 885.246 22.7139 885.012 23.1748C884.574 24.0264 883.748 24.4521 882.533 24.4521C881.858 24.4521 881.289 24.2998 880.828 23.9951C880.367 23.6943 880.11 23.2217 880.055 22.5771H881.127C881.178 22.8584 881.279 23.0752 881.432 23.2275C881.67 23.4619 882.045 23.5791 882.557 23.5791C883.365 23.5791 883.895 23.2939 884.145 22.7236C884.293 22.3877 884.362 21.7881 884.35 20.9248C884.139 21.2451 883.885 21.4834 883.588 21.6396C883.291 21.7959 882.899 21.874 882.41 21.874C881.731 21.874 881.135 21.6338 880.623 21.1533C880.115 20.6689 879.862 19.8701 879.862 18.7568C879.862 17.7061 880.117 16.8857 880.629 16.2959C881.145 15.7061 881.766 15.4111 882.492 15.4111ZM884.391 18.6338C884.391 17.8564 884.231 17.2803 883.91 16.9053C883.59 16.5303 883.182 16.3428 882.686 16.3428C881.944 16.3428 881.436 16.6904 881.162 17.3857C881.018 17.7568 880.945 18.2432 880.945 18.8447C880.945 19.5518 881.088 20.0908 881.373 20.4619C881.662 20.8291 882.049 21.0127 882.533 21.0127C883.291 21.0127 883.824 20.6709 884.133 19.9873C884.305 19.6006 884.391 19.1494 884.391 18.6338Z" fill="black"/>
<path d="M718.424 498.245H681.384V374.84H641.411" stroke="#00CC00" stroke-width="3" stroke-miterlimit="10" stroke-dasharray="9 9"/>
<path d="M630.993 374.84L644.883 367.899L641.411 374.84L644.883 381.782L630.993 374.84Z" fill="#00CC00" stroke="#00CC00" stroke-width="3" stroke-miterlimit="10"/>
<path d="M718.424 100.266H681.384V254.521H641.411" stroke="#00CC00" stroke-width="3" stroke-miterlimit="10" stroke-dasharray="9 9"/>
<path d="M630.993 254.521L644.883 247.58L641.411 254.521L644.883 261.463L630.993 254.521Z" fill="#00CC00" stroke="#00CC00" stroke-width="3" stroke-miterlimit="10"/>
<path d="M659.446 166.968C660.67 166.911 661.515 166.463 661.981 165.625C662.224 165.195 662.346 164.698 662.346 164.132C662.346 163.237 662.017 162.556 661.358 162.091C660.978 161.819 660.341 161.561 659.446 161.318V166.968ZM655.804 156.602C655.804 157.311 656.037 157.866 656.502 158.267C656.975 158.668 657.609 158.947 658.404 159.105V154.056C657.466 154.092 656.796 154.378 656.395 154.915C656.001 155.452 655.804 156.014 655.804 156.602ZM653.871 156.731C653.871 155.642 654.268 154.661 655.063 153.787C655.865 152.914 656.986 152.47 658.425 152.455V151.026H659.446V152.434C660.871 152.534 661.963 152.957 662.722 153.701C663.488 154.439 663.889 155.416 663.925 156.634H662.045C661.995 156.09 661.848 155.621 661.605 155.227C661.154 154.503 660.434 154.124 659.446 154.088V159.309C661.107 159.774 662.235 160.211 662.83 160.619C663.796 161.292 664.28 162.288 664.28 163.606C664.28 165.511 663.66 166.864 662.421 167.666C661.734 168.11 660.742 168.404 659.446 168.547V170.631H658.425V168.547C656.341 168.411 654.927 167.673 654.182 166.334C653.774 165.611 653.57 164.633 653.57 163.401H655.471C655.528 164.383 655.682 165.099 655.933 165.55C656.377 166.359 657.201 166.814 658.404 166.914V161.06C656.857 160.766 655.715 160.276 654.977 159.588C654.239 158.901 653.871 157.948 653.871 156.731Z" fill="#00CC00"/>
<path d="M718.424 291.543H687.557H641.411" stroke="#00CC00" stroke-width="3" stroke-miterlimit="10" stroke-dasharray="9 9"/>
<path d="M630.993 291.543L644.883 284.601L641.411 291.543L644.883 298.484L630.993 291.543Z" fill="#00CC00" stroke="#00CC00" stroke-width="3" stroke-miterlimit="10"/>
<path d="M718.424 337.819H687.557H641.411" stroke="#00CC00" stroke-width="3" stroke-miterlimit="10" stroke-dasharray="9 9"/>
<path d="M630.993 337.819L644.883 330.878L641.411 337.819L644.883 344.761L630.993 337.819Z" fill="#00CC00" stroke="#00CC00" stroke-width="3" stroke-miterlimit="10"/>
<path d="M517.79 174.309V97.1808H425.344" stroke="#00CC00" stroke-width="3" stroke-miterlimit="10" stroke-dasharray="9 9"/>
<path d="M414.926 97.1808L428.816 90.2393L425.343 97.1808L428.816 104.122L414.926 97.1808Z" fill="#00CC00" stroke="#00CC00" stroke-width="3" stroke-miterlimit="10"/>
<path d="M270.856 189.734V128.032H147.543" stroke="#00CC00" stroke-width="3" stroke-miterlimit="10" stroke-dasharray="9 9"/>
<path d="M137.125 128.032L151.015 121.09L147.543 128.032L151.015 134.973L137.125 128.032Z" fill="#00CC00" stroke="#00CC00" stroke-width="3" stroke-miterlimit="10"/>
<path d="M516.247 467.394V544.521H284.746V498.399" stroke="#00CC00" stroke-width="3" stroke-miterlimit="10" stroke-dasharray="9 9"/>
<path d="M284.746 487.987L291.691 501.87L284.746 498.399L277.801 501.87L284.746 487.987Z" fill="#00CC00" stroke="#00CC00" stroke-width="3" stroke-miterlimit="10"/>
<path d="M141.215 467.394H94.9148V374.84H79.6357" stroke="#00CC00" stroke-width="3" stroke-miterlimit="10" stroke-dasharray="9 9"/>
<path d="M69.2188 374.84L83.1088 367.899L79.6363 374.84L83.1088 381.782L69.2188 374.84Z" fill="#00CC00" stroke="#00CC00" stroke-width="3" stroke-miterlimit="10"/>
<path d="M141.215 236.011H94.9148V328.564H79.6357" stroke="#00CC00" stroke-width="3" stroke-miterlimit="10" stroke-dasharray="9 9"/>
<path d="M69.2188 328.564L83.1088 321.622L79.6363 328.564L83.1088 335.505L69.2188 328.564Z" fill="#00CC00" stroke="#00CC00" stroke-width="3" stroke-miterlimit="10"/>
<path d="M456.057 294.628H425.19V251.436L369.769 249.03" stroke="#00CC00" stroke-width="3" stroke-miterlimit="10" stroke-dasharray="9 9"/>
<path d="M359.366 248.582L373.549 242.243L369.768 249.03L372.948 256.11L359.366 248.582Z" fill="#00CC00" stroke="#00CC00" stroke-width="3" stroke-miterlimit="10"/>
<path d="M659.446 436.915C660.67 436.857 661.515 436.41 661.981 435.572C662.224 435.142 662.346 434.644 662.346 434.079C662.346 433.184 662.017 432.503 661.358 432.038C660.978 431.766 660.341 431.508 659.446 431.264V436.915ZM655.804 426.548C655.804 427.257 656.037 427.812 656.502 428.214C656.975 428.615 657.609 428.894 658.404 429.051V424.003C657.465 424.038 656.796 424.325 656.395 424.862C656.001 425.399 655.804 425.961 655.804 426.548ZM653.87 426.677C653.87 425.589 654.268 424.608 655.063 423.734C655.865 422.86 656.986 422.416 658.425 422.402V420.973H659.446V422.38C660.871 422.481 661.963 422.903 662.722 423.648C663.488 424.386 663.889 425.363 663.925 426.581H662.045C661.995 426.036 661.848 425.567 661.605 425.173C661.154 424.45 660.434 424.071 659.446 424.035V429.255C661.107 429.721 662.235 430.158 662.829 430.566C663.796 431.239 664.28 432.235 664.28 433.552C664.28 435.457 663.66 436.811 662.421 437.613C661.734 438.057 660.742 438.351 659.446 438.494V440.578H658.425V438.494C656.341 438.358 654.927 437.62 654.182 436.281C653.774 435.558 653.57 434.58 653.57 433.348H655.471C655.528 434.329 655.682 435.046 655.933 435.497C656.377 436.306 657.201 436.761 658.404 436.861V431.006C656.857 430.713 655.715 430.222 654.977 429.535C654.239 428.847 653.87 427.895 653.87 426.677Z" fill="#00CC00"/>
<path d="M207.842 114.883C209.067 114.826 209.912 114.378 210.377 113.54C210.621 113.11 210.743 112.613 210.743 112.047C210.743 111.152 210.413 110.471 209.754 110.006C209.375 109.734 208.737 109.476 207.842 109.232V114.883ZM204.201 104.517C204.201 105.226 204.433 105.781 204.899 106.182C205.371 106.583 206.005 106.862 206.8 107.02V101.971C205.862 102.007 205.192 102.293 204.791 102.83C204.397 103.367 204.201 103.929 204.201 104.517ZM202.267 104.646C202.267 103.557 202.664 102.576 203.459 101.702C204.261 100.828 205.382 100.384 206.822 100.37V98.9414H207.842V100.349C209.267 100.449 210.359 100.871 211.118 101.616C211.885 102.354 212.286 103.331 212.322 104.549H210.442C210.392 104.005 210.245 103.535 210.001 103.142C209.55 102.418 208.83 102.039 207.842 102.003V107.224C209.504 107.689 210.631 108.126 211.226 108.534C212.193 109.207 212.676 110.203 212.676 111.521C212.676 113.425 212.057 114.779 210.818 115.581C210.13 116.025 209.138 116.319 207.842 116.462V118.546H206.822V116.462C204.738 116.326 203.323 115.588 202.578 114.249C202.17 113.526 201.966 112.548 201.966 111.316H203.868C203.925 112.298 204.079 113.014 204.329 113.465C204.773 114.274 205.597 114.729 206.8 114.829V108.975C205.253 108.681 204.111 108.19 203.373 107.503C202.636 106.815 202.267 105.863 202.267 104.646Z" fill="#00CC00"/>
<path d="M72.977 433.83C74.2016 433.772 75.0467 433.325 75.5122 432.487C75.7557 432.057 75.8774 431.559 75.8774 430.994C75.8774 430.098 75.548 429.418 74.8891 428.953C74.5096 428.681 73.8722 428.423 72.977 428.179V433.83ZM69.3354 423.463C69.3354 424.172 69.5682 424.727 70.0336 425.128C70.5063 425.529 71.1401 425.809 71.935 425.966V420.917C70.9969 420.953 70.3273 421.24 69.9262 421.777C69.5323 422.314 69.3354 422.876 69.3354 423.463ZM67.4018 423.592C67.4018 422.504 67.7993 421.523 68.5942 420.649C69.3963 419.775 70.517 419.331 71.9565 419.317V417.888H72.977V419.295C74.4021 419.396 75.4943 419.818 76.2534 420.563C77.0197 421.301 77.4207 422.278 77.4565 423.496H75.5766C75.5265 422.951 75.3797 422.482 75.1362 422.088C74.685 421.365 73.9653 420.986 72.977 420.95V426.17C74.6385 426.636 75.7664 427.073 76.3608 427.481C77.3276 428.154 77.811 429.15 77.811 430.467C77.811 432.372 77.1915 433.726 75.9526 434.528C75.2651 434.972 74.2732 435.265 72.977 435.409V437.493H71.9565V435.409C69.8725 435.273 68.4581 434.535 67.7133 433.196C67.3051 432.472 67.101 431.495 67.101 430.263H69.0024C69.0597 431.244 69.2137 431.96 69.4643 432.412C69.9083 433.221 70.7319 433.676 71.935 433.776V427.921C70.3881 427.628 69.2459 427.137 68.5083 426.45C67.7706 425.762 67.4018 424.81 67.4018 423.592Z" fill="#00CC00"/>
<path d="M76.0639 256.436C77.2885 256.379 78.1336 255.931 78.5991 255.093C78.8426 254.664 78.9643 254.166 78.9643 253.6C78.9643 252.705 78.6349 252.025 77.976 251.559C77.5965 251.287 76.9591 251.029 76.0639 250.786V256.436ZM72.4223 246.07C72.4223 246.779 72.6551 247.334 73.1206 247.735C73.5932 248.136 74.227 248.415 75.0219 248.573V243.524C74.0838 243.56 73.4142 243.846 73.0131 244.383C72.6193 244.92 72.4223 245.483 72.4223 246.07ZM70.4887 246.199C70.4887 245.11 70.8862 244.129 71.6811 243.255C72.4832 242.382 73.604 241.938 75.0434 241.923V240.495H76.0639V241.902C77.4891 242.002 78.5812 242.425 79.3403 243.169C80.1066 243.907 80.5076 244.885 80.5434 246.102H78.6635C78.6134 245.558 78.4666 245.089 78.2231 244.695C77.7719 243.971 77.0522 243.592 76.0639 243.556V248.777C77.7254 249.242 78.8533 249.679 79.4477 250.087C80.4145 250.761 80.8979 251.756 80.8979 253.074C80.8979 254.979 80.2784 256.332 79.0395 257.134C78.352 257.578 77.3601 257.872 76.0639 258.015V260.099H75.0434V258.015C72.9594 257.879 71.545 257.141 70.8002 255.802C70.392 255.079 70.1879 254.101 70.1879 252.87H72.0893C72.1466 253.851 72.3006 254.567 72.5512 255.018C72.9952 255.827 73.8188 256.282 75.0219 256.382V250.528C73.4751 250.234 72.3328 249.744 71.5952 249.056C70.8575 248.369 70.4887 247.416 70.4887 246.199Z" fill="#00CC00"/>
</g>
<defs>
<clipPath id="clip0_227_529">
<rect width="1193" height="580" fill="white"/>
</clipPath>
</defs>
</svg>
