<svg width="344" height="344" viewBox="0 0 344 344" fill="none" xmlns="http://www.w3.org/2000/svg">
<path d="M172 23L344 320H0L172 23Z" fill="url(#paint0_linear_157_403)"/>
<circle cx="112" cy="202.5" r="6.5" stroke="white" stroke-width="3"/>
<circle cx="143" cy="231.5" r="6.5" stroke="white" stroke-width="3"/>
<circle cx="172" cy="262.5" r="6.5" stroke="white" stroke-width="3"/>
<circle cx="112" cy="262.5" r="6.5" stroke="white" stroke-width="3"/>
<circle cx="232" cy="262.5" r="6.5" stroke="white" stroke-width="3"/>
<circle cx="66" cy="262.5" r="6.5" stroke="white" stroke-width="3"/>
<circle cx="143" cy="292.5" r="6.5" stroke="white" stroke-width="3"/>
<circle cx="202" cy="292.5" r="6.5" stroke="white" stroke-width="3"/>
<circle cx="261" cy="292.5" r="6.5" stroke="white" stroke-width="3"/>
<circle cx="84" cy="292.5" r="6.5" stroke="white" stroke-width="3"/>
<circle cx="278" cy="262.5" r="6.5" stroke="white" stroke-width="3"/>
<circle cx="202" cy="231.5" r="6.5" stroke="white" stroke-width="3"/>
<circle cx="232" cy="202.5" r="6.5" stroke="white" stroke-width="3"/>
<circle cx="172" cy="202.5" r="6.5" stroke="white" stroke-width="3"/>
<path d="M106.656 269.137L89.7677 272.981L101.541 285.685L106.656 269.137ZM90.0196 286.6L97.7742 279.414L95.735 277.213L87.9804 284.4L90.0196 286.6Z" fill="white"/>
<path d="M112 211.5L103.34 226.5H120.66L112 211.5ZM113.5 253.5V225H110.5V253.5H113.5Z" fill="white"/>
<path d="M202 240.5L193.34 255.5H210.66L202 240.5ZM203.5 283.5V254H200.5V283.5H203.5Z" fill="white"/>
<path d="M178 208.5L182.988 225.087L194.858 212.474L178 208.5ZM196.028 223.408L188.859 216.66L186.803 218.845L193.972 225.592L196.028 223.408Z" fill="white"/>
<path d="M171.5 163L162.84 178L180.16 178L171.5 163ZM173 193L173 176.5L170 176.5L170 193L173 193Z" fill="white"/>
<path d="M226 208.5L209.148 212.503L221.041 225.096L226 208.5ZM209.03 226.591L217.215 218.86L215.155 216.679L206.97 224.41L209.03 226.591Z" fill="white"/>
<defs>
<linearGradient id="paint0_linear_157_403" x1="132" y1="23" x2="230" y2="320" gradientUnits="userSpaceOnUse">
<stop offset="0.0208333" stop-color="#102697"/>
<stop offset="0.197917" stop-color="#6E3284"/>
<stop offset="0.46875" stop-color="#FE4468"/>
<stop offset="1" stop-color="#FDD08C"/>
</linearGradient>
</defs>
</svg>
