<svg width="36" height="37" viewBox="0 0 36 37" fill="none" xmlns="http://www.w3.org/2000/svg">
<g clip-path="url(#clip0_89_418)">
<path d="M18 15.4999C20.4853 15.4999 22.5 13.4852 22.5 10.9999C22.5 8.5146 20.4853 6.49988 18 6.49988C15.5147 6.49988 13.5 8.5146 13.5 10.9999C13.5 13.4852 15.5147 15.4999 18 15.4999Z" stroke="white" stroke-width="2.75" stroke-linejoin="round"/>
<path d="M25.5 28.9999C27.9853 28.9999 30 26.9852 30 24.4999C30 22.0146 27.9853 19.9999 25.5 19.9999C23.0147 19.9999 21 22.0146 21 24.4999C21 26.9852 23.0147 28.9999 25.5 28.9999Z" stroke="white" stroke-width="2.75" stroke-linejoin="round"/>
<path d="M10.5 28.9999C12.9853 28.9999 15 26.9852 15 24.4999C15 22.0146 12.9853 19.9999 10.5 19.9999C8.01472 19.9999 6 22.0146 6 24.4999C6 26.9852 8.01472 28.9999 10.5 28.9999Z" stroke="white" stroke-width="2.75" stroke-linejoin="round"/>
</g>
<defs>
<clipPath id="clip0_89_418">
<rect width="36" height="36" fill="white" transform="translate(0 0.5)"/>
</clipPath>
</defs>
</svg>
