<svg width="47" height="49" viewBox="0 0 47 49" fill="none" xmlns="http://www.w3.org/2000/svg">
<path fill-rule="evenodd" clip-rule="evenodd" d="M23.8718 31.6423C25.634 31.6423 27.3135 30.9112 28.5801 29.6177C29.8742 28.3242 30.5625 26.6089 30.5625 24.7812C30.5625 20.9569 27.5613 17.8638 23.8718 17.8638C20.1272 17.8638 17.071 20.9569 17.071 24.7812C17.071 28.5773 20.1272 31.6423 23.8718 31.6423ZM23.8718 19.1573C26.8455 19.1573 29.296 21.688 29.296 24.7812C29.296 27.79 26.8179 30.3207 23.8718 30.3207C20.8431 30.3207 18.3651 27.8462 18.3651 24.7812C18.3651 21.688 20.8431 19.1573 23.8718 19.1573Z" fill="black"/>
<path fill-rule="evenodd" clip-rule="evenodd" d="M28.3599 21.3225C28.5251 21.3225 28.6627 21.2663 28.8004 21.1538L43.8613 7.37522C44.1091 7.12214 44.1367 6.72847 43.8889 6.44727C43.6686 6.16608 43.2556 6.16608 42.9803 6.39103L27.9469 20.1696C27.6715 20.4227 27.644 20.8445 27.8918 21.0975C28.0295 21.2381 28.1947 21.3225 28.3599 21.3225Z" fill="black"/>
<path fill-rule="evenodd" clip-rule="evenodd" d="M25.2483 19.3542C25.5512 19.3542 25.799 19.1574 25.8816 18.848L28.3596 7.79708C28.4422 7.43153 28.2219 7.09409 27.864 7.00973C27.5061 6.92537 27.1757 7.15033 27.0931 7.48776L24.615 18.5669C24.5324 18.9043 24.7527 19.2698 25.1106 19.3542C25.1657 19.3542 25.1932 19.3542 25.2483 19.3542Z" fill="black"/>
<path fill-rule="evenodd" clip-rule="evenodd" d="M21.0355 19.9165C21.1181 19.9165 21.2283 19.8884 21.3109 19.8321C21.6413 19.6634 21.7514 19.2697 21.5862 18.9604L14.2623 4.42264C14.097 4.11332 13.7116 3.97273 13.3812 4.14144C13.0783 4.31016 12.9406 4.70383 13.1058 5.04127L20.4573 19.5509C20.5675 19.7759 20.7877 19.9165 21.0355 19.9165ZM12.2248 2.39803C12.5827 2.39803 12.858 2.08872 12.858 1.72316C12.858 1.35761 12.5827 1.07642 12.2248 1.07642C11.8668 1.07642 11.5639 1.35761 11.5639 1.72316C11.5639 2.08872 11.8668 2.39803 12.2248 2.39803Z" fill="black"/>
<path fill-rule="evenodd" clip-rule="evenodd" d="M18.5581 22.2505C18.7783 22.2505 18.9986 22.1381 19.1087 21.9412C19.2739 21.6319 19.1913 21.2101 18.8885 21.0414L5.12162 12.8867C4.81875 12.6899 4.40575 12.8024 4.24054 13.1117C4.04781 13.421 4.15794 13.8147 4.46081 14.0115L18.2277 22.1662C18.3378 22.2224 18.4479 22.2505 18.5581 22.2505Z" fill="black"/>
<path fill-rule="evenodd" clip-rule="evenodd" d="M3.49715 45.2241C3.66235 45.2241 3.82756 45.1678 3.93769 45.0553L19.9072 29.4771C20.155 29.224 20.1826 28.8304 19.9348 28.5492C19.687 28.2961 19.274 28.2961 19.0262 28.5492L3.05661 44.0993C2.78128 44.3523 2.78128 44.7741 3.02908 45.0272C3.16675 45.1678 3.33195 45.2241 3.49715 45.2241Z" fill="black"/>
<path fill-rule="evenodd" clip-rule="evenodd" d="M12.3074 27.2277C12.3349 27.2277 12.3625 27.2277 12.39 27.2277L17.8967 26.3841C18.2547 26.3279 18.5025 25.9905 18.4474 25.6249C18.3924 25.2593 18.0619 25.0063 17.704 25.0625L12.1973 25.9061C11.8669 25.9623 11.6191 26.2998 11.6741 26.6653C11.7292 27.0028 12.0045 27.2277 12.3074 27.2277Z" fill="black"/>
<path fill-rule="evenodd" clip-rule="evenodd" d="M33.7016 44.9429C33.7842 44.9429 33.8943 44.9148 33.9769 44.8586C34.3073 44.6898 34.4174 44.2962 34.2522 43.9869L27.2036 29.9271C27.0384 29.6178 26.6529 29.4772 26.3225 29.6459C26.0197 29.8146 25.882 30.2083 26.0472 30.5176L33.1233 44.5774C33.2335 44.8023 33.4537 44.9429 33.7016 44.9429Z" fill="black"/>
<path fill-rule="evenodd" clip-rule="evenodd" d="M21.1182 41.8497C21.421 41.8497 21.6964 41.6248 21.7514 41.2873L23.4034 30.9956C23.4585 30.63 23.2107 30.2926 22.8803 30.2364C22.5224 30.1801 22.192 30.4332 22.1369 30.7706L20.4849 41.0905C20.4298 41.456 20.6776 41.7935 21.008 41.8497C21.0631 41.8497 21.0906 41.8497 21.1182 41.8497Z" fill="black"/>
<path fill-rule="evenodd" clip-rule="evenodd" d="M40.1168 31.4456C40.3646 31.4456 40.6125 31.305 40.6951 31.0519C40.8327 30.7145 40.6951 30.3208 40.3646 30.1802L29.9844 25.6811C29.654 25.5405 29.2961 25.6811 29.1584 26.0185C29.0208 26.3559 29.1584 26.7496 29.4888 26.8902L39.869 31.3893C39.9516 31.4175 40.0342 31.4456 40.1168 31.4456Z" fill="black"/>
<path fill-rule="evenodd" clip-rule="evenodd" d="M44.7147 8.19072C45.9537 8.19072 47 7.09406 47 5.77244C47 4.47894 45.9813 3.4104 44.7147 3.4104C43.4206 3.4104 42.3193 4.47894 42.3193 5.77244C42.3193 7.06594 43.4206 8.19072 44.7147 8.19072ZM44.7147 4.73202C45.2654 4.73202 45.7059 5.18193 45.7059 5.77244C45.7059 6.36295 45.2378 6.89722 44.7147 6.89722C44.1365 6.89722 43.6134 6.33483 43.6134 5.77244C43.6134 5.21005 44.109 4.73202 44.7147 4.73202Z" fill="black"/>
<path fill-rule="evenodd" clip-rule="evenodd" d="M28.0846 8.30314C29.3512 8.30314 30.3975 7.23459 30.3975 5.9411C30.3975 4.6476 29.3512 3.60718 28.0846 3.60718C26.8181 3.60718 25.7993 4.6476 25.7993 5.9411C25.7993 7.23459 26.8181 8.30314 28.0846 8.30314ZM28.0846 4.92879C28.6628 4.92879 29.1034 5.37871 29.1034 5.9411C29.1034 6.53161 28.6628 6.98152 28.0846 6.98152C27.534 6.98152 27.0934 6.53161 27.0934 5.9411C27.0934 5.37871 27.534 4.92879 28.0846 4.92879Z" fill="black"/>
<path fill-rule="evenodd" clip-rule="evenodd" d="M12.9411 5.5756C14.2076 5.5756 15.2539 4.53517 15.2539 3.24168C15.2539 1.94818 14.2076 0.879639 12.9411 0.879639C11.6745 0.879639 10.6558 1.94818 10.6558 3.24168C10.6558 4.53517 11.6745 5.5756 12.9411 5.5756ZM12.9411 2.20126C13.5193 2.20126 13.9598 2.65117 13.9598 3.24168C13.9598 3.80407 13.5193 4.25398 12.9411 4.25398C12.3904 4.25398 11.9499 3.80407 11.9499 3.24168C11.9499 2.65117 12.3904 2.20126 12.9411 2.20126Z" fill="black"/>
<path fill-rule="evenodd" clip-rule="evenodd" d="M3.30436 14.9395C4.57091 14.9395 5.61719 13.8991 5.61719 12.6056C5.61719 11.284 4.57091 10.1592 3.30436 10.1592C2.06534 10.1592 1.01906 11.284 1.01906 12.6056C1.01906 13.8991 2.03781 14.9395 3.30436 14.9395ZM3.30436 11.4808C3.85503 11.4808 4.3231 12.0151 4.3231 12.6056C4.3231 13.1961 3.88257 13.646 3.30436 13.646C2.75368 13.646 2.31315 13.1961 2.31315 12.6056C2.31315 12.0151 2.78122 11.4808 3.30436 11.4808Z" fill="black"/>
<path fill-rule="evenodd" clip-rule="evenodd" d="M10.6554 29.196C11.9494 29.196 13.0508 28.1274 13.0508 26.862C13.0508 25.5685 11.9494 24.5 10.6554 24.5C9.3888 24.5 8.37006 25.5685 8.37006 26.862C8.37006 28.1555 9.3888 29.196 10.6554 29.196ZM10.6554 25.8216C11.2336 25.8216 11.7567 26.2996 11.7567 26.862C11.7567 27.3963 11.2336 27.8743 10.6554 27.8743C10.0771 27.8743 9.6366 27.4244 9.6366 26.862C9.6366 26.2715 10.0771 25.8216 10.6554 25.8216Z" fill="black"/>
<path fill-rule="evenodd" clip-rule="evenodd" d="M41.6864 33.7794C42.9529 33.7794 43.9717 32.739 43.9717 31.4455C43.9717 30.152 42.9529 29.1116 41.6864 29.1116C40.4198 29.1116 39.3736 30.152 39.3736 31.4455C39.3736 32.739 40.4198 33.7794 41.6864 33.7794ZM41.6864 30.4051C42.2371 30.4051 42.6776 30.855 42.6776 31.4455C42.6776 32.036 42.2371 32.4859 41.6864 32.4859C41.1082 32.4859 40.6676 32.036 40.6676 31.4455C40.6676 30.855 41.1082 30.4051 41.6864 30.4051Z" fill="black"/>
<path fill-rule="evenodd" clip-rule="evenodd" d="M2.31277 48.1204C3.60685 48.1204 4.68066 47.0519 4.68066 45.7865C4.68066 44.493 3.57932 43.3401 2.31277 43.3401C1.04622 43.3401 -6.18882e-05 44.4649 -6.18882e-05 45.7865C-6.18882e-05 47.08 1.04622 48.1204 2.31277 48.1204ZM2.31277 44.6617C2.86344 44.6617 3.41411 45.196 3.41411 45.7865C3.41411 46.3489 2.89097 46.8269 2.31277 46.8269C1.73456 46.8269 1.29402 46.377 1.29402 45.7865C1.29402 45.196 1.76209 44.6617 2.31277 44.6617Z" fill="black"/>
<path fill-rule="evenodd" clip-rule="evenodd" d="M34.4167 48.1202C35.6832 48.1202 36.7295 47.0798 36.7295 45.7863C36.7295 44.4928 35.6832 43.4524 34.4167 43.4524C33.1501 43.4524 32.1314 44.4928 32.1314 45.7863C32.1314 47.0798 33.1501 48.1202 34.4167 48.1202ZM34.4167 44.7459C34.9949 44.7459 35.4354 45.1958 35.4354 45.7863C35.4354 46.3768 34.9949 46.8267 34.4167 46.8267C33.866 46.8267 33.4254 46.3768 33.4254 45.7863C33.4254 45.1958 33.866 44.7459 34.4167 44.7459Z" fill="black"/>
<path fill-rule="evenodd" clip-rule="evenodd" d="M20.8426 45.3084C22.0816 45.3084 23.1279 44.2117 23.1279 42.8901C23.1279 41.5966 22.1092 40.5281 20.8426 40.5281C19.5761 40.5281 18.5573 41.5966 18.5573 42.8901C18.5573 44.2117 19.6036 45.3084 20.8426 45.3084ZM20.8426 41.8497C21.4208 41.8497 21.8614 42.2996 21.8614 42.8901C21.8614 43.4806 21.3933 44.0149 20.8426 44.0149C20.292 44.0149 19.8239 43.4806 19.8239 42.8901C19.8239 42.2996 20.2644 41.8497 20.8426 41.8497Z" fill="black"/>
</svg>
