<svg width="36" height="37" viewBox="0 0 36 37" fill="none" xmlns="http://www.w3.org/2000/svg">
<g clip-path="url(#clip0_89_427)">
<path d="M24.9574 22.5793C27.1411 22.5802 29.276 21.9334 31.0921 20.7209C32.9082 19.5083 34.3239 17.7844 35.1602 15.7672C35.9965 13.75 36.2158 11.5301 35.7903 9.38824C35.3648 7.24639 34.3137 5.27883 32.7699 3.73441C31.2261 2.18998 29.259 1.13808 27.1173 0.711733C24.9757 0.285387 22.7556 0.503753 20.7381 1.33921C18.7205 2.17467 16.9961 3.58969 15.7828 5.40531C14.5695 7.22093 13.9219 9.35557 13.9219 11.5393C13.9247 14.4656 15.0881 17.2714 17.1569 19.3411C19.2257 21.4107 22.031 22.5753 24.9574 22.5793ZM24.9574 1.62502C26.9186 1.62413 28.836 2.2049 30.4672 3.29386C32.0983 4.38283 33.3698 5.93108 34.1209 7.74277C34.872 9.55446 35.069 11.5482 34.6869 13.4719C34.3047 15.3955 33.3607 17.1626 31.9742 18.5497C30.5876 19.9367 28.8209 20.8814 26.8974 21.2643C24.9739 21.6471 22.9801 21.4509 21.1681 20.7005C19.3561 19.9501 17.8074 18.6791 16.7178 17.0484C15.6282 15.4177 15.0467 13.5005 15.0469 11.5393C15.0495 8.91129 16.0943 6.39163 17.9522 4.53301C19.8101 2.6744 22.3294 1.6286 24.9574 1.62502Z" fill="white"/>
<path d="M25.8968 15.2547H23.7293C23.3116 15.2547 22.911 15.0888 22.6156 14.7934C22.3202 14.498 22.1543 14.0974 22.1543 13.6797C22.1543 13.5305 22.095 13.3875 21.9895 13.282C21.8841 13.1765 21.741 13.1172 21.5918 13.1172C21.4426 13.1172 21.2995 13.1765 21.1941 13.282C21.0886 13.3875 21.0293 13.5305 21.0293 13.6797C21.0293 14.0343 21.0991 14.3854 21.2348 14.713C21.3705 15.0405 21.5694 15.3382 21.8201 15.5889C22.0708 15.8396 22.3685 16.0385 22.6961 16.1742C23.0236 16.3099 23.3747 16.3797 23.7293 16.3797H24.2498V18.338C24.2498 18.4871 24.3091 18.6302 24.4145 18.7357C24.52 18.8412 24.6631 18.9005 24.8123 18.9005C24.9615 18.9005 25.1046 18.8412 25.21 18.7357C25.3155 18.6302 25.3748 18.4871 25.3748 18.338V16.3797H25.8998C26.6159 16.3797 27.3026 16.0952 27.809 15.5889C28.3153 15.0826 28.5998 14.3958 28.5998 13.6797C28.5998 12.9636 28.3153 12.2769 27.809 11.7705C27.3026 11.2642 26.6159 10.9797 25.8998 10.9797H23.7323C23.3146 10.9797 22.914 10.8138 22.6186 10.5184C22.3232 10.223 22.1573 9.82243 22.1573 9.40471C22.1573 8.987 22.3232 8.58639 22.6186 8.29102C22.914 7.99565 23.3146 7.82971 23.7323 7.82971H25.8998C26.1066 7.82971 26.3114 7.87045 26.5025 7.9496C26.6936 8.02875 26.8672 8.14477 27.0135 8.29102C27.1597 8.43727 27.2758 8.6109 27.3549 8.80198C27.4341 8.99307 27.4748 9.19788 27.4748 9.40471C27.4748 9.5539 27.5341 9.69697 27.6395 9.80246C27.745 9.90795 27.8881 9.96721 28.0373 9.96721C28.1865 9.96721 28.3296 9.90795 28.435 9.80246C28.5405 9.69697 28.5998 9.5539 28.5998 9.40471C28.5998 8.68863 28.3153 8.00187 27.809 7.49552C27.3026 6.98917 26.6159 6.70471 25.8998 6.70471H25.3748V4.74121C25.3748 4.59203 25.3155 4.44895 25.21 4.34346C25.1046 4.23797 24.9615 4.17871 24.8123 4.17871C24.6631 4.17871 24.52 4.23797 24.4145 4.34346C24.3091 4.44895 24.2498 4.59203 24.2498 4.74121V6.69946H23.7293C23.0132 6.69946 22.3265 6.98392 21.8201 7.49027C21.3138 7.99662 21.0293 8.68338 21.0293 9.39946C21.0293 10.1155 21.3138 10.8023 21.8201 11.3086C22.3265 11.815 23.0132 12.0995 23.7293 12.0995H25.8968C26.3145 12.0995 26.7151 12.2654 27.0105 12.5608C27.3059 12.8561 27.4718 13.2567 27.4718 13.6745C27.4718 14.0922 27.3059 14.4928 27.0105 14.7882C26.7151 15.0835 26.3145 15.2495 25.8968 15.2495V15.2547Z" fill="white"/>
<path d="M32.8181 24.74C31.6496 25.1217 27.9851 26.24 27.9844 26.24L24.1451 27.14C23.9394 26.7525 23.6271 26.4319 23.2451 26.216C23.0014 26.066 17.2496 22.5657 15.3251 21.7062C14.4165 21.3471 13.4079 21.3327 12.4894 21.6658L5.23239 24.65L4.75539 23.4897C4.72735 23.4214 4.6861 23.3592 4.634 23.3068C4.58189 23.2544 4.51996 23.2128 4.45176 23.1844C4.38355 23.156 4.31041 23.1413 4.23652 23.1412C4.16262 23.1411 4.08943 23.1555 4.02114 23.1838L0.341642 24.698C0.205043 24.7557 0.0967577 24.865 0.0403431 25.0022C-0.0160715 25.1393 -0.0160511 25.2932 0.0403999 25.4303C0.0968509 25.5674 0.205165 25.6767 0.34178 25.7344C0.478394 25.792 0.632256 25.7934 0.769892 25.7383L3.92889 24.4377L7.90839 34.1173L4.75014 35.4178C4.62999 35.4675 4.53077 35.5573 4.46938 35.6719C4.40798 35.7866 4.3882 35.9189 4.41339 36.0465C4.43859 36.1741 4.50721 36.289 4.60758 36.3717C4.70794 36.4543 4.83386 36.4997 4.96389 36.5C5.03728 36.5001 5.10994 36.4856 5.17764 36.4573L8.85714 34.9438C8.92551 34.9157 8.98767 34.8745 9.04007 34.8224C9.09246 34.7703 9.13406 34.7083 9.16249 34.6401C9.19091 34.5719 9.2056 34.4988 9.20572 34.4249C9.20583 34.351 9.19136 34.2778 9.16314 34.2095L8.58039 32.7927L11.5976 31.55L19.3436 34.505C20.0105 34.7594 20.7451 34.7746 21.4219 34.5478L21.6469 34.4728C24.498 33.546 27.2691 32.3892 29.9329 31.0138C30.3709 30.7888 33.5411 29.1732 34.6886 28.4847C35.2055 28.2319 35.6047 27.7893 35.8031 27.2492C36.0015 26.7091 35.9838 26.1133 35.7536 25.586C35.2324 24.6245 34.1344 24.3087 32.8181 24.74ZM34.1096 27.5203C32.9959 28.1885 29.8564 29.7868 29.4169 30.014C26.8051 31.3623 24.0882 32.4966 21.2929 33.4055L21.0679 33.4805C20.6376 33.6236 20.1712 33.6141 19.7471 33.4535L11.7971 30.4198C11.6633 30.3685 11.5149 30.3704 11.3824 30.425L8.15739 31.751L5.65989 25.6895L12.9184 22.7C13.552 22.4834 14.2412 22.4932 14.8684 22.7277C16.7284 23.558 22.6031 27.1347 22.6841 27.1835C22.8296 27.2633 22.9571 27.3721 23.0588 27.5032C23.1605 27.6343 23.2342 27.7849 23.2753 27.9456C23.3165 28.1063 23.3241 28.2738 23.2979 28.4376C23.2717 28.6014 23.2121 28.7581 23.1229 28.898C22.966 29.1419 22.7272 29.3219 22.4495 29.4055C22.1718 29.4891 21.8734 29.4708 21.6079 29.354L17.6456 27.5833C17.5779 27.551 17.5044 27.5326 17.4295 27.5292C17.3546 27.5258 17.2797 27.5374 17.2094 27.5633C17.139 27.5892 17.0745 27.629 17.0197 27.6802C16.9649 27.7314 16.9209 27.7931 16.8903 27.8616C16.8597 27.93 16.8431 28.0039 16.8415 28.0789C16.8398 28.1539 16.8532 28.2285 16.8808 28.2982C16.9084 28.3679 16.9497 28.4314 17.0022 28.485C17.0548 28.5385 17.1175 28.581 17.1866 28.61L21.1481 30.3807C21.4451 30.5131 21.7666 30.5813 22.0916 30.581C22.4012 30.5837 22.7082 30.5245 22.9944 30.4067C23.2807 30.289 23.5405 30.1151 23.7585 29.8953C23.9765 29.6756 24.1484 29.4144 24.2638 29.1272C24.3793 28.8399 24.4361 28.5325 24.4309 28.223L28.2784 27.323C28.3151 27.3117 31.9909 26.1927 33.1699 25.8073C33.6199 25.6572 34.4321 25.5027 34.7674 26.1207C35.1026 26.7387 34.3871 27.3545 34.1096 27.5203Z" fill="white"/>
</g>
<defs>
<clipPath id="clip0_89_427">
<rect width="36" height="36" fill="white" transform="translate(0 0.5)"/>
</clipPath>
</defs>
</svg>
