<svg width="49" height="49" viewBox="0 0 49 49" fill="none" xmlns="http://www.w3.org/2000/svg">
<path d="M45.5609 6.80708L40.574 0.309504C40.4474 0.144607 40.2514 0.0478516 40.0435 0.0478516C39.8357 0.0478516 39.6396 0.144607 39.513 0.309504L34.5261 6.80717C34.3711 7.00911 34.3443 7.28167 34.457 7.51002C34.5695 7.73836 34.8021 7.88297 35.0567 7.88297H37.9074V21.8529C36.506 21.1468 34.9242 20.7482 33.2508 20.7482C32.3331 20.7482 31.4431 20.8684 30.595 21.0929V14.1423H33.4458C33.7004 14.1423 33.9329 13.9977 34.0455 13.7694C34.1582 13.541 34.1314 13.2686 33.9763 13.0665L28.9896 6.56619C28.863 6.4012 28.6669 6.30444 28.459 6.30444C28.2512 6.30444 28.0551 6.4012 27.9286 6.56619L22.9416 13.0665C22.7865 13.2686 22.7597 13.541 22.8724 13.7694C22.9849 13.9977 23.2175 14.1423 23.4721 14.1423H26.3257V23.4007C24.2018 25.304 22.8629 28.0667 22.8629 31.1364C22.8629 31.5967 22.8949 32.054 22.9549 32.5069C21.6409 31.4929 20.3264 30.479 19.0132 29.4649V19.6519H21.864C22.1186 19.6519 22.3511 19.5072 22.4637 19.2789C22.5764 19.0505 22.5496 18.7779 22.3945 18.5761L17.4076 12.0784C17.281 11.9135 17.085 11.8168 16.8772 11.8168C16.6693 11.8168 16.4732 11.9135 16.3467 12.0784L11.3591 18.576C11.2041 18.7779 11.1773 19.0505 11.2899 19.2788C11.4025 19.5072 11.635 19.6518 11.8897 19.6518H14.7433V29.1248H11.359V27.5979C11.359 27.2286 11.0596 26.9291 10.6902 26.9291H3.97053C3.60121 26.9291 3.30176 27.2285 3.30176 27.5979V44.0831C3.30176 44.4524 3.60112 44.7518 3.97053 44.7518H10.6901C11.0595 44.7518 11.3589 44.4525 11.3589 44.0831V42.9921C12.2461 43.4577 13.0767 43.8968 13.8327 44.2966C19.7639 47.4325 22.6909 48.9521 25.6161 48.9521C28.3612 48.9521 31.105 47.613 36.327 45.0143C37.6074 44.3772 39.0586 43.6549 40.6979 42.8602C42.6154 41.9309 43.4201 39.6137 42.4912 37.6937C42.3382 37.3791 42.1472 37.095 41.9274 36.843C43.046 35.1497 43.6361 33.1896 43.6361 31.1365C43.6361 29.2 43.1031 27.3859 42.1768 25.8324V7.88297H45.0304C45.2851 7.88297 45.5176 7.73827 45.6302 7.51002C45.7428 7.28157 45.7159 7.00901 45.5609 6.80708ZM26.994 12.8049H24.8276L28.4588 8.07198L32.0897 12.8049H29.9261C29.5568 12.8049 29.2573 13.1042 29.2573 13.4737V21.547C28.6996 21.7801 28.1664 22.06 27.6627 22.3827V13.4737C27.6628 13.1043 27.3633 12.8049 26.994 12.8049ZM15.4119 18.3143H13.2459L16.8766 13.5838L20.5073 18.3143H18.344C17.9747 18.3143 17.6752 18.6137 17.6752 18.9831V29.1249H16.0806V18.9831C16.0807 18.6138 15.7813 18.3143 15.4119 18.3143ZM10.0215 43.4144H4.6393V28.2668H10.0215V43.4144ZM40.1144 41.6567C38.4689 42.4546 37.0144 43.1783 35.731 43.8169C30.548 46.3963 27.9463 47.6918 25.3795 47.6076C22.7983 47.5239 20.011 46.0501 14.4579 43.1143C13.5272 42.6222 12.4833 42.0703 11.3589 41.4823V30.4624H18.1158C21.0153 32.7014 23.917 34.9402 26.8191 37.1791L27.1758 37.4544C28.0802 38.1518 28.3955 39.3558 27.9779 40.3987C27.9633 40.4347 27.947 40.47 27.931 40.5052C27.9204 40.5284 27.9099 40.5514 27.8986 40.5745C27.8241 40.7255 27.7357 40.8693 27.6344 41.0021C26.7816 42.1062 25.1902 42.3107 24.0858 41.4581L17.5216 36.3957L16.7049 37.4548L23.2688 42.5168C23.9708 43.0589 24.8016 43.3215 25.6269 43.3215C26.7854 43.3214 27.9327 42.804 28.6951 41.8168C28.7834 41.7012 28.8633 41.58 28.9381 41.4558L37.9071 37.1068C39.1615 36.4975 40.6783 37.0234 41.2881 38.2772C41.8953 39.5328 41.3689 41.0487 40.1144 41.6567ZM40.8809 36.0004C39.8172 35.4145 38.4954 35.3343 37.3233 35.9035L29.4909 39.7014C29.5701 38.4511 29.0383 37.2017 27.9928 36.3954L27.6361 36.1202C26.6212 35.3371 25.6072 34.5542 24.5924 33.7711C24.3331 32.9184 24.2 32.0335 24.2 31.1365C24.2 26.146 28.2601 22.0859 33.2506 22.0859C38.2398 22.0859 42.2987 26.146 42.2987 31.1365C42.2987 32.8823 41.8096 34.5505 40.8809 36.0004ZM41.5081 6.54552C41.1388 6.54552 40.8393 6.84488 40.8393 7.21429V24.0527C40.3568 23.5359 39.8227 23.0679 39.2447 22.6579V7.21429C39.2447 6.84497 38.9453 6.54552 38.5759 6.54552H36.4126L40.0433 1.81501L43.674 6.54552H41.5081ZM35.9472 29.1249V29.7937H34.6097V29.1249C34.6097 28.7413 34.2976 28.4292 33.9139 28.4292H32.9096C32.3483 28.4292 31.8916 28.8859 31.8916 29.4472C31.8916 30.0056 32.0195 30.4679 33.5918 30.4679C34.8906 30.4679 35.9472 31.5245 35.9472 32.8232C35.9472 34.0108 35.0636 34.9954 33.9194 35.1554V36.7734H32.5818V35.1785C31.4633 35.1754 30.5541 34.2648 30.5541 33.1455V32.4768H31.8916V33.1455C31.8916 33.5291 32.2037 33.8412 32.5873 33.8412H33.5917C34.153 33.8412 34.6097 33.3845 34.6097 32.8232C34.6097 32.2619 34.153 31.8053 33.5917 31.8053C33.054 31.8053 32.2669 31.7661 31.641 31.4271C31.1451 31.1585 30.554 30.597 30.554 29.4471C30.554 28.2596 31.4375 27.275 32.5817 27.1149V25.4969H33.9193V27.0918C35.038 27.0949 35.9472 28.0056 35.9472 29.1249Z" fill="black"/>
</svg>
